<?xml version="1.0"?>
<!DOCTYPE svg PUBLIC "-//W3C//DTD SVG 1.1//EN"
  "http://www.w3.org/Graphics/SVG/1.1/DTD/svg11.dtd">

<svg version="1.1" xmlns="http://www.w3.org/2000/svg" xmlns:xlink="http://www.w3.org/1999/xlink" transform="scale(1,-1)" width="187.6009779507968mm" height="83.06777784766899mm" viewBox="-18.527803255434844 -30.107271916074485 187.6009779507968 83.06777784766899" >
    <g stroke="black" stroke-width="0.1" fill="none" >
    <!-- Tie -->
    <path d="M -0.5 0.5 L 0.5 0.5 M 0.5 0.5 L 0.5 -0.5 M 0.5 -0.5 L -0.5 -0.5 M -0.5 -0.5 L -0.5 0.5 " transform="translate(2.4999853643130887 0.0052688350955074625) rotate(0.1591549021734863) scale(2.0 20.01061487154794)" vector-effect="non-scaling-stroke" />
    <path d="M 0.5 -0.5 L -0.5 -0.5 M -0.5 -0.5 L -0.5 0.5 M -0.5 0.5 L 0.5 0.5 M 0.5 0.5 L 0.5 -0.5 " transform="translate(2.4999853643130887 0.0052688350955074625) rotate(0.1591549021734863) scale(2.0 20.01061487154794)" vector-effect="non-scaling-stroke" />
    <path d="M -0.5 0.5 L 0.5 0.5 M 0.5 0.5 L 0.5 0.5 M 0.5 0.5 L -0.5 0.5 M -0.5 0.5 L -0.5 0.5 " transform="translate(2.4999853643130887 0.0052688350955074625) rotate(0.1591549021734863) scale(2.0 20.01061487154794)" vector-effect="non-scaling-stroke" />
    <path d="M 0.5 0.5 L 0.5 -0.5 M 0.5 -0.5 L 0.5 -0.5 M 0.5 -0.5 L 0.5 0.5 M 0.5 0.5 L 0.5 0.5 " transform="translate(2.4999853643130887 0.0052688350955074625) rotate(0.1591549021734863) scale(2.0 20.01061487154794)" vector-effect="non-scaling-stroke" />
    <path d="M 0.5 -0.5 L -0.5 -0.5 M -0.5 -0.5 L -0.5 -0.5 M -0.5 -0.5 L 0.5 -0.5 M 0.5 -0.5 L 0.5 -0.5 " transform="translate(2.4999853643130887 0.0052688350955074625) rotate(0.1591549021734863) scale(2.0 20.01061487154794)" vector-effect="non-scaling-stroke" />
    <path d="M -0.5 0.5 L -0.5 0.5 M -0.5 0.5 L -0.5 -0.5 M -0.5 -0.5 L -0.5 -0.5 M -0.5 -0.5 L -0.5 0.5 " transform="translate(2.4999853643130887 0.0052688350955074625) rotate(0.1591549021734863) scale(2.0 20.01061487154794)" vector-effect="non-scaling-stroke" />
    <!-- Tie -->
    <path d="M -0.5 0.5 L 0.5 0.5 M 0.5 0.5 L 0.5 -0.5 M 0.5 -0.5 L -0.5 -0.5 M -0.5 -0.5 L -0.5 0.5 " transform="translate(7.499604846723955 0.04741740524102145) rotate(0.4774637240373853) scale(2.0 20.095532564761143)" vector-effect="non-scaling-stroke" />
    <path d="M 0.5 -0.5 L -0.5 -0.5 M -0.5 -0.5 L -0.5 0.5 M -0.5 0.5 L 0.5 0.5 M 0.5 0.5 L 0.5 -0.5 " transform="translate(7.499604846723955 0.04741740524102145) rotate(0.4774637240373853) scale(2.0 20.095532564761143)" vector-effect="non-scaling-stroke" />
    <path d="M -0.5 0.5 L 0.5 0.5 M 0.5 0.5 L 0.5 0.5 M 0.5 0.5 L -0.5 0.5 M -0.5 0.5 L -0.5 0.5 " transform="translate(7.499604846723955 0.04741740524102145) rotate(0.4774637240373853) scale(2.0 20.095532564761143)" vector-effect="non-scaling-stroke" />
    <path d="M 0.5 0.5 L 0.5 -0.5 M 0.5 -0.5 L 0.5 -0.5 M 0.5 -0.5 L 0.5 0.5 M 0.5 0.5 L 0.5 0.5 " transform="translate(7.499604846723955 0.04741740524102145) rotate(0.4774637240373853) scale(2.0 20.095532564761143)" vector-effect="non-scaling-stroke" />
    <path d="M 0.5 -0.5 L -0.5 -0.5 M -0.5 -0.5 L -0.5 -0.5 M -0.5 -0.5 L 0.5 -0.5 M 0.5 -0.5 L 0.5 -0.5 " transform="translate(7.499604846723955 0.04741740524102145) rotate(0.4774637240373853) scale(2.0 20.095532564761143)" vector-effect="non-scaling-stroke" />
    <path d="M -0.5 0.5 L -0.5 0.5 M -0.5 0.5 L -0.5 -0.5 M -0.5 -0.5 L -0.5 -0.5 M -0.5 -0.5 L -0.5 0.5 " transform="translate(7.499604846723955 0.04741740524102145) rotate(0.4774637240373853) scale(2.0 20.095532564761143)" vector-effect="non-scaling-stroke" />
    <!-- Tie -->
    <path d="M -0.5 0.5 L 0.5 0.5 M 0.5 0.5 L 0.5 -0.5 M 0.5 -0.5 L -0.5 -0.5 M -0.5 -0.5 L -0.5 0.5 " transform="translate(12.49817068177958 0.13170328968124156) rotate(0.7957695984836528) scale(2.0 20.265361129396535)" vector-effect="non-scaling-stroke" />
    <path d="M 0.5 -0.5 L -0.5 -0.5 M -0.5 -0.5 L -0.5 0.5 M -0.5 0.5 L 0.5 0.5 M 0.5 0.5 L 0.5 -0.5 " transform="translate(12.49817068177958 0.13170328968124156) rotate(0.7957695984836528) scale(2.0 20.265361129396535)" vector-effect="non-scaling-stroke" />
    <path d="M -0.5 0.5 L 0.5 0.5 M 0.5 0.5 L 0.5 0.5 M 0.5 0.5 L -0.5 0.5 M -0.5 0.5 L -0.5 0.5 " transform="translate(12.49817068177958 0.13170328968124156) rotate(0.7957695984836528) scale(2.0 20.265361129396535)" vector-effect="non-scaling-stroke" />
    <path d="M 0.5 0.5 L 0.5 -0.5 M 0.5 -0.5 L 0.5 -0.5 M 0.5 -0.5 L 0.5 0.5 M 0.5 0.5 L 0.5 0.5 " transform="translate(12.49817068177958 0.13170328968124156) rotate(0.7957695984836528) scale(2.0 20.265361129396535)" vector-effect="non-scaling-stroke" />
    <path d="M 0.5 -0.5 L -0.5 -0.5 M -0.5 -0.5 L -0.5 -0.5 M -0.5 -0.5 L 0.5 -0.5 M 0.5 -0.5 L 0.5 -0.5 " transform="translate(12.49817068177958 0.13170328968124156) rotate(0.7957695984836528) scale(2.0 20.265361129396535)" vector-effect="non-scaling-stroke" />
    <path d="M -0.5 0.5 L -0.5 0.5 M -0.5 0.5 L -0.5 -0.5 M -0.5 -0.5 L -0.5 -0.5 M -0.5 -0.5 L -0.5 0.5 " transform="translate(12.49817068177958 0.13170328968124156) rotate(0.7957695984836528) scale(2.0 20.265361129396535)" vector-effect="non-scaling-stroke" />
    <!-- Tie -->
    <path d="M -0.5 0.5 L 0.5 0.5 M 0.5 0.5 L 0.5 -0.5 M 0.5 -0.5 L -0.5 -0.5 M -0.5 -0.5 L -0.5 0.5 " transform="translate(17.49498074217243 0.25810398046337557) rotate(1.1140705603978005) scale(2.0 20.520086924030196)" vector-effect="non-scaling-stroke" />
    <path d="M 0.5 -0.5 L -0.5 -0.5 M -0.5 -0.5 L -0.5 0.5 M -0.5 0.5 L 0.5 0.5 M 0.5 0.5 L 0.5 -0.5 " transform="translate(17.49498074217243 0.25810398046337557) rotate(1.1140705603978005) scale(2.0 20.520086924030196)" vector-effect="non-scaling-stroke" />
    <path d="M -0.5 0.5 L 0.5 0.5 M 0.5 0.5 L 0.5 0.5 M 0.5 0.5 L -0.5 0.5 M -0.5 0.5 L -0.5 0.5 " transform="translate(17.49498074217243 0.25810398046337557) rotate(1.1140705603978005) scale(2.0 20.520086924030196)" vector-effect="non-scaling-stroke" />
    <path d="M 0.5 0.5 L 0.5 -0.5 M 0.5 -0.5 L 0.5 -0.5 M 0.5 -0.5 L 0.5 0.5 M 0.5 0.5 L 0.5 0.5 " transform="translate(17.49498074217243 0.25810398046337557) rotate(1.1140705603978005) scale(2.0 20.520086924030196)" vector-effect="non-scaling-stroke" />
    <path d="M 0.5 -0.5 L -0.5 -0.5 M -0.5 -0.5 L -0.5 -0.5 M -0.5 -0.5 L 0.5 -0.5 M 0.5 -0.5 L 0.5 -0.5 " transform="translate(17.49498074217243 0.25810398046337557) rotate(1.1140705603978005) scale(2.0 20.520086924030196)" vector-effect="non-scaling-stroke" />
    <path d="M -0.5 0.5 L -0.5 0.5 M -0.5 0.5 L -0.5 -0.5 M -0.5 -0.5 L -0.5 -0.5 M -0.5 -0.5 L -0.5 0.5 " transform="translate(17.49498074217243 0.25810398046337557) rotate(1.1140705603978005) scale(2.0 20.520086924030196)" vector-effect="non-scaling-stroke" />
    <!-- Tie -->
    <path d="M -0.5 0.5 L 0.5 0.5 M 0.5 0.5 L 0.5 -0.5 M 0.5 -0.5 L -0.5 -0.5 M -0.5 -0.5 L -0.5 0.5 " transform="translate(22.489333356851816 0.4265857250328233) rotate(1.4323646442772615) scale(2.0 20.85968949192817)" vector-effect="non-scaling-stroke" />
    <path d="M 0.5 -0.5 L -0.5 -0.5 M -0.5 -0.5 L -0.5 0.5 M -0.5 0.5 L 0.5 0.5 M 0.5 0.5 L 0.5 -0.5 " transform="translate(22.489333356851816 0.4265857250328233) rotate(1.4323646442772615) scale(2.0 20.85968949192817)" vector-effect="non-scaling-stroke" />
    <path d="M -0.5 0.5 L 0.5 0.5 M 0.5 0.5 L 0.5 0.5 M 0.5 0.5 L -0.5 0.5 M -0.5 0.5 L -0.5 0.5 " transform="translate(22.489333356851816 0.4265857250328233) rotate(1.4323646442772615) scale(2.0 20.85968949192817)" vector-effect="non-scaling-stroke" />
    <path d="M 0.5 0.5 L 0.5 -0.5 M 0.5 -0.5 L 0.5 -0.5 M 0.5 -0.5 L 0.5 0.5 M 0.5 0.5 L 0.5 0.5 " transform="translate(22.489333356851816 0.4265857250328233) rotate(1.4323646442772615) scale(2.0 20.85968949192817)" vector-effect="non-scaling-stroke" />
    <path d="M 0.5 -0.5 L -0.5 -0.5 M -0.5 -0.5 L -0.5 -0.5 M -0.5 -0.5 L 0.5 -0.5 M 0.5 -0.5 L 0.5 -0.5 " transform="translate(22.489333356851816 0.4265857250328233) rotate(1.4323646442772615) scale(2.0 20.85968949192817)" vector-effect="non-scaling-stroke" />
    <path d="M -0.5 0.5 L -0.5 0.5 M -0.5 0.5 L -0.5 -0.5 M -0.5 -0.5 L -0.5 -0.5 M -0.5 -0.5 L -0.5 0.5 " transform="translate(22.489333356851816 0.4265857250328233) rotate(1.4323646442772615) scale(2.0 20.85968949192817)" vector-effect="non-scaling-stroke" />
    <!-- Tie -->
    <path d="M -0.5 0.5 L 0.5 0.5 M 0.5 0.5 L 0.5 -0.5 M 0.5 -0.5 L -0.5 -0.5 M -0.5 -0.5 L -0.5 0.5 " transform="translate(27.48052749325177 0.6371035374843936) rotate(1.7506498841914808) scale(2.0 21.284141567541024)" vector-effect="non-scaling-stroke" />
    <path d="M 0.5 -0.5 L -0.5 -0.5 M -0.5 -0.5 L -0.5 0.5 M -0.5 0.5 L 0.5 0.5 M 0.5 0.5 L 0.5 -0.5 " transform="translate(27.48052749325177 0.6371035374843936) rotate(1.7506498841914808) scale(2.0 21.284141567541024)" vector-effect="non-scaling-stroke" />
    <path d="M -0.5 0.5 L 0.5 0.5 M 0.5 0.5 L 0.5 0.5 M 0.5 0.5 L -0.5 0.5 M -0.5 0.5 L -0.5 0.5 " transform="translate(27.48052749325177 0.6371035374843936) rotate(1.7506498841914808) scale(2.0 21.284141567541024)" vector-effect="non-scaling-stroke" />
    <path d="M 0.5 0.5 L 0.5 -0.5 M 0.5 -0.5 L 0.5 -0.5 M 0.5 -0.5 L 0.5 0.5 M 0.5 0.5 L 0.5 0.5 " transform="translate(27.48052749325177 0.6371035374843936) rotate(1.7506498841914808) scale(2.0 21.284141567541024)" vector-effect="non-scaling-stroke" />
    <path d="M 0.5 -0.5 L -0.5 -0.5 M -0.5 -0.5 L -0.5 -0.5 M -0.5 -0.5 L 0.5 -0.5 M 0.5 -0.5 L 0.5 -0.5 " transform="translate(27.48052749325177 0.6371035374843936) rotate(1.7506498841914808) scale(2.0 21.284141567541024)" vector-effect="non-scaling-stroke" />
    <path d="M -0.5 0.5 L -0.5 0.5 M -0.5 0.5 L -0.5 -0.5 M -0.5 -0.5 L -0.5 -0.5 M -0.5 -0.5 L -0.5 0.5 " transform="translate(27.48052749325177 0.6371035374843936) rotate(1.7506498841914808) scale(2.0 21.284141567541024)" vector-effect="non-scaling-stroke" />
    <!-- Tie -->
    <path d="M -0.5 0.5 L 0.5 0.5 M 0.5 0.5 L 0.5 -0.5 M 0.5 -0.5 L -0.5 -0.5 M -0.5 -0.5 L -0.5 0.5 " transform="translate(32.467862939243936 0.8896012135679428) rotate(2.0689243136225315) scale(2.0 21.793409085184226)" vector-effect="non-scaling-stroke" />
    <path d="M 0.5 -0.5 L -0.5 -0.5 M -0.5 -0.5 L -0.5 0.5 M -0.5 0.5 L 0.5 0.5 M 0.5 0.5 L 0.5 -0.5 " transform="translate(32.467862939243936 0.8896012135679428) rotate(2.0689243136225315) scale(2.0 21.793409085184226)" vector-effect="non-scaling-stroke" />
    <path d="M -0.5 0.5 L 0.5 0.5 M 0.5 0.5 L 0.5 0.5 M 0.5 0.5 L -0.5 0.5 M -0.5 0.5 L -0.5 0.5 " transform="translate(32.467862939243936 0.8896012135679428) rotate(2.0689243136225315) scale(2.0 21.793409085184226)" vector-effect="non-scaling-stroke" />
    <path d="M 0.5 0.5 L 0.5 -0.5 M 0.5 -0.5 L 0.5 -0.5 M 0.5 -0.5 L 0.5 0.5 M 0.5 0.5 L 0.5 0.5 " transform="translate(32.467862939243936 0.8896012135679428) rotate(2.0689243136225315) scale(2.0 21.793409085184226)" vector-effect="non-scaling-stroke" />
    <path d="M 0.5 -0.5 L -0.5 -0.5 M -0.5 -0.5 L -0.5 -0.5 M -0.5 -0.5 L 0.5 -0.5 M 0.5 -0.5 L 0.5 -0.5 " transform="translate(32.467862939243936 0.8896012135679428) rotate(2.0689243136225315) scale(2.0 21.793409085184226)" vector-effect="non-scaling-stroke" />
    <path d="M -0.5 0.5 L -0.5 0.5 M -0.5 0.5 L -0.5 -0.5 M -0.5 -0.5 L -0.5 -0.5 M -0.5 -0.5 L -0.5 0.5 " transform="translate(32.467862939243936 0.8896012135679428) rotate(2.0689243136225315) scale(2.0 21.793409085184226)" vector-effect="non-scaling-stroke" />
    <!-- Tie -->
    <path d="M -0.5 0.5 L 0.5 0.5 M 0.5 0.5 L 0.5 -0.5 M 0.5 -0.5 L -0.5 -0.5 M -0.5 -0.5 L -0.5 0.5 " transform="translate(37.45064048473607 1.1840113494521924) rotate(2.3871859653428027) scale(2.0 22.387451189924032)" vector-effect="non-scaling-stroke" />
    <path d="M 0.5 -0.5 L -0.5 -0.5 M -0.5 -0.5 L -0.5 0.5 M -0.5 0.5 L 0.5 0.5 M 0.5 0.5 L 0.5 -0.5 " transform="translate(37.45064048473607 1.1840113494521924) rotate(2.3871859653428027) scale(2.0 22.387451189924032)" vector-effect="non-scaling-stroke" />
    <path d="M -0.5 0.5 L 0.5 0.5 M 0.5 0.5 L 0.5 0.5 M 0.5 0.5 L -0.5 0.5 M -0.5 0.5 L -0.5 0.5 " transform="translate(37.45064048473607 1.1840113494521924) rotate(2.3871859653428027) scale(2.0 22.387451189924032)" vector-effect="non-scaling-stroke" />
    <path d="M 0.5 0.5 L 0.5 -0.5 M 0.5 -0.5 L 0.5 -0.5 M 0.5 -0.5 L 0.5 0.5 M 0.5 0.5 L 0.5 0.5 " transform="translate(37.45064048473607 1.1840113494521924) rotate(2.3871859653428027) scale(2.0 22.387451189924032)" vector-effect="non-scaling-stroke" />
    <path d="M 0.5 -0.5 L -0.5 -0.5 M -0.5 -0.5 L -0.5 -0.5 M -0.5 -0.5 L 0.5 -0.5 M 0.5 -0.5 L 0.5 -0.5 " transform="translate(37.45064048473607 1.1840113494521924) rotate(2.3871859653428027) scale(2.0 22.387451189924032)" vector-effect="non-scaling-stroke" />
    <path d="M -0.5 0.5 L -0.5 0.5 M -0.5 0.5 L -0.5 -0.5 M -0.5 -0.5 L -0.5 -0.5 M -0.5 -0.5 L -0.5 0.5 " transform="translate(37.45064048473607 1.1840113494521924) rotate(2.3871859653428027) scale(2.0 22.387451189924032)" vector-effect="non-scaling-stroke" />
    <!-- Tie -->
    <path d="M -0.5 0.5 L 0.5 0.5 M 0.5 0.5 L 0.5 -0.5 M 0.5 -0.5 L -0.5 -0.5 M -0.5 -0.5 L -0.5 0.5 " transform="translate(42.42816210283708 1.520255364250489) rotate(2.7054328712721554) scale(2.0 23.066220250690584)" vector-effect="non-scaling-stroke" />
    <path d="M 0.5 -0.5 L -0.5 -0.5 M -0.5 -0.5 L -0.5 0.5 M -0.5 0.5 L 0.5 0.5 M 0.5 0.5 L 0.5 -0.5 " transform="translate(42.42816210283708 1.520255364250489) rotate(2.7054328712721554) scale(2.0 23.066220250690584)" vector-effect="non-scaling-stroke" />
    <path d="M -0.5 0.5 L 0.5 0.5 M 0.5 0.5 L 0.5 0.5 M 0.5 0.5 L -0.5 0.5 M -0.5 0.5 L -0.5 0.5 " transform="translate(42.42816210283708 1.520255364250489) rotate(2.7054328712721554) scale(2.0 23.066220250690584)" vector-effect="non-scaling-stroke" />
    <path d="M 0.5 0.5 L 0.5 -0.5 M 0.5 -0.5 L 0.5 -0.5 M 0.5 -0.5 L 0.5 0.5 M 0.5 0.5 L 0.5 0.5 " transform="translate(42.42816210283708 1.520255364250489) rotate(2.7054328712721554) scale(2.0 23.066220250690584)" vector-effect="non-scaling-stroke" />
    <path d="M 0.5 -0.5 L -0.5 -0.5 M -0.5 -0.5 L -0.5 -0.5 M -0.5 -0.5 L 0.5 -0.5 M 0.5 -0.5 L 0.5 -0.5 " transform="translate(42.42816210283708 1.520255364250489) rotate(2.7054328712721554) scale(2.0 23.066220250690584)" vector-effect="non-scaling-stroke" />
    <path d="M -0.5 0.5 L -0.5 0.5 M -0.5 0.5 L -0.5 -0.5 M -0.5 -0.5 L -0.5 -0.5 M -0.5 -0.5 L -0.5 0.5 " transform="translate(42.42816210283708 1.520255364250489) rotate(2.7054328712721554) scale(2.0 23.066220250690584)" vector-effect="non-scaling-stroke" />
    <!-- Tie -->
    <path d="M -0.5 0.5 L 0.5 0.5 M 0.5 0.5 L 0.5 -0.5 M 0.5 -0.5 L -0.5 -0.5 M -0.5 -0.5 L -0.5 0.5 " transform="translate(47.39973113050785 1.8982435263138493) rotate(3.023663062357099) scale(2.0 23.829661875646803)" vector-effect="non-scaling-stroke" />
    <path d="M 0.5 -0.5 L -0.5 -0.5 M -0.5 -0.5 L -0.5 0.5 M -0.5 0.5 L 0.5 0.5 M 0.5 0.5 L 0.5 -0.5 " transform="translate(47.39973113050785 1.8982435263138493) rotate(3.023663062357099) scale(2.0 23.829661875646803)" vector-effect="non-scaling-stroke" />
    <path d="M -0.5 0.5 L 0.5 0.5 M 0.5 0.5 L 0.5 0.5 M 0.5 0.5 L -0.5 0.5 M -0.5 0.5 L -0.5 0.5 " transform="translate(47.39973113050785 1.8982435263138493) rotate(3.023663062357099) scale(2.0 23.829661875646803)" vector-effect="non-scaling-stroke" />
    <path d="M 0.5 0.5 L 0.5 -0.5 M 0.5 -0.5 L 0.5 -0.5 M 0.5 -0.5 L 0.5 0.5 M 0.5 0.5 L 0.5 0.5 " transform="translate(47.39973113050785 1.8982435263138493) rotate(3.023663062357099) scale(2.0 23.829661875646803)" vector-effect="non-scaling-stroke" />
    <path d="M 0.5 -0.5 L -0.5 -0.5 M -0.5 -0.5 L -0.5 -0.5 M -0.5 -0.5 L 0.5 -0.5 M 0.5 -0.5 L 0.5 -0.5 " transform="translate(47.39973113050785 1.8982435263138493) rotate(3.023663062357099) scale(2.0 23.829661875646803)" vector-effect="non-scaling-stroke" />
    <path d="M -0.5 0.5 L -0.5 0.5 M -0.5 0.5 L -0.5 -0.5 M -0.5 -0.5 L -0.5 -0.5 M -0.5 -0.5 L -0.5 0.5 " transform="translate(47.39973113050785 1.8982435263138493) rotate(3.023663062357099) scale(2.0 23.829661875646803)" vector-effect="non-scaling-stroke" />
    <!-- Tie -->
    <path d="M -0.5 0.5 L 0.5 0.5 M 0.5 0.5 L 0.5 -0.5 M 0.5 -0.5 L -0.5 -0.5 M -0.5 -0.5 L -0.5 0.5 " transform="translate(52.364652448617846 2.3178749832982257) rotate(3.341874568437144) scale(2.0 24.67771492984709)" vector-effect="non-scaling-stroke" />
    <path d="M 0.5 -0.5 L -0.5 -0.5 M -0.5 -0.5 L -0.5 0.5 M -0.5 0.5 L 0.5 0.5 M 0.5 0.5 L 0.5 -0.5 " transform="translate(52.364652448617846 2.3178749832982257) rotate(3.341874568437144) scale(2.0 24.67771492984709)" vector-effect="non-scaling-stroke" />
    <path d="M -0.5 0.5 L 0.5 0.5 M 0.5 0.5 L 0.5 0.5 M 0.5 0.5 L -0.5 0.5 M -0.5 0.5 L -0.5 0.5 " transform="translate(52.364652448617846 2.3178749832982257) rotate(3.341874568437144) scale(2.0 24.67771492984709)" vector-effect="non-scaling-stroke" />
    <path d="M 0.5 0.5 L 0.5 -0.5 M 0.5 -0.5 L 0.5 -0.5 M 0.5 -0.5 L 0.5 0.5 M 0.5 0.5 L 0.5 0.5 " transform="translate(52.364652448617846 2.3178749832982257) rotate(3.341874568437144) scale(2.0 24.67771492984709)" vector-effect="non-scaling-stroke" />
    <path d="M 0.5 -0.5 L -0.5 -0.5 M -0.5 -0.5 L -0.5 -0.5 M -0.5 -0.5 L 0.5 -0.5 M 0.5 -0.5 L 0.5 -0.5 " transform="translate(52.364652448617846 2.3178749832982257) rotate(3.341874568437144) scale(2.0 24.67771492984709)" vector-effect="non-scaling-stroke" />
    <path d="M -0.5 0.5 L -0.5 0.5 M -0.5 0.5 L -0.5 -0.5 M -0.5 -0.5 L -0.5 -0.5 M -0.5 -0.5 L -0.5 0.5 " transform="translate(52.364652448617846 2.3178749832982257) rotate(3.341874568437144) scale(2.0 24.67771492984709)" vector-effect="non-scaling-stroke" />
    <!-- Tie -->
    <path d="M -0.5 0.5 L 0.5 0.5 M 0.5 0.5 L 0.5 -0.5 M 0.5 -0.5 L -0.5 -0.5 M -0.5 -0.5 L -0.5 0.5 " transform="translate(57.32223266132567 2.7790377960125747) rotate(3.6600654181171217) scale(2.0 25.610311555222783)" vector-effect="non-scaling-stroke" />
    <path d="M 0.5 -0.5 L -0.5 -0.5 M -0.5 -0.5 L -0.5 0.5 M -0.5 0.5 L 0.5 0.5 M 0.5 0.5 L 0.5 -0.5 " transform="translate(57.32223266132567 2.7790377960125747) rotate(3.6600654181171217) scale(2.0 25.610311555222783)" vector-effect="non-scaling-stroke" />
    <path d="M -0.5 0.5 L 0.5 0.5 M 0.5 0.5 L 0.5 0.5 M 0.5 0.5 L -0.5 0.5 M -0.5 0.5 L -0.5 0.5 " transform="translate(57.32223266132567 2.7790377960125747) rotate(3.6600654181171217) scale(2.0 25.610311555222783)" vector-effect="non-scaling-stroke" />
    <path d="M 0.5 0.5 L 0.5 -0.5 M 0.5 -0.5 L 0.5 -0.5 M 0.5 -0.5 L 0.5 0.5 M 0.5 0.5 L 0.5 0.5 " transform="translate(57.32223266132567 2.7790377960125747) rotate(3.6600654181171217) scale(2.0 25.610311555222783)" vector-effect="non-scaling-stroke" />
    <path d="M 0.5 -0.5 L -0.5 -0.5 M -0.5 -0.5 L -0.5 -0.5 M -0.5 -0.5 L 0.5 -0.5 M 0.5 -0.5 L 0.5 -0.5 " transform="translate(57.32223266132567 2.7790377960125747) rotate(3.6600654181171217) scale(2.0 25.610311555222783)" vector-effect="non-scaling-stroke" />
    <path d="M -0.5 0.5 L -0.5 0.5 M -0.5 0.5 L -0.5 -0.5 M -0.5 -0.5 L -0.5 -0.5 M -0.5 -0.5 L -0.5 0.5 " transform="translate(57.32223266132567 2.7790377960125747) rotate(3.6600654181171217) scale(2.0 25.610311555222783)" vector-effect="non-scaling-stroke" />
    <!-- Tie -->
    <path d="M -0.5 0.5 L 0.5 0.5 M 0.5 0.5 L 0.5 -0.5 M 0.5 -0.5 L -0.5 -0.5 M -0.5 -0.5 L -0.5 0.5 " transform="translate(62.27178027470186 3.281608976056959) rotate(3.9782336386317594) scale(2.0 26.627377192939125)" vector-effect="non-scaling-stroke" />
    <path d="M 0.5 -0.5 L -0.5 -0.5 M -0.5 -0.5 L -0.5 0.5 M -0.5 0.5 L 0.5 0.5 M 0.5 0.5 L 0.5 -0.5 " transform="translate(62.27178027470186 3.281608976056959) rotate(3.9782336386317594) scale(2.0 26.627377192939125)" vector-effect="non-scaling-stroke" />
    <path d="M -0.5 0.5 L 0.5 0.5 M 0.5 0.5 L 0.5 0.5 M 0.5 0.5 L -0.5 0.5 M -0.5 0.5 L -0.5 0.5 " transform="translate(62.27178027470186 3.281608976056959) rotate(3.9782336386317594) scale(2.0 26.627377192939125)" vector-effect="non-scaling-stroke" />
    <path d="M 0.5 0.5 L 0.5 -0.5 M 0.5 -0.5 L 0.5 -0.5 M 0.5 -0.5 L 0.5 0.5 M 0.5 0.5 L 0.5 0.5 " transform="translate(62.27178027470186 3.281608976056959) rotate(3.9782336386317594) scale(2.0 26.627377192939125)" vector-effect="non-scaling-stroke" />
    <path d="M 0.5 -0.5 L -0.5 -0.5 M -0.5 -0.5 L -0.5 -0.5 M -0.5 -0.5 L 0.5 -0.5 M 0.5 -0.5 L 0.5 -0.5 " transform="translate(62.27178027470186 3.281608976056959) rotate(3.9782336386317594) scale(2.0 26.627377192939125)" vector-effect="non-scaling-stroke" />
    <path d="M -0.5 0.5 L -0.5 0.5 M -0.5 0.5 L -0.5 -0.5 M -0.5 -0.5 L -0.5 -0.5 M -0.5 -0.5 L -0.5 0.5 " transform="translate(62.27178027470186 3.281608976056959) rotate(3.9782336386317594) scale(2.0 26.627377192939125)" vector-effect="non-scaling-stroke" />
    <!-- Tie -->
    <path d="M -0.5 0.5 L 0.5 0.5 M 0.5 0.5 L 0.5 -0.5 M 0.5 -0.5 L -0.5 -0.5 M -0.5 -0.5 L -0.5 0.5 " transform="translate(67.21260587451039 3.8254545272607468) rotate(4.296377255716914) scale(2.0 27.728830608173986)" vector-effect="non-scaling-stroke" />
    <path d="M 0.5 -0.5 L -0.5 -0.5 M -0.5 -0.5 L -0.5 0.5 M -0.5 0.5 L 0.5 0.5 M 0.5 0.5 L 0.5 -0.5 " transform="translate(67.21260587451039 3.8254545272607468) rotate(4.296377255716914) scale(2.0 27.728830608173986)" vector-effect="non-scaling-stroke" />
    <path d="M -0.5 0.5 L 0.5 0.5 M 0.5 0.5 L 0.5 0.5 M 0.5 0.5 L -0.5 0.5 M -0.5 0.5 L -0.5 0.5 " transform="translate(67.21260587451039 3.8254545272607468) rotate(4.296377255716914) scale(2.0 27.728830608173986)" vector-effect="non-scaling-stroke" />
    <path d="M 0.5 0.5 L 0.5 -0.5 M 0.5 -0.5 L 0.5 -0.5 M 0.5 -0.5 L 0.5 0.5 M 0.5 0.5 L 0.5 0.5 " transform="translate(67.21260587451039 3.8254545272607468) rotate(4.296377255716914) scale(2.0 27.728830608173986)" vector-effect="non-scaling-stroke" />
    <path d="M 0.5 -0.5 L -0.5 -0.5 M -0.5 -0.5 L -0.5 -0.5 M -0.5 -0.5 L 0.5 -0.5 M 0.5 -0.5 L 0.5 -0.5 " transform="translate(67.21260587451039 3.8254545272607468) rotate(4.296377255716914) scale(2.0 27.728830608173986)" vector-effect="non-scaling-stroke" />
    <path d="M -0.5 0.5 L -0.5 0.5 M -0.5 0.5 L -0.5 -0.5 M -0.5 -0.5 L -0.5 -0.5 M -0.5 -0.5 L -0.5 0.5 " transform="translate(67.21260587451039 3.8254545272607468) rotate(4.296377255716914) scale(2.0 27.728830608173986)" vector-effect="non-scaling-stroke" />
    <!-- Tie -->
    <path d="M -0.5 0.5 L 0.5 0.5 M 0.5 0.5 L 0.5 -0.5 M 0.5 -0.5 L -0.5 -0.5 M -0.5 -0.5 L -0.5 0.5 " transform="translate(72.14402230306482 4.410429490930967) rotate(4.614494293480584) scale(2.0 28.914583917371303)" vector-effect="non-scaling-stroke" />
    <path d="M 0.5 -0.5 L -0.5 -0.5 M -0.5 -0.5 L -0.5 0.5 M -0.5 0.5 L 0.5 0.5 M 0.5 0.5 L 0.5 -0.5 " transform="translate(72.14402230306482 4.410429490930967) rotate(4.614494293480584) scale(2.0 28.914583917371303)" vector-effect="non-scaling-stroke" />
    <path d="M -0.5 0.5 L 0.5 0.5 M 0.5 0.5 L 0.5 0.5 M 0.5 0.5 L -0.5 0.5 M -0.5 0.5 L -0.5 0.5 " transform="translate(72.14402230306482 4.410429490930967) rotate(4.614494293480584) scale(2.0 28.914583917371303)" vector-effect="non-scaling-stroke" />
    <path d="M 0.5 0.5 L 0.5 -0.5 M 0.5 -0.5 L 0.5 -0.5 M 0.5 -0.5 L 0.5 0.5 M 0.5 0.5 L 0.5 0.5 " transform="translate(72.14402230306482 4.410429490930967) rotate(4.614494293480584) scale(2.0 28.914583917371303)" vector-effect="non-scaling-stroke" />
    <path d="M 0.5 -0.5 L -0.5 -0.5 M -0.5 -0.5 L -0.5 -0.5 M -0.5 -0.5 L 0.5 -0.5 M 0.5 -0.5 L 0.5 -0.5 " transform="translate(72.14402230306482 4.410429490930967) rotate(4.614494293480584) scale(2.0 28.914583917371303)" vector-effect="non-scaling-stroke" />
    <path d="M -0.5 0.5 L -0.5 0.5 M -0.5 0.5 L -0.5 -0.5 M -0.5 -0.5 L -0.5 -0.5 M -0.5 -0.5 L -0.5 0.5 " transform="translate(72.14402230306482 4.410429490930967) rotate(4.614494293480584) scale(2.0 28.914583917371303)" vector-effect="non-scaling-stroke" />
    <!-- Tie -->
    <path d="M -0.5 0.5 L 0.5 0.5 M 0.5 0.5 L 0.5 -0.5 M 0.5 -0.5 L -0.5 -0.5 M -0.5 -0.5 L -0.5 0.5 " transform="translate(77.06538555309552 5.03590619253159) rotate(4.932582774267417) scale(2.0 30.183595505673377)" vector-effect="non-scaling-stroke" />
    <path d="M 0.5 -0.5 L -0.5 -0.5 M -0.5 -0.5 L -0.5 0.5 M -0.5 0.5 L 0.5 0.5 M 0.5 0.5 L 0.5 -0.5 " transform="translate(77.06538555309552 5.03590619253159) rotate(4.932582774267417) scale(2.0 30.183595505673377)" vector-effect="non-scaling-stroke" />
    <path d="M -0.5 0.5 L 0.5 0.5 M 0.5 0.5 L 0.5 0.5 M 0.5 0.5 L -0.5 0.5 M -0.5 0.5 L -0.5 0.5 " transform="translate(77.06538555309552 5.03590619253159) rotate(4.932582774267417) scale(2.0 30.183595505673377)" vector-effect="non-scaling-stroke" />
    <path d="M 0.5 0.5 L 0.5 -0.5 M 0.5 -0.5 L 0.5 -0.5 M 0.5 -0.5 L 0.5 0.5 M 0.5 0.5 L 0.5 0.5 " transform="translate(77.06538555309552 5.03590619253159) rotate(4.932582774267417) scale(2.0 30.183595505673377)" vector-effect="non-scaling-stroke" />
    <path d="M 0.5 -0.5 L -0.5 -0.5 M -0.5 -0.5 L -0.5 -0.5 M -0.5 -0.5 L 0.5 -0.5 M 0.5 -0.5 L 0.5 -0.5 " transform="translate(77.06538555309552 5.03590619253159) rotate(4.932582774267417) scale(2.0 30.183595505673377)" vector-effect="non-scaling-stroke" />
    <path d="M -0.5 0.5 L -0.5 0.5 M -0.5 0.5 L -0.5 -0.5 M -0.5 -0.5 L -0.5 -0.5 M -0.5 -0.5 L -0.5 0.5 " transform="translate(77.06538555309552 5.03590619253159) rotate(4.932582774267417) scale(2.0 30.183595505673377)" vector-effect="non-scaling-stroke" />
    <!-- Tie -->
    <path d="M -0.5 0.5 L 0.5 0.5 M 0.5 0.5 L 0.5 -0.5 M 0.5 -0.5 L -0.5 -0.5 M -0.5 -0.5 L -0.5 0.5 " transform="translate(81.98067375361961 5.676127529432644) rotate(5.22761156462353) scale(2.0 31.48320611803154)" vector-effect="non-scaling-stroke" />
    <path d="M 0.5 -0.5 L -0.5 -0.5 M -0.5 -0.5 L -0.5 0.5 M -0.5 0.5 L 0.5 0.5 M 0.5 0.5 L 0.5 -0.5 " transform="translate(81.98067375361961 5.676127529432644) rotate(5.22761156462353) scale(2.0 31.48320611803154)" vector-effect="non-scaling-stroke" />
    <path d="M -0.5 0.5 L 0.5 0.5 M 0.5 0.5 L 0.5 0.5 M 0.5 0.5 L -0.5 0.5 M -0.5 0.5 L -0.5 0.5 " transform="translate(81.98067375361961 5.676127529432644) rotate(5.22761156462353) scale(2.0 31.48320611803154)" vector-effect="non-scaling-stroke" />
    <path d="M 0.5 0.5 L 0.5 -0.5 M 0.5 -0.5 L 0.5 -0.5 M 0.5 -0.5 L 0.5 0.5 M 0.5 0.5 L 0.5 0.5 " transform="translate(81.98067375361961 5.676127529432644) rotate(5.22761156462353) scale(2.0 31.48320611803154)" vector-effect="non-scaling-stroke" />
    <path d="M 0.5 -0.5 L -0.5 -0.5 M -0.5 -0.5 L -0.5 -0.5 M -0.5 -0.5 L 0.5 -0.5 M 0.5 -0.5 L 0.5 -0.5 " transform="translate(81.98067375361961 5.676127529432644) rotate(5.22761156462353) scale(2.0 31.48320611803154)" vector-effect="non-scaling-stroke" />
    <path d="M -0.5 0.5 L -0.5 0.5 M -0.5 0.5 L -0.5 -0.5 M -0.5 -0.5 L -0.5 -0.5 M -0.5 -0.5 L -0.5 0.5 " transform="translate(81.98067375361961 5.676127529432644) rotate(5.22761156462353) scale(2.0 31.48320611803154)" vector-effect="non-scaling-stroke" />
    <!-- Tie -->
    <path d="M -0.5 0.5 L 0.5 0.5 M 0.5 0.5 L 0.5 -0.5 M 0.5 -0.5 L -0.5 -0.5 M -0.5 -0.5 L -0.5 0.5 " transform="translate(86.89579382527705 6.317705210327477) rotate(5.462979509458185) scale(2.0 32.784319443765774)" vector-effect="non-scaling-stroke" />
    <path d="M 0.5 -0.5 L -0.5 -0.5 M -0.5 -0.5 L -0.5 0.5 M -0.5 0.5 L 0.5 0.5 M 0.5 0.5 L 0.5 -0.5 " transform="translate(86.89579382527705 6.317705210327477) rotate(5.462979509458185) scale(2.0 32.784319443765774)" vector-effect="non-scaling-stroke" />
    <path d="M -0.5 0.5 L 0.5 0.5 M 0.5 0.5 L 0.5 0.5 M 0.5 0.5 L -0.5 0.5 M -0.5 0.5 L -0.5 0.5 " transform="translate(86.89579382527705 6.317705210327477) rotate(5.462979509458185) scale(2.0 32.784319443765774)" vector-effect="non-scaling-stroke" />
    <path d="M 0.5 0.5 L 0.5 -0.5 M 0.5 -0.5 L 0.5 -0.5 M 0.5 -0.5 L 0.5 0.5 M 0.5 0.5 L 0.5 0.5 " transform="translate(86.89579382527705 6.317705210327477) rotate(5.462979509458185) scale(2.0 32.784319443765774)" vector-effect="non-scaling-stroke" />
    <path d="M 0.5 -0.5 L -0.5 -0.5 M -0.5 -0.5 L -0.5 -0.5 M -0.5 -0.5 L 0.5 -0.5 M 0.5 -0.5 L 0.5 -0.5 " transform="translate(86.89579382527705 6.317705210327477) rotate(5.462979509458185) scale(2.0 32.784319443765774)" vector-effect="non-scaling-stroke" />
    <path d="M -0.5 0.5 L -0.5 0.5 M -0.5 0.5 L -0.5 -0.5 M -0.5 -0.5 L -0.5 -0.5 M -0.5 -0.5 L -0.5 0.5 " transform="translate(86.89579382527705 6.317705210327477) rotate(5.462979509458185) scale(2.0 32.784319443765774)" vector-effect="non-scaling-stroke" />
    <!-- Tie -->
    <path d="M -0.5 0.5 L 0.5 0.5 M 0.5 0.5 L 0.5 -0.5 M 0.5 -0.5 L -0.5 -0.5 M -0.5 -0.5 L -0.5 0.5 " transform="translate(91.81088928881624 6.960314871070488) rotate(5.654181360941213) scale(2.0 34.08647145584322)" vector-effect="non-scaling-stroke" />
    <path d="M 0.5 -0.5 L -0.5 -0.5 M -0.5 -0.5 L -0.5 0.5 M -0.5 0.5 L 0.5 0.5 M 0.5 0.5 L 0.5 -0.5 " transform="translate(91.81088928881624 6.960314871070488) rotate(5.654181360941213) scale(2.0 34.08647145584322)" vector-effect="non-scaling-stroke" />
    <path d="M -0.5 0.5 L 0.5 0.5 M 0.5 0.5 L 0.5 0.5 M 0.5 0.5 L -0.5 0.5 M -0.5 0.5 L -0.5 0.5 " transform="translate(91.81088928881624 6.960314871070488) rotate(5.654181360941213) scale(2.0 34.08647145584322)" vector-effect="non-scaling-stroke" />
    <path d="M 0.5 0.5 L 0.5 -0.5 M 0.5 -0.5 L 0.5 -0.5 M 0.5 -0.5 L 0.5 0.5 M 0.5 0.5 L 0.5 0.5 " transform="translate(91.81088928881624 6.960314871070488) rotate(5.654181360941213) scale(2.0 34.08647145584322)" vector-effect="non-scaling-stroke" />
    <path d="M 0.5 -0.5 L -0.5 -0.5 M -0.5 -0.5 L -0.5 -0.5 M -0.5 -0.5 L 0.5 -0.5 M 0.5 -0.5 L 0.5 -0.5 " transform="translate(91.81088928881624 6.960314871070488) rotate(5.654181360941213) scale(2.0 34.08647145584322)" vector-effect="non-scaling-stroke" />
    <path d="M -0.5 0.5 L -0.5 0.5 M -0.5 0.5 L -0.5 -0.5 M -0.5 -0.5 L -0.5 -0.5 M -0.5 -0.5 L -0.5 0.5 " transform="translate(91.81088928881624 6.960314871070488) rotate(5.654181360941213) scale(2.0 34.08647145584322)" vector-effect="non-scaling-stroke" />
    <!-- Tie -->
    <path d="M -0.5 0.5 L 0.5 0.5 M 0.5 0.5 L 0.5 -0.5 M 0.5 -0.5 L -0.5 -0.5 M -0.5 -0.5 L -0.5 0.5 " transform="translate(96.72595876295313 7.603689639880224) rotate(5.812578966524601) scale(2.0 35.389333591145004)" vector-effect="non-scaling-stroke" />
    <path d="M 0.5 -0.5 L -0.5 -0.5 M -0.5 -0.5 L -0.5 0.5 M -0.5 0.5 L 0.5 0.5 M 0.5 0.5 L 0.5 -0.5 " transform="translate(96.72595876295313 7.603689639880224) rotate(5.812578966524601) scale(2.0 35.389333591145004)" vector-effect="non-scaling-stroke" />
    <path d="M -0.5 0.5 L 0.5 0.5 M 0.5 0.5 L 0.5 0.5 M 0.5 0.5 L -0.5 0.5 M -0.5 0.5 L -0.5 0.5 " transform="translate(96.72595876295313 7.603689639880224) rotate(5.812578966524601) scale(2.0 35.389333591145004)" vector-effect="non-scaling-stroke" />
    <path d="M 0.5 0.5 L 0.5 -0.5 M 0.5 -0.5 L 0.5 -0.5 M 0.5 -0.5 L 0.5 0.5 M 0.5 0.5 L 0.5 0.5 " transform="translate(96.72595876295313 7.603689639880224) rotate(5.812578966524601) scale(2.0 35.389333591145004)" vector-effect="non-scaling-stroke" />
    <path d="M 0.5 -0.5 L -0.5 -0.5 M -0.5 -0.5 L -0.5 -0.5 M -0.5 -0.5 L 0.5 -0.5 M 0.5 -0.5 L 0.5 -0.5 " transform="translate(96.72595876295313 7.603689639880224) rotate(5.812578966524601) scale(2.0 35.389333591145004)" vector-effect="non-scaling-stroke" />
    <path d="M -0.5 0.5 L -0.5 0.5 M -0.5 0.5 L -0.5 -0.5 M -0.5 -0.5 L -0.5 -0.5 M -0.5 -0.5 L -0.5 0.5 " transform="translate(96.72595876295313 7.603689639880224) rotate(5.812578966524601) scale(2.0 35.389333591145004)" vector-effect="non-scaling-stroke" />
    <!-- Tie -->
    <path d="M -0.5 0.5 L 0.5 0.5 M 0.5 0.5 L 0.5 -0.5 M 0.5 -0.5 L -0.5 -0.5 M -0.5 -0.5 L -0.5 0.5 " transform="translate(101.64100355221488 8.247647360459778) rotate(5.9459456921466955) scale(2.0 36.69269896095142)" vector-effect="non-scaling-stroke" />
    <path d="M 0.5 -0.5 L -0.5 -0.5 M -0.5 -0.5 L -0.5 0.5 M -0.5 0.5 L 0.5 0.5 M 0.5 0.5 L 0.5 -0.5 " transform="translate(101.64100355221488 8.247647360459778) rotate(5.9459456921466955) scale(2.0 36.69269896095142)" vector-effect="non-scaling-stroke" />
    <path d="M -0.5 0.5 L 0.5 0.5 M 0.5 0.5 L 0.5 0.5 M 0.5 0.5 L -0.5 0.5 M -0.5 0.5 L -0.5 0.5 " transform="translate(101.64100355221488 8.247647360459778) rotate(5.9459456921466955) scale(2.0 36.69269896095142)" vector-effect="non-scaling-stroke" />
    <path d="M 0.5 0.5 L 0.5 -0.5 M 0.5 -0.5 L 0.5 -0.5 M 0.5 -0.5 L 0.5 0.5 M 0.5 0.5 L 0.5 0.5 " transform="translate(101.64100355221488 8.247647360459778) rotate(5.9459456921466955) scale(2.0 36.69269896095142)" vector-effect="non-scaling-stroke" />
    <path d="M 0.5 -0.5 L -0.5 -0.5 M -0.5 -0.5 L -0.5 -0.5 M -0.5 -0.5 L 0.5 -0.5 M 0.5 -0.5 L 0.5 -0.5 " transform="translate(101.64100355221488 8.247647360459778) rotate(5.9459456921466955) scale(2.0 36.69269896095142)" vector-effect="non-scaling-stroke" />
    <path d="M -0.5 0.5 L -0.5 0.5 M -0.5 0.5 L -0.5 -0.5 M -0.5 -0.5 L -0.5 -0.5 M -0.5 -0.5 L -0.5 0.5 " transform="translate(101.64100355221488 8.247647360459778) rotate(5.9459456921466955) scale(2.0 36.69269896095142)" vector-effect="non-scaling-stroke" />
    <!-- Tie -->
    <path d="M -0.5 0.5 L 0.5 0.5 M 0.5 0.5 L 0.5 -0.5 M 0.5 -0.5 L -0.5 -0.5 M -0.5 -0.5 L -0.5 0.5 " transform="translate(106.55602589919032 8.892059448544876) rotate(6.059779183412229) scale(2.0 37.99643174927725)" vector-effect="non-scaling-stroke" />
    <path d="M 0.5 -0.5 L -0.5 -0.5 M -0.5 -0.5 L -0.5 0.5 M -0.5 0.5 L 0.5 0.5 M 0.5 0.5 L 0.5 -0.5 " transform="translate(106.55602589919032 8.892059448544876) rotate(6.059779183412229) scale(2.0 37.99643174927725)" vector-effect="non-scaling-stroke" />
    <path d="M -0.5 0.5 L 0.5 0.5 M 0.5 0.5 L 0.5 0.5 M 0.5 0.5 L -0.5 0.5 M -0.5 0.5 L -0.5 0.5 " transform="translate(106.55602589919032 8.892059448544876) rotate(6.059779183412229) scale(2.0 37.99643174927725)" vector-effect="non-scaling-stroke" />
    <path d="M 0.5 0.5 L 0.5 -0.5 M 0.5 -0.5 L 0.5 -0.5 M 0.5 -0.5 L 0.5 0.5 M 0.5 0.5 L 0.5 0.5 " transform="translate(106.55602589919032 8.892059448544876) rotate(6.059779183412229) scale(2.0 37.99643174927725)" vector-effect="non-scaling-stroke" />
    <path d="M 0.5 -0.5 L -0.5 -0.5 M -0.5 -0.5 L -0.5 -0.5 M -0.5 -0.5 L 0.5 -0.5 M 0.5 -0.5 L 0.5 -0.5 " transform="translate(106.55602589919032 8.892059448544876) rotate(6.059779183412229) scale(2.0 37.99643174927725)" vector-effect="non-scaling-stroke" />
    <path d="M -0.5 0.5 L -0.5 0.5 M -0.5 0.5 L -0.5 -0.5 M -0.5 -0.5 L -0.5 -0.5 M -0.5 -0.5 L -0.5 0.5 " transform="translate(106.55602589919032 8.892059448544876) rotate(6.059779183412229) scale(2.0 37.99643174927725)" vector-effect="non-scaling-stroke" />
    <!-- Tie -->
    <path d="M -0.5 0.5 L 0.5 0.5 M 0.5 0.5 L 0.5 -0.5 M 0.5 -0.5 L -0.5 -0.5 M -0.5 -0.5 L -0.5 0.5 " transform="translate(111.47102824426835 9.536832546385572) rotate(6.158077224129837) scale(2.0 39.30043963575813)" vector-effect="non-scaling-stroke" />
    <path d="M 0.5 -0.5 L -0.5 -0.5 M -0.5 -0.5 L -0.5 0.5 M -0.5 0.5 L 0.5 0.5 M 0.5 0.5 L 0.5 -0.5 " transform="translate(111.47102824426835 9.536832546385572) rotate(6.158077224129837) scale(2.0 39.30043963575813)" vector-effect="non-scaling-stroke" />
    <path d="M -0.5 0.5 L 0.5 0.5 M 0.5 0.5 L 0.5 0.5 M 0.5 0.5 L -0.5 0.5 M -0.5 0.5 L -0.5 0.5 " transform="translate(111.47102824426835 9.536832546385572) rotate(6.158077224129837) scale(2.0 39.30043963575813)" vector-effect="non-scaling-stroke" />
    <path d="M 0.5 0.5 L 0.5 -0.5 M 0.5 -0.5 L 0.5 -0.5 M 0.5 -0.5 L 0.5 0.5 M 0.5 0.5 L 0.5 0.5 " transform="translate(111.47102824426835 9.536832546385572) rotate(6.158077224129837) scale(2.0 39.30043963575813)" vector-effect="non-scaling-stroke" />
    <path d="M 0.5 -0.5 L -0.5 -0.5 M -0.5 -0.5 L -0.5 -0.5 M -0.5 -0.5 L 0.5 -0.5 M 0.5 -0.5 L 0.5 -0.5 " transform="translate(111.47102824426835 9.536832546385572) rotate(6.158077224129837) scale(2.0 39.30043963575813)" vector-effect="non-scaling-stroke" />
    <path d="M -0.5 0.5 L -0.5 0.5 M -0.5 0.5 L -0.5 -0.5 M -0.5 -0.5 L -0.5 -0.5 M -0.5 -0.5 L -0.5 0.5 " transform="translate(111.47102824426835 9.536832546385572) rotate(6.158077224129837) scale(2.0 39.30043963575813)" vector-effect="non-scaling-stroke" />
    <!-- Tie -->
    <path d="M -0.5 0.5 L 0.5 0.5 M 0.5 0.5 L 0.5 -0.5 M 0.5 -0.5 L -0.5 -0.5 M -0.5 -0.5 L -0.5 0.5 " transform="translate(115.83200536638756 20.454238172576105) rotate(15.000000000000007) scale(2.0 20.0)" vector-effect="non-scaling-stroke" />
    <path d="M 0.5 -0.5 L -0.5 -0.5 M -0.5 -0.5 L -0.5 0.5 M -0.5 0.5 L 0.5 0.5 M 0.5 0.5 L 0.5 -0.5 " transform="translate(115.83200536638756 20.454238172576105) rotate(15.000000000000007) scale(2.0 20.0)" vector-effect="non-scaling-stroke" />
    <path d="M -0.5 0.5 L 0.5 0.5 M 0.5 0.5 L 0.5 0.5 M 0.5 0.5 L -0.5 0.5 M -0.5 0.5 L -0.5 0.5 " transform="translate(115.83200536638756 20.454238172576105) rotate(15.000000000000007) scale(2.0 20.0)" vector-effect="non-scaling-stroke" />
    <path d="M 0.5 0.5 L 0.5 -0.5 M 0.5 -0.5 L 0.5 -0.5 M 0.5 -0.5 L 0.5 0.5 M 0.5 0.5 L 0.5 0.5 " transform="translate(115.83200536638756 20.454238172576105) rotate(15.000000000000007) scale(2.0 20.0)" vector-effect="non-scaling-stroke" />
    <path d="M 0.5 -0.5 L -0.5 -0.5 M -0.5 -0.5 L -0.5 -0.5 M -0.5 -0.5 L 0.5 -0.5 M 0.5 -0.5 L 0.5 -0.5 " transform="translate(115.83200536638756 20.454238172576105) rotate(15.000000000000007) scale(2.0 20.0)" vector-effect="non-scaling-stroke" />
    <path d="M -0.5 0.5 L -0.5 0.5 M -0.5 0.5 L -0.5 -0.5 M -0.5 -0.5 L -0.5 -0.5 M -0.5 -0.5 L -0.5 0.5 " transform="translate(115.83200536638756 20.454238172576105) rotate(15.000000000000007) scale(2.0 20.0)" vector-effect="non-scaling-stroke" />
    <!-- Tie -->
    <path d="M -0.5 0.5 L 0.5 0.5 M 0.5 0.5 L 0.5 -0.5 M 0.5 -0.5 L -0.5 -0.5 M -0.5 -0.5 L -0.5 0.5 " transform="translate(120.66163449783289 21.748333398088704) rotate(15.000000000000007) scale(2.0 20.0)" vector-effect="non-scaling-stroke" />
    <path d="M 0.5 -0.5 L -0.5 -0.5 M -0.5 -0.5 L -0.5 0.5 M -0.5 0.5 L 0.5 0.5 M 0.5 0.5 L 0.5 -0.5 " transform="translate(120.66163449783289 21.748333398088704) rotate(15.000000000000007) scale(2.0 20.0)" vector-effect="non-scaling-stroke" />
    <path d="M -0.5 0.5 L 0.5 0.5 M 0.5 0.5 L 0.5 0.5 M 0.5 0.5 L -0.5 0.5 M -0.5 0.5 L -0.5 0.5 " transform="translate(120.66163449783289 21.748333398088704) rotate(15.000000000000007) scale(2.0 20.0)" vector-effect="non-scaling-stroke" />
    <path d="M 0.5 0.5 L 0.5 -0.5 M 0.5 -0.5 L 0.5 -0.5 M 0.5 -0.5 L 0.5 0.5 M 0.5 0.5 L 0.5 0.5 " transform="translate(120.66163449783289 21.748333398088704) rotate(15.000000000000007) scale(2.0 20.0)" vector-effect="non-scaling-stroke" />
    <path d="M 0.5 -0.5 L -0.5 -0.5 M -0.5 -0.5 L -0.5 -0.5 M -0.5 -0.5 L 0.5 -0.5 M 0.5 -0.5 L 0.5 -0.5 " transform="translate(120.66163449783289 21.748333398088704) rotate(15.000000000000007) scale(2.0 20.0)" vector-effect="non-scaling-stroke" />
    <path d="M -0.5 0.5 L -0.5 0.5 M -0.5 0.5 L -0.5 -0.5 M -0.5 -0.5 L -0.5 -0.5 M -0.5 -0.5 L -0.5 0.5 " transform="translate(120.66163449783289 21.748333398088704) rotate(15.000000000000007) scale(2.0 20.0)" vector-effect="non-scaling-stroke" />
    <!-- Tie -->
    <path d="M -0.5 0.5 L 0.5 0.5 M 0.5 0.5 L 0.5 -0.5 M 0.5 -0.5 L -0.5 -0.5 M -0.5 -0.5 L -0.5 0.5 " transform="translate(125.49126362927825 23.04242862360131) rotate(15.000000000000007) scale(2.0 20.0)" vector-effect="non-scaling-stroke" />
    <path d="M 0.5 -0.5 L -0.5 -0.5 M -0.5 -0.5 L -0.5 0.5 M -0.5 0.5 L 0.5 0.5 M 0.5 0.5 L 0.5 -0.5 " transform="translate(125.49126362927825 23.04242862360131) rotate(15.000000000000007) scale(2.0 20.0)" vector-effect="non-scaling-stroke" />
    <path d="M -0.5 0.5 L 0.5 0.5 M 0.5 0.5 L 0.5 0.5 M 0.5 0.5 L -0.5 0.5 M -0.5 0.5 L -0.5 0.5 " transform="translate(125.49126362927825 23.04242862360131) rotate(15.000000000000007) scale(2.0 20.0)" vector-effect="non-scaling-stroke" />
    <path d="M 0.5 0.5 L 0.5 -0.5 M 0.5 -0.5 L 0.5 -0.5 M 0.5 -0.5 L 0.5 0.5 M 0.5 0.5 L 0.5 0.5 " transform="translate(125.49126362927825 23.04242862360131) rotate(15.000000000000007) scale(2.0 20.0)" vector-effect="non-scaling-stroke" />
    <path d="M 0.5 -0.5 L -0.5 -0.5 M -0.5 -0.5 L -0.5 -0.5 M -0.5 -0.5 L 0.5 -0.5 M 0.5 -0.5 L 0.5 -0.5 " transform="translate(125.49126362927825 23.04242862360131) rotate(15.000000000000007) scale(2.0 20.0)" vector-effect="non-scaling-stroke" />
    <path d="M -0.5 0.5 L -0.5 0.5 M -0.5 0.5 L -0.5 -0.5 M -0.5 -0.5 L -0.5 -0.5 M -0.5 -0.5 L -0.5 0.5 " transform="translate(125.49126362927825 23.04242862360131) rotate(15.000000000000007) scale(2.0 20.0)" vector-effect="non-scaling-stroke" />
    <!-- Tie -->
    <path d="M -0.5 0.5 L 0.5 0.5 M 0.5 0.5 L 0.5 -0.5 M 0.5 -0.5 L -0.5 -0.5 M -0.5 -0.5 L -0.5 0.5 " transform="translate(118.07317469536196 0.0) rotate(1.2722218725854067E-14) scale(2.0 20.0)" vector-effect="non-scaling-stroke" />
    <path d="M 0.5 -0.5 L -0.5 -0.5 M -0.5 -0.5 L -0.5 0.5 M -0.5 0.5 L 0.5 0.5 M 0.5 0.5 L 0.5 -0.5 " transform="translate(118.07317469536196 0.0) rotate(1.2722218725854067E-14) scale(2.0 20.0)" vector-effect="non-scaling-stroke" />
    <path d="M -0.5 0.5 L 0.5 0.5 M 0.5 0.5 L 0.5 0.5 M 0.5 0.5 L -0.5 0.5 M -0.5 0.5 L -0.5 0.5 " transform="translate(118.07317469536196 0.0) rotate(1.2722218725854067E-14) scale(2.0 20.0)" vector-effect="non-scaling-stroke" />
    <path d="M 0.5 0.5 L 0.5 -0.5 M 0.5 -0.5 L 0.5 -0.5 M 0.5 -0.5 L 0.5 0.5 M 0.5 0.5 L 0.5 0.5 " transform="translate(118.07317469536196 0.0) rotate(1.2722218725854067E-14) scale(2.0 20.0)" vector-effect="non-scaling-stroke" />
    <path d="M 0.5 -0.5 L -0.5 -0.5 M -0.5 -0.5 L -0.5 -0.5 M -0.5 -0.5 L 0.5 -0.5 M 0.5 -0.5 L 0.5 -0.5 " transform="translate(118.07317469536196 0.0) rotate(1.2722218725854067E-14) scale(2.0 20.0)" vector-effect="non-scaling-stroke" />
    <path d="M -0.5 0.5 L -0.5 0.5 M -0.5 0.5 L -0.5 -0.5 M -0.5 -0.5 L -0.5 -0.5 M -0.5 -0.5 L -0.5 0.5 " transform="translate(118.07317469536196 0.0) rotate(1.2722218725854067E-14) scale(2.0 20.0)" vector-effect="non-scaling-stroke" />
    <!-- Tie -->
    <path d="M -0.5 0.5 L 0.5 0.5 M 0.5 0.5 L 0.5 -0.5 M 0.5 -0.5 L -0.5 -0.5 M -0.5 -0.5 L -0.5 0.5 " transform="translate(123.07317469536196 0.0) rotate(1.2722218725854067E-14) scale(2.0 20.0)" vector-effect="non-scaling-stroke" />
    <path d="M 0.5 -0.5 L -0.5 -0.5 M -0.5 -0.5 L -0.5 0.5 M -0.5 0.5 L 0.5 0.5 M 0.5 0.5 L 0.5 -0.5 " transform="translate(123.07317469536196 0.0) rotate(1.2722218725854067E-14) scale(2.0 20.0)" vector-effect="non-scaling-stroke" />
    <path d="M -0.5 0.5 L 0.5 0.5 M 0.5 0.5 L 0.5 0.5 M 0.5 0.5 L -0.5 0.5 M -0.5 0.5 L -0.5 0.5 " transform="translate(123.07317469536196 0.0) rotate(1.2722218725854067E-14) scale(2.0 20.0)" vector-effect="non-scaling-stroke" />
    <path d="M 0.5 0.5 L 0.5 -0.5 M 0.5 -0.5 L 0.5 -0.5 M 0.5 -0.5 L 0.5 0.5 M 0.5 0.5 L 0.5 0.5 " transform="translate(123.07317469536196 0.0) rotate(1.2722218725854067E-14) scale(2.0 20.0)" vector-effect="non-scaling-stroke" />
    <path d="M 0.5 -0.5 L -0.5 -0.5 M -0.5 -0.5 L -0.5 -0.5 M -0.5 -0.5 L 0.5 -0.5 M 0.5 -0.5 L 0.5 -0.5 " transform="translate(123.07317469536196 0.0) rotate(1.2722218725854067E-14) scale(2.0 20.0)" vector-effect="non-scaling-stroke" />
    <path d="M -0.5 0.5 L -0.5 0.5 M -0.5 0.5 L -0.5 -0.5 M -0.5 -0.5 L -0.5 -0.5 M -0.5 -0.5 L -0.5 0.5 " transform="translate(123.07317469536196 0.0) rotate(1.2722218725854067E-14) scale(2.0 20.0)" vector-effect="non-scaling-stroke" />
    <!-- Tie -->
    <path d="M -0.5 0.5 L 0.5 0.5 M 0.5 0.5 L 0.5 -0.5 M 0.5 -0.5 L -0.5 -0.5 M -0.5 -0.5 L -0.5 0.5 " transform="translate(128.07317469536196 0.0) rotate(1.2722218725854067E-14) scale(2.0 20.0)" vector-effect="non-scaling-stroke" />
    <path d="M 0.5 -0.5 L -0.5 -0.5 M -0.5 -0.5 L -0.5 0.5 M -0.5 0.5 L 0.5 0.5 M 0.5 0.5 L 0.5 -0.5 " transform="translate(128.07317469536196 0.0) rotate(1.2722218725854067E-14) scale(2.0 20.0)" vector-effect="non-scaling-stroke" />
    <path d="M -0.5 0.5 L 0.5 0.5 M 0.5 0.5 L 0.5 0.5 M 0.5 0.5 L -0.5 0.5 M -0.5 0.5 L -0.5 0.5 " transform="translate(128.07317469536196 0.0) rotate(1.2722218725854067E-14) scale(2.0 20.0)" vector-effect="non-scaling-stroke" />
    <path d="M 0.5 0.5 L 0.5 -0.5 M 0.5 -0.5 L 0.5 -0.5 M 0.5 -0.5 L 0.5 0.5 M 0.5 0.5 L 0.5 0.5 " transform="translate(128.07317469536196 0.0) rotate(1.2722218725854067E-14) scale(2.0 20.0)" vector-effect="non-scaling-stroke" />
    <path d="M 0.5 -0.5 L -0.5 -0.5 M -0.5 -0.5 L -0.5 -0.5 M -0.5 -0.5 L 0.5 -0.5 M 0.5 -0.5 L 0.5 -0.5 " transform="translate(128.07317469536196 0.0) rotate(1.2722218725854067E-14) scale(2.0 20.0)" vector-effect="non-scaling-stroke" />
    <path d="M -0.5 0.5 L -0.5 0.5 M -0.5 0.5 L -0.5 -0.5 M -0.5 -0.5 L -0.5 -0.5 M -0.5 -0.5 L -0.5 0.5 " transform="translate(128.07317469536196 0.0) rotate(1.2722218725854067E-14) scale(2.0 20.0)" vector-effect="non-scaling-stroke" />
    <!-- Tie -->
    <path d="M -0.5 0.5 L 0.5 0.5 M 0.5 0.5 L 0.5 -0.5 M 0.5 -0.5 L -0.5 -0.5 M -0.5 -0.5 L -0.5 0.5 " transform="translate(133.07317469536196 0.0) rotate(1.2722218725854067E-14) scale(2.0 20.0)" vector-effect="non-scaling-stroke" />
    <path d="M 0.5 -0.5 L -0.5 -0.5 M -0.5 -0.5 L -0.5 0.5 M -0.5 0.5 L 0.5 0.5 M 0.5 0.5 L 0.5 -0.5 " transform="translate(133.07317469536196 0.0) rotate(1.2722218725854067E-14) scale(2.0 20.0)" vector-effect="non-scaling-stroke" />
    <path d="M -0.5 0.5 L 0.5 0.5 M 0.5 0.5 L 0.5 0.5 M 0.5 0.5 L -0.5 0.5 M -0.5 0.5 L -0.5 0.5 " transform="translate(133.07317469536196 0.0) rotate(1.2722218725854067E-14) scale(2.0 20.0)" vector-effect="non-scaling-stroke" />
    <path d="M 0.5 0.5 L 0.5 -0.5 M 0.5 -0.5 L 0.5 -0.5 M 0.5 -0.5 L 0.5 0.5 M 0.5 0.5 L 0.5 0.5 " transform="translate(133.07317469536196 0.0) rotate(1.2722218725854067E-14) scale(2.0 20.0)" vector-effect="non-scaling-stroke" />
    <path d="M 0.5 -0.5 L -0.5 -0.5 M -0.5 -0.5 L -0.5 -0.5 M -0.5 -0.5 L 0.5 -0.5 M 0.5 -0.5 L 0.5 -0.5 " transform="translate(133.07317469536196 0.0) rotate(1.2722218725854067E-14) scale(2.0 20.0)" vector-effect="non-scaling-stroke" />
    <path d="M -0.5 0.5 L -0.5 0.5 M -0.5 0.5 L -0.5 -0.5 M -0.5 -0.5 L -0.5 -0.5 M -0.5 -0.5 L -0.5 0.5 " transform="translate(133.07317469536196 0.0) rotate(1.2722218725854067E-14) scale(2.0 20.0)" vector-effect="non-scaling-stroke" />
    <!-- Tie -->
    <path d="M -0.5 0.5 L 0.5 0.5 M 0.5 0.5 L 0.5 -0.5 M 0.5 -0.5 L -0.5 -0.5 M -0.5 -0.5 L -0.5 0.5 " transform="translate(138.07317469536196 0.0) rotate(1.2722218725854067E-14) scale(2.0 20.0)" vector-effect="non-scaling-stroke" />
    <path d="M 0.5 -0.5 L -0.5 -0.5 M -0.5 -0.5 L -0.5 0.5 M -0.5 0.5 L 0.5 0.5 M 0.5 0.5 L 0.5 -0.5 " transform="translate(138.07317469536196 0.0) rotate(1.2722218725854067E-14) scale(2.0 20.0)" vector-effect="non-scaling-stroke" />
    <path d="M -0.5 0.5 L 0.5 0.5 M 0.5 0.5 L 0.5 0.5 M 0.5 0.5 L -0.5 0.5 M -0.5 0.5 L -0.5 0.5 " transform="translate(138.07317469536196 0.0) rotate(1.2722218725854067E-14) scale(2.0 20.0)" vector-effect="non-scaling-stroke" />
    <path d="M 0.5 0.5 L 0.5 -0.5 M 0.5 -0.5 L 0.5 -0.5 M 0.5 -0.5 L 0.5 0.5 M 0.5 0.5 L 0.5 0.5 " transform="translate(138.07317469536196 0.0) rotate(1.2722218725854067E-14) scale(2.0 20.0)" vector-effect="non-scaling-stroke" />
    <path d="M 0.5 -0.5 L -0.5 -0.5 M -0.5 -0.5 L -0.5 -0.5 M -0.5 -0.5 L 0.5 -0.5 M 0.5 -0.5 L 0.5 -0.5 " transform="translate(138.07317469536196 0.0) rotate(1.2722218725854067E-14) scale(2.0 20.0)" vector-effect="non-scaling-stroke" />
    <path d="M -0.5 0.5 L -0.5 0.5 M -0.5 0.5 L -0.5 -0.5 M -0.5 -0.5 L -0.5 -0.5 M -0.5 -0.5 L -0.5 0.5 " transform="translate(138.07317469536196 0.0) rotate(1.2722218725854067E-14) scale(2.0 20.0)" vector-effect="non-scaling-stroke" />
    <!-- Tie -->
    <path d="M -0.5 0.5 L 0.5 0.5 M 0.5 0.5 L 0.5 -0.5 M 0.5 -0.5 L -0.5 -0.5 M -0.5 -0.5 L -0.5 0.5 " transform="translate(143.07317469536196 0.0) rotate(1.2722218725854067E-14) scale(2.0 20.0)" vector-effect="non-scaling-stroke" />
    <path d="M 0.5 -0.5 L -0.5 -0.5 M -0.5 -0.5 L -0.5 0.5 M -0.5 0.5 L 0.5 0.5 M 0.5 0.5 L 0.5 -0.5 " transform="translate(143.07317469536196 0.0) rotate(1.2722218725854067E-14) scale(2.0 20.0)" vector-effect="non-scaling-stroke" />
    <path d="M -0.5 0.5 L 0.5 0.5 M 0.5 0.5 L 0.5 0.5 M 0.5 0.5 L -0.5 0.5 M -0.5 0.5 L -0.5 0.5 " transform="translate(143.07317469536196 0.0) rotate(1.2722218725854067E-14) scale(2.0 20.0)" vector-effect="non-scaling-stroke" />
    <path d="M 0.5 0.5 L 0.5 -0.5 M 0.5 -0.5 L 0.5 -0.5 M 0.5 -0.5 L 0.5 0.5 M 0.5 0.5 L 0.5 0.5 " transform="translate(143.07317469536196 0.0) rotate(1.2722218725854067E-14) scale(2.0 20.0)" vector-effect="non-scaling-stroke" />
    <path d="M 0.5 -0.5 L -0.5 -0.5 M -0.5 -0.5 L -0.5 -0.5 M -0.5 -0.5 L 0.5 -0.5 M 0.5 -0.5 L 0.5 -0.5 " transform="translate(143.07317469536196 0.0) rotate(1.2722218725854067E-14) scale(2.0 20.0)" vector-effect="non-scaling-stroke" />
    <path d="M -0.5 0.5 L -0.5 0.5 M -0.5 0.5 L -0.5 -0.5 M -0.5 -0.5 L -0.5 -0.5 M -0.5 -0.5 L -0.5 0.5 " transform="translate(143.07317469536196 0.0) rotate(1.2722218725854067E-14) scale(2.0 20.0)" vector-effect="non-scaling-stroke" />
    <!-- Tie -->
    <path d="M -0.5 0.5 L 0.5 0.5 M 0.5 0.5 L 0.5 -0.5 M 0.5 -0.5 L -0.5 -0.5 M -0.5 -0.5 L -0.5 0.5 " transform="translate(148.07317469536196 0.0) rotate(1.2722218725854067E-14) scale(2.0 20.0)" vector-effect="non-scaling-stroke" />
    <path d="M 0.5 -0.5 L -0.5 -0.5 M -0.5 -0.5 L -0.5 0.5 M -0.5 0.5 L 0.5 0.5 M 0.5 0.5 L 0.5 -0.5 " transform="translate(148.07317469536196 0.0) rotate(1.2722218725854067E-14) scale(2.0 20.0)" vector-effect="non-scaling-stroke" />
    <path d="M -0.5 0.5 L 0.5 0.5 M 0.5 0.5 L 0.5 0.5 M 0.5 0.5 L -0.5 0.5 M -0.5 0.5 L -0.5 0.5 " transform="translate(148.07317469536196 0.0) rotate(1.2722218725854067E-14) scale(2.0 20.0)" vector-effect="non-scaling-stroke" />
    <path d="M 0.5 0.5 L 0.5 -0.5 M 0.5 -0.5 L 0.5 -0.5 M 0.5 -0.5 L 0.5 0.5 M 0.5 0.5 L 0.5 0.5 " transform="translate(148.07317469536196 0.0) rotate(1.2722218725854067E-14) scale(2.0 20.0)" vector-effect="non-scaling-stroke" />
    <path d="M 0.5 -0.5 L -0.5 -0.5 M -0.5 -0.5 L -0.5 -0.5 M -0.5 -0.5 L 0.5 -0.5 M 0.5 -0.5 L 0.5 -0.5 " transform="translate(148.07317469536196 0.0) rotate(1.2722218725854067E-14) scale(2.0 20.0)" vector-effect="non-scaling-stroke" />
    <path d="M -0.5 0.5 L -0.5 0.5 M -0.5 0.5 L -0.5 -0.5 M -0.5 -0.5 L -0.5 -0.5 M -0.5 -0.5 L -0.5 0.5 " transform="translate(148.07317469536196 0.0) rotate(1.2722218725854067E-14) scale(2.0 20.0)" vector-effect="non-scaling-stroke" />
    <!-- Rail 1766696779 -->
    <path d="M 1.7864535182562015E-14 8.25 A 291.75 291.75 0 0 1 75.51045640866043 18.191140180164325 M 75.51045640866043 18.19114018016434 L 123.80674772311373 31.132092435290332 " />
    <!-- Rail 1203248497 -->
    <path d="M 1.2751634796121815E-14 -8.25 A 208.25 208.25 0 0 1 1.2751634796121815E-14 -8.25 M 1.2751634796121815E-14 -8.25 L 150.0 -8.25 " />
    <!-- Rail 1839013460 -->
    <path d="M 1.7873720033555618E-14 8.100000000000023 A 291.9 291.9 0 0 1 75.5492792654258 18.046251306220995 M 75.54927926542581 18.046251306220977 L 123.84557057987911 30.98720356134697 " />
    <!-- Rail 1032015814 -->
    <path d="M 1.274244994512821E-14 -8.099999999999994 A 208.1 208.1 0 0 1 1.274244994512821E-14 -8.099999999999994 M 1.274244994512821E-14 -8.1 L 150.0 -8.1 " />
    <!-- Rail 972083394 -->
    <path d="M 1.785228871457054E-14 8.449999999999989 A 291.55 291.55 0 0 1 75.45869259963993 18.3843253454221 M 75.45869259963993 18.38432534542215 L 123.75498391409323 31.32527760054814 " />
    <!-- Rail 1042546968 -->
    <path d="M 1.2763881264113289E-14 -8.449999999999989 A 208.45 208.45 0 0 1 1.2763881264113289E-14 -8.449999999999989 M 1.2763881264113289E-14 -8.45 L 150.0 -8.45 " />
    <!-- Rail 1003411254 -->
    <path d="M 1.7843103863576934E-14 8.600000000000023 A 291.4 291.4 0 0 1 75.41986974287454 18.529214219365542 M 75.41986974287455 18.52921421936551 L 123.71616105732785 31.470166474491503 " />
    <!-- Rail 479478518 -->
    <path d="M 1.2773066115106894E-14 -8.599999999999994 A 208.6 208.6 0 0 1 1.2773066115106894E-14 -8.599999999999994 M 1.2773066115106894E-14 -8.6 L 150.0 -8.6 " />
    <!-- Rail 601749350 -->
    <path d="M 1.887486879185858E-14 -8.25 A 308.25 308.25 0 0 1 79.78097065285202 2.2533640463946654 M 79.78097065285202 2.2533640463947098 L 98.42866989863236 7.25 " />
    <!-- Rail 1039081156 -->
    <path d="M 98.42866989863236 7.25 L 108.42866989863236 7.25 " />
    <!-- Rail 1884621096 -->
    <path d="M 1.1741301186825248E-14 8.25 A 191.75 191.75 0 0 1 1.1741301186825248E-14 8.25 M 1.174130118682525E-14 8.25 L 98.29701740104494 8.25 " />
    <!-- Rail 1315464742 -->
    <path d="M 98.29701740104494 8.25 L 107.9562756639356 10.838190451025199 " />
    <!-- Rail 46321226 -->
    <path d="M 102.16072070620125 8.25 L 128.07726196730533 15.194316301520702 " />
    <!-- Rail 1201601000 -->
    <path d="M 102.16072070620125 8.25 L 150.0 8.25 " />
    <!-- Rail 534426746 -->
    <path d="M 1.8868745557862844E-14 -8.149999999999977 A 308.15 308.15 0 0 1 79.75508874834176 2.349956629023609 M 79.75508874834176 2.349956629023617 L 98.4155046488736 7.35 " />
    <!-- Rail 311339249 -->
    <path d="M 98.4155046488736 7.35 L 108.42866989863238 7.350000000000001 " />
    <!-- Rail 111842420 -->
    <path d="M 1.1747424420820985E-14 8.150000000000006 A 191.85 191.85 0 0 1 1.1747424420820985E-14 8.150000000000006 M 1.1747424420820985E-14 8.15 L 98.31018265080368 8.15 " />
    <!-- Rail 919305456 -->
    <path d="M 98.31018265080368 8.15 L 107.9821575684459 10.741597868396301 " />
    <!-- Rail 2096654135 -->
    <path d="M 101.4011452949287 8.15 L 128.05138006279506 15.290908884149609 " />
    <!-- Rail 467042681 -->
    <path d="M 101.4011452949287 8.15 L 150.0 8.15 " />
    <!-- Rail 1234022211 -->
    <path d="M 1.8893238493845793E-14 -8.550000000000011 A 308.55 308.55 0 0 1 79.85861636638278 1.9635862985079484 M 79.85861636638278 1.9635862985079893 L 98.46816564790856 6.95 " />
    <!-- Rail 617375358 -->
    <path d="M 98.46816564790856 6.95 L 108.42866989863238 6.949999999999999 " />
    <!-- Rail 464677903 -->
    <path d="M 1.1722931484838038E-14 8.550000000000011 A 191.45 191.45 0 0 1 1.1722931484838038E-14 8.550000000000011 M 1.1722931484838038E-14 8.55 L 98.25752165176871 8.549999999999999 " />
    <!-- Rail 876673865 -->
    <path d="M 98.25752165176871 8.549999999999999 L 107.87862995040489 11.127968198911928 " />
    <!-- Rail 269729077 -->
    <path d="M 104.43944694001877 8.549999999999999 L 128.15490768083606 14.904538553633982 " />
    <!-- Rail 1462486751 -->
    <path d="M 104.43944694001877 8.549999999999999 L 150.0 8.55 " />
    <!-- Rail 1601243681 -->
    <path d="M 1.8899361727841528E-14 -8.649999999999977 A 308.65 308.65 0 0 1 79.88449827089302 1.8669937158790617 M 79.88449827089303 1.866993715879083 L 98.48133089766732 6.85 " />
    <!-- Rail 1826109493 -->
    <path d="M 98.48133089766732 6.85 L 108.42866989863239 6.8500000000000005 " />
    <!-- Rail 1630521998 -->
    <path d="M 1.1716808250842301E-14 8.650000000000006 A 191.35 191.35 0 0 1 1.1716808250842301E-14 8.650000000000006 M 1.1716808250842301E-14 8.65 L 98.24435640201 8.649999999999999 " />
    <!-- Rail 1748759882 -->
    <path d="M 98.24435640201 8.649999999999999 L 107.85274804589464 11.224560781540834 " />
    <!-- Rail 1061997166 -->
    <path d="M 105.1990223512913 8.649999999999999 L 128.18078958534633 14.807945971005076 " />
    <!-- Rail 309875746 -->
    <path d="M 105.1990223512913 8.649999999999999 L 150.0 8.65 " />
    <!-- Tie -->
    <path d="M -0.5 0.5 L 0.5 0.5 M 0.5 0.5 L 0.5 -0.5 M 0.5 -0.5 L -0.5 -0.5 M -0.5 -0.5 L -0.5 0.5 " transform="translate(-2.4999999999999996 3.0616169978683826E-16) rotate(180.0) scale(2.0 20.0)" vector-effect="non-scaling-stroke" />
    <path d="M 0.5 -0.5 L -0.5 -0.5 M -0.5 -0.5 L -0.5 0.5 M -0.5 0.5 L 0.5 0.5 M 0.5 0.5 L 0.5 -0.5 " transform="translate(-2.4999999999999996 3.0616169978683826E-16) rotate(180.0) scale(2.0 20.0)" vector-effect="non-scaling-stroke" />
    <path d="M -0.5 0.5 L 0.5 0.5 M 0.5 0.5 L 0.5 0.5 M 0.5 0.5 L -0.5 0.5 M -0.5 0.5 L -0.5 0.5 " transform="translate(-2.4999999999999996 3.0616169978683826E-16) rotate(180.0) scale(2.0 20.0)" vector-effect="non-scaling-stroke" />
    <path d="M 0.5 0.5 L 0.5 -0.5 M 0.5 -0.5 L 0.5 -0.5 M 0.5 -0.5 L 0.5 0.5 M 0.5 0.5 L 0.5 0.5 " transform="translate(-2.4999999999999996 3.0616169978683826E-16) rotate(180.0) scale(2.0 20.0)" vector-effect="non-scaling-stroke" />
    <path d="M 0.5 -0.5 L -0.5 -0.5 M -0.5 -0.5 L -0.5 -0.5 M -0.5 -0.5 L 0.5 -0.5 M 0.5 -0.5 L 0.5 -0.5 " transform="translate(-2.4999999999999996 3.0616169978683826E-16) rotate(180.0) scale(2.0 20.0)" vector-effect="non-scaling-stroke" />
    <path d="M -0.5 0.5 L -0.5 0.5 M -0.5 0.5 L -0.5 -0.5 M -0.5 -0.5 L -0.5 -0.5 M -0.5 -0.5 L -0.5 0.5 " transform="translate(-2.4999999999999996 3.0616169978683826E-16) rotate(180.0) scale(2.0 20.0)" vector-effect="non-scaling-stroke" />
    <!-- Tie -->
    <path d="M -0.5 0.5 L 0.5 0.5 M 0.5 0.5 L 0.5 -0.5 M 0.5 -0.5 L -0.5 -0.5 M -0.5 -0.5 L -0.5 0.5 " transform="translate(-7.5 9.18485099360515E-16) rotate(180.0) scale(2.0 20.0)" vector-effect="non-scaling-stroke" />
    <path d="M 0.5 -0.5 L -0.5 -0.5 M -0.5 -0.5 L -0.5 0.5 M -0.5 0.5 L 0.5 0.5 M 0.5 0.5 L 0.5 -0.5 " transform="translate(-7.5 9.18485099360515E-16) rotate(180.0) scale(2.0 20.0)" vector-effect="non-scaling-stroke" />
    <path d="M -0.5 0.5 L 0.5 0.5 M 0.5 0.5 L 0.5 0.5 M 0.5 0.5 L -0.5 0.5 M -0.5 0.5 L -0.5 0.5 " transform="translate(-7.5 9.18485099360515E-16) rotate(180.0) scale(2.0 20.0)" vector-effect="non-scaling-stroke" />
    <path d="M 0.5 0.5 L 0.5 -0.5 M 0.5 -0.5 L 0.5 -0.5 M 0.5 -0.5 L 0.5 0.5 M 0.5 0.5 L 0.5 0.5 " transform="translate(-7.5 9.18485099360515E-16) rotate(180.0) scale(2.0 20.0)" vector-effect="non-scaling-stroke" />
    <path d="M 0.5 -0.5 L -0.5 -0.5 M -0.5 -0.5 L -0.5 -0.5 M -0.5 -0.5 L 0.5 -0.5 M 0.5 -0.5 L 0.5 -0.5 " transform="translate(-7.5 9.18485099360515E-16) rotate(180.0) scale(2.0 20.0)" vector-effect="non-scaling-stroke" />
    <path d="M -0.5 0.5 L -0.5 0.5 M -0.5 0.5 L -0.5 -0.5 M -0.5 -0.5 L -0.5 -0.5 M -0.5 -0.5 L -0.5 0.5 " transform="translate(-7.5 9.18485099360515E-16) rotate(180.0) scale(2.0 20.0)" vector-effect="non-scaling-stroke" />
    <!-- Rail 228362073 -->
    <path d="M -1.5155004139448494E-15 -8.25 L -10.000000000000002 -8.25 " />
    <!-- Rail 976925189 -->
    <path d="M -1.487945860964034E-15 -8.1 L -10.000000000000002 -8.099999999999998 " />
    <!-- Rail 1677463702 -->
    <path d="M -1.5522398179192699E-15 -8.45 L -10.0 -8.449999999999996 " />
    <!-- Rail 863342991 -->
    <path d="M -1.5797943709000855E-15 -8.6 L -9.999999999999998 -8.600000000000001 " />
    <!-- Rail 1513778935 -->
    <path d="M 5.051668046482832E-16 8.25 L -9.999999999999998 8.25 " />
    <!-- Rail 897537327 -->
    <path d="M 4.959819536546781E-16 8.1 L -10.000000000000002 8.100000000000001 " />
    <!-- Rail 906271670 -->
    <path d="M 5.174132726397567E-16 8.45 L -10.0 8.449999999999998 " />
    <!-- Rail 702717200 -->
    <path d="M 5.265981236333618E-16 8.6 L -9.999999999999996 8.600000000000001 " />
</g>
</svg>
