<?xml version="1.0"?>
<!DOCTYPE svg PUBLIC "-//W3C//DTD SVG 1.1//EN"
  "http://www.w3.org/Graphics/SVG/1.1/DTD/svg11.dtd">

<svg version="1.1" xmlns="http://www.w3.org/2000/svg" transform="scale(1,-1)" width="280.75354702896357mm" height="290.5400209649598mm" viewBox="-95.28625073241209 -173.90730705705724 280.75354702896357 290.5400209649598" >
    <g stroke="black" stroke-width="0.1" fill="none" >
    <!-- Tie -->
    <path d="M 2.017698005972921 11.60790636397623 L 3.8276256490796428 12.458883406391688 M 3.8276256490796428 12.458883406391688 L 14.413164826347273 -10.055307951513544 M 14.413164826347273 -10.055307951513544 L 12.60323718324055 -10.906284993929003 M 12.60323718324055 -10.906284993929003 L 2.017698005972921 11.60790636397623 " />
    <!-- Tie -->
    <path d="M 5.180354140260162 15.594544077219306 L 6.997693468474815 16.42957567310315 M 6.997693468474815 16.42957567310315 L 19.362468018510594 -10.480772611985381 M 19.362468018510594 -10.480772611985381 L 17.54512869029594 -11.31580420786923 M 17.54512869029594 -11.31580420786923 L 5.180354140260162 15.594544077219306 " />
    <!-- Tie -->
    <path d="M 8.382909773788619 19.549893261286158 L 10.207553759046796 20.368840345694654 M 10.207553759046796 20.368840345694654 L 24.302759908860097 -11.035793252588338 M 24.302759908860097 -11.035793252588338 L 22.478115923601926 -11.85474033699683 M 22.478115923601926 -11.85474033699683 L 8.382909773788619 19.549893261286158 " />
    <!-- Tie -->
    <path d="M 11.62505006985459 23.47353828423908 L 13.456888255747863 24.27626417811772 M 13.456888255747863 24.27626417811772 L 29.23087282078383 -11.720316336192326 M 29.23087282078383 -11.720316336192326 L 27.399034634890562 -12.523042230070963 M 27.399034634890562 -12.523042230070963 L 11.62505006985459 23.47353828423908 " />
    <!-- Tie -->
    <path d="M -2.055108444795237 9.566609478751175 L -0.2526959991084343 10.433390521248828 M -0.2526959991084343 10.433390521248828 L 10.447031869118035 -11.815968578232756 M 10.447031869118035 -11.815968578232756 L 8.644619423431234 -12.682749620730409 M 8.644619423431234 -12.682749620730409 L -2.055108444795237 9.566609478751175 " />
    <!-- Tie -->
    <path d="M -7.139125808259756 9.559035722162381 L -5.344076498997037 10.440964277837631 M -5.344076498997037 10.440964277837631 L 7.538240747143153 -15.779294183667732 M 7.538240747143153 -15.779294183667732 L 5.74319143788043 -16.661222739342982 M 5.74319143788043 -16.661222739342982 L -7.139125808259756 9.559035722162381 " />
    <!-- Tie -->
    <path d="M -12.199809915356013 9.554503216510128 L -10.409242836578795 10.44549678348983 M -10.409242836578795 10.44549678348983 L 4.645945556946017 -19.809856006109516 M 4.645945556946017 -19.809856006109516 L 2.8553784781687988 -20.70084957308922 M 2.8553784781687988 -20.70084957308922 L -12.199809915356013 9.554503216510128 " />
    <!-- Tie -->
    <path d="M -17.243447438603862 9.551264408701531 L -15.456118292529158 10.44873559129844 M -15.456118292529158 10.44873559129844 L 1.7845267899442092 -23.886302737029006 M 1.7845267899442092 -23.886302737029006 L -0.0028023561304930666 -24.78377391962591 M -0.0028023561304930666 -24.78377391962591 L -17.243447438603862 9.551264408701531 " />
    <!-- Tie -->
    <path d="M 30.56005074245798 14.215343593923885 L 29.266147873149848 12.690281180513807 M 29.266147873149848 12.690281180513807 L 14.015523739049051 25.62930987359515 M 14.015523739049051 25.62930987359515 L 15.309426608357182 27.154372287005227 M 15.309426608357182 27.154372287005227 L 30.56005074245798 14.215343593923885 " />
    <!-- Tie -->
    <path d="M 33.75633463471827 17.929326522880146 L 32.44724609005618 16.41727917499898 M 32.44724609005618 16.41727917499898 L 17.326772611244493 29.50816462161994 M 17.326772611244493 29.50816462161994 L 18.635861155906586 31.020211969501105 M 18.635861155906586 31.020211969501105 L 33.75633463471827 17.929326522880146 " />
    <!-- Tie -->
    <path d="M 36.98959792441114 21.611161448025964 L 35.66545461215865 20.11228036914846 M 35.66545461215865 20.11228036914846 L 20.6766438233836 33.3537134916734 M 20.6766438233836 33.3537134916734 L 22.000787135636095 34.852594570550906 M 22.000787135636095 34.852594570550906 L 36.98959792441114 21.611161448025964 " />
    <!-- Tie -->
    <path d="M 40.25951728790221 25.260480188937493 L 38.9204516212871 23.774915265922477 M 38.9204516212871 23.774915265922477 L 24.064802391136936 37.165571932073654 M 24.064802391136936 37.165571932073654 L 25.403868057752057 38.651136855088666 M 25.403868057752057 38.651136855088666 L 40.25951728790221 25.260480188937493 " />
    <!-- Tie -->
    <path d="M 43.565765735979795 28.876917816781123 L 42.21191162045283 27.404817604882933 M 42.21191162045283 27.404817604882933 L 27.490909501470902 40.94335876015256 M 27.490909501470902 40.94335876015256 L 28.844763616997863 42.41545897205075 M 28.844763616997863 42.41545897205075 L 43.565765735979795 28.876917816781123 " />
    <!-- Tie -->
    <path d="M 46.908012646554404 32.46011269080822 L 45.539505466398936 31.001624398821292 M 45.539505466398936 31.001624398821292 L 30.954622546529684 44.686696200375934 M 30.954622546529684 44.686696200375934 L 32.323129726685146 46.14518449236286 M 32.323129726685146 46.14518449236286 L 46.908012646554404 32.46011269080822 " />
    <!-- Tie -->
    <path d="M 50.28592379772039 36.00970649451729 L 48.90290040251402 34.564975970055436 M 48.90290040251402 34.564975970055436 L 34.455595157895395 48.395209922119115 M 34.455595157895395 48.395209922119115 L 35.83861855310176 49.839940446580975 M 35.83861855310176 49.839940446580975 L 50.28592379772039 36.00970649451729 " />
    <!-- Tie -->
    <path d="M 53.6991614011772 39.52534427148577 L 52.30176009210694 38.09451598639748 M 52.30176009210694 38.09451598639748 L 37.993477241224014 52.06852907710016 M 37.993477241224014 52.06852907710016 L 39.39087855029428 53.49935736218845 M 39.39087855029428 53.49935736218845 L 53.6991614011772 39.52534427148577 " />
    <!-- Tie -->
    <path d="M 57.14738413600915 43.00667446086594 L 55.73574465204139 41.58989149678737 M 55.73574465204139 41.58989149678737 L 41.56791501125574 55.70628633646494 M 41.56791501125574 55.70628633646494 L 42.979554495223496 57.12306930054351 M 42.979554495223496 57.12306930054351 L 57.14738413600915 43.00667446086594 " />
    <!-- Tie -->
    <path d="M 60.670773130776986 46.528637507046035 L 59.256559568403894 45.11442394467294 M 59.256559568403894 45.11442394467294 L 45.11442394467295 59.2565595684039 M 45.11442394467295 59.2565595684039 L 46.52863750704604 60.67077313077699 M 46.52863750704604 60.67077313077699 L 60.670773130776986 46.528637507046035 " />
    <!-- Tie -->
    <path d="M 64.20630703670972 50.06417141297877 L 62.79209347433663 48.64995785060568 M 62.79209347433663 48.64995785060568 L 48.64995785060569 62.79209347433664 M 48.64995785060569 62.79209347433664 L 50.06417141297878 64.20630703670973 M 50.06417141297878 64.20630703670973 L 64.20630703670972 50.06417141297877 " />
    <!-- Tie -->
    <path d="M 67.74184094264245 53.59970531891151 L 66.32762738026936 52.18549175653842 M 66.32762738026936 52.18549175653842 L 52.185491756538426 66.32762738026938 M 52.185491756538426 66.32762738026938 L 53.59970531891152 67.74184094264247 M 53.59970531891152 67.74184094264247 L 67.74184094264245 53.59970531891151 " />
    <!-- Tie -->
    <path d="M 71.27737484857519 57.13523922484425 L 69.8631612862021 55.721025662471156 M 69.8631612862021 55.721025662471156 L 55.72102566247116 69.86316128620211 M 55.72102566247116 69.86316128620211 L 57.135239224844256 71.2773748485752 M 57.135239224844256 71.2773748485752 L 71.27737484857519 57.13523922484425 " />
    <!-- Tie -->
    <path d="M 74.81290875450793 60.670773130776986 L 73.39869519213484 59.256559568403894 M 73.39869519213484 59.256559568403894 L 59.2565595684039 73.39869519213485 M 59.2565595684039 73.39869519213485 L 60.67077313077699 74.81290875450794 M 60.67077313077699 74.81290875450794 L 74.81290875450793 60.670773130776986 " />
    <!-- Tie -->
    <path d="M 78.34844266044067 64.20630703670972 L 76.93422909806758 62.79209347433663 M 76.93422909806758 62.79209347433663 L 62.79209347433664 76.93422909806759 M 62.79209347433664 76.93422909806759 L 64.20630703670973 78.34844266044068 M 64.20630703670973 78.34844266044068 L 78.34844266044067 64.20630703670972 " />
    <!-- Tie -->
    <path d="M 81.8839765663734 67.74184094264245 L 80.46976300400031 66.32762738026936 M 80.46976300400031 66.32762738026936 L 66.32762738026938 80.46976300400033 M 66.32762738026938 80.46976300400033 L 67.74184094264247 81.88397656637342 M 67.74184094264247 81.88397656637342 L 81.8839765663734 67.74184094264245 " />
    <!-- Tie -->
    <path d="M 85.41951047230614 71.27737484857519 L 84.00529690993305 69.8631612862021 M 84.00529690993305 69.8631612862021 L 69.86316128620211 84.00529690993307 M 69.86316128620211 84.00529690993307 L 71.2773748485752 85.41951047230616 M 71.2773748485752 85.41951047230616 L 85.41951047230614 71.27737484857519 " />
    <!-- Tie -->
    <path d="M 88.95504437823888 74.81290875450793 L 87.54083081586579 73.39869519213484 M 87.54083081586579 73.39869519213484 L 73.39869519213485 87.5408308158658 M 73.39869519213485 87.5408308158658 L 74.81290875450794 88.9550443782389 M 74.81290875450794 88.9550443782389 L 88.95504437823888 74.81290875450793 " />
    <!-- Tie -->
    <path d="M 92.49057828417162 78.34844266044067 L 91.07636472179853 76.93422909806758 M 91.07636472179853 76.93422909806758 L 76.93422909806759 91.07636472179854 M 76.93422909806759 91.07636472179854 L 78.34844266044068 92.49057828417163 M 78.34844266044068 92.49057828417163 L 92.49057828417162 78.34844266044067 " />
    <!-- Tie -->
    <path d="M 96.02611219010436 81.88397656637339 L 94.61189862773126 80.4697630040003 M 94.61189862773126 80.4697630040003 L 80.46976300400033 94.61189862773126 M 80.46976300400033 94.61189862773126 L 81.88397656637342 96.02611219010436 M 81.88397656637342 96.02611219010436 L 96.02611219010436 81.88397656637339 " />
    <!-- Tie -->
    <path d="M 99.5616460960371 85.41951047230613 L 98.147432533664 84.00529690993304 M 98.147432533664 84.00529690993304 L 84.00529690993307 98.147432533664 M 84.00529690993307 98.147432533664 L 85.41951047230616 99.5616460960371 M 85.41951047230616 99.5616460960371 L 99.5616460960371 85.41951047230613 " />
    <!-- Tie -->
    <path d="M 103.09718000196982 88.95504437823887 L 101.68296643959673 87.54083081586577 M 101.68296643959673 87.54083081586577 L 87.54083081586579 101.68296643959674 M 87.54083081586579 101.68296643959674 L 88.95504437823888 103.09718000196983 M 88.95504437823888 103.09718000196983 L 103.09718000196982 88.95504437823887 " />
    <!-- Tie -->
    <path d="M 106.63271390790256 92.4905782841716 L 105.21850034552946 91.07636472179851 M 105.21850034552946 91.07636472179851 L 91.07636472179853 105.21850034552948 M 91.07636472179853 105.21850034552948 L 92.49057828417162 106.63271390790257 M 92.49057828417162 106.63271390790257 L 106.63271390790256 92.4905782841716 " />
    <!-- Tie -->
    <path d="M -18.396782219922404 -9.999999999999998 L -20.3967822199224 -9.999999999999998 M -20.3967822199224 -9.999999999999998 L -20.396782219922397 10.000000000000002 M -20.396782219922397 10.000000000000002 L -18.3967822199224 10.000000000000002 M -18.3967822199224 10.000000000000002 L -18.396782219922404 -9.999999999999998 " />
    <!-- Tie -->
    <path d="M -23.396782219922404 -9.999999999999996 L -25.3967822199224 -9.999999999999996 M -25.3967822199224 -9.999999999999996 L -25.396782219922397 10.000000000000004 M -25.396782219922397 10.000000000000004 L -23.3967822199224 10.000000000000004 M -23.3967822199224 10.000000000000004 L -23.396782219922404 -9.999999999999996 " />
    <!-- Tie -->
    <path d="M -28.396782219922404 -9.999999999999996 L -30.3967822199224 -9.999999999999996 M -30.3967822199224 -9.999999999999996 L -30.396782219922397 10.000000000000004 M -30.396782219922397 10.000000000000004 L -28.3967822199224 10.000000000000004 M -28.3967822199224 10.000000000000004 L -28.396782219922404 -9.999999999999996 " />
    <!-- Tie -->
    <path d="M -33.3967822199224 -9.999999999999996 L -35.3967822199224 -9.999999999999996 M -35.3967822199224 -9.999999999999996 L -35.3967822199224 10.000000000000004 M -35.3967822199224 10.000000000000004 L -33.3967822199224 10.000000000000004 M -33.3967822199224 10.000000000000004 L -33.3967822199224 -9.999999999999996 " />
    <!-- Tie -->
    <path d="M -38.3967822199224 -9.999999999999995 L -40.3967822199224 -9.999999999999995 M -40.3967822199224 -9.999999999999995 L -40.3967822199224 10.000000000000005 M -40.3967822199224 10.000000000000005 L -38.3967822199224 10.000000000000005 M -38.3967822199224 10.000000000000005 L -38.3967822199224 -9.999999999999995 " />
    <!-- Tie -->
    <path d="M -43.3967822199224 -9.999999999999995 L -45.3967822199224 -9.999999999999995 M -45.3967822199224 -9.999999999999995 L -45.3967822199224 10.000000000000005 M -45.3967822199224 10.000000000000005 L -43.3967822199224 10.000000000000005 M -43.3967822199224 10.000000000000005 L -43.3967822199224 -9.999999999999995 " />
    <!-- Tie -->
    <path d="M -48.3967822199224 -9.999999999999995 L -50.3967822199224 -9.999999999999995 M -50.3967822199224 -9.999999999999995 L -50.3967822199224 10.000000000000005 M -50.3967822199224 10.000000000000005 L -48.3967822199224 10.000000000000005 M -48.3967822199224 10.000000000000005 L -48.3967822199224 -9.999999999999995 " />
    <!-- Tie -->
    <path d="M -0.00807667070571405 -25.63408190864106 L -1.1390748738636 -27.283579730541295 M -1.1390748738636 -27.283579730541295 L -17.634053092865976 -15.973597698962411 M -17.634053092865976 -15.973597698962411 L -16.50305488970809 -14.324099877062178 M -16.50305488970809 -14.324099877062178 L -0.00807667070571405 -25.63408190864106 " />
    <!-- Tie -->
    <path d="M -2.767045532685774 -29.683525171007624 L -3.8814924831006783 -31.34425031223687 M -3.8814924831006783 -31.34425031223687 L -20.488743895393196 -20.19978080808782 M -20.488743895393196 -20.19978080808782 L -19.37429694497829 -18.53905566685857 M -19.37429694497829 -18.53905566685857 L -2.767045532685774 -29.683525171007624 " />
    <!-- Tie -->
    <path d="M -5.485382689652351 -33.76035519169207 L -6.583166943557932 -35.43214158112014 M -6.583166943557932 -35.43214158112014 L -23.3010308378387 -24.454299042064324 M -23.3010308378387 -24.454299042064324 L -22.20324658393312 -22.78251265263625 M -22.20324658393312 -22.78251265263625 L -5.485382689652351 -33.76035519169207 " />
    <!-- Tie -->
    <path d="M -8.162816310155092 -37.864164291089956 L -9.243828090040777 -39.54684475147106 M -9.243828090040777 -39.54684475147106 L -26.070632693851863 -28.736726952614198 M -26.070632693851863 -28.736726952614198 L -24.98962091396618 -27.05404649223309 M -24.98962091396618 -27.05404649223309 L -8.162816310155092 -37.864164291089956 " />
    <!-- Tie -->
    <path d="M -10.799078653063393 -41.994542091711224 L -11.863209858652034 -43.687948356401556 M -11.863209858652034 -43.687948356401556 L -28.797272505555352 -33.04663630051513 M -28.797272505555352 -33.04663630051513 L -27.73314129996671 -31.3532300358248 M -27.73314129996671 -31.3532300358248 L -10.799078653063393 -41.994542091711224 " />
    <!-- Tie -->
    <path d="M -13.393906094339487 -46.15107555921753 L -14.441050313397298 -47.85503828900178 M -14.441050313397298 -47.85503828900178 L -31.480677611239827 -37.38359609842365 M -31.480677611239827 -37.38359609842365 L -30.433533392182014 -35.6796333686394 M -30.433533392182014 -35.6796333686394 L -13.393906094339487 -46.15107555921753 " />
    <!-- Tie -->
    <path d="M -15.947039153401867 -50.33334904372622 L -16.97709167237956 -52.04769784375138 M -16.97709167237956 -52.04769784375138 L -34.12057967263116 -41.74717265397443 M -34.12057967263116 -41.74717265397443 L -33.09052715365347 -40.03282385394927 M -33.09052715365347 -40.03282385394927 L -15.947039153401867 -50.33334904372622 " />
    <!-- Tie -->
    <path d="M -18.458222519071974 -54.54094432137366 L -19.471080333576026 -56.265507758188335 M -19.471080333576026 -56.265507758188335 L -36.71671470172287 -46.13692961314782 M -36.71671470172287 -46.13692961314782 L -35.70385688721882 -44.41236617633314 M -35.70385688721882 -44.41236617633314 L -18.458222519071974 -54.54094432137366 " />
    <!-- Tie -->
    <path d="M -20.927205075106155 -58.7734406361388 L -21.922766900199157 -60.50804625483645 M -21.922766900199157 -60.50804625483645 L -39.26882308717573 -50.5524280039064 M -39.26882308717573 -50.5524280039064 L -38.273261262082734 -48.81782238520875 M -38.273261262082734 -48.81782238520875 L -20.927205075106155 -58.7734406361388 " />
    <!-- Tie -->
    <path d="M -23.353739925305966 -63.03041474191683 L -24.331906205635043 -64.77488908338108 M -24.331906205635043 -64.77488908338108 L -41.77664962027766 -54.99322628009027 M -41.77664962027766 -54.99322628009027 L -40.79848333994858 -53.248751938626015 M -40.79848333994858 -53.248751938626015 L -23.353739925305966 -63.03041474191683 " />
    <!-- Tie -->
    <path d="M -25.737584418208844 -67.31144094484506 L -26.698257337961103 -69.0656095630955 M -26.698257337961103 -69.0656095630955 L -44.23994352046553 -59.458880365572895 M -44.23994352046553 -59.458880365572895 L -43.27927060071327 -57.704711747322456 M -43.27927060071327 -57.704711747322456 L -25.737584418208844 -67.31144094484506 " />
    <!-- Tie -->
    <path d="M -28.078500171351735 -71.61609114587029 L -29.021583664035756 -73.37977862550689 M -29.021583664035756 -73.37977862550689 L -46.658458460401775 -63.94894369866668 M -46.658458460401775 -63.94894369866668 L -45.71537496771775 -62.18525621903008 M -45.71537496771775 -62.18525621903008 L -28.078500171351735 -71.61609114587029 " />
    <!-- Tie -->
    <path d="M -30.376253095110325 -75.94393488356006 L -31.301652853162736 -77.71696485730459 M -31.301652853162736 -77.71696485730459 L -49.03195259060805 -68.46296727678045 M -49.03195259060805 -68.46296727678045 L -48.106552832555636 -66.68993730303592 M -48.106552832555636 -66.68993730303592 L -30.376253095110325 -75.94393488356006 " />
    <!-- Tie -->
    <path d="M -32.6306134161068 -80.29453937714666 L -33.53823690032296 -82.07673454347926 M -33.53823690032296 -82.07673454347926 L -51.36018856364902 -73.0004997013176 M -51.36018856364902 -73.0004997013176 L -50.45256507943286 -71.21830453498498 M -50.45256507943286 -71.21830453498498 L -32.6306134161068 -80.29453937714666 " />
    <!-- Tie -->
    <path d="M -34.8413557001879 -84.66746956980666 L -35.73111214897575 -86.45865171069586 M -35.73111214897575 -86.45865171069586 L -53.6429335578678 -77.56108722281738 M -53.6429335578678 -77.56108722281738 L -52.75317710907995 -75.76990508192817 M -52.75317710907995 -75.76990508192817 L -34.8413557001879 -84.66746956980666 " />
    <!-- Tie -->
    <path d="M -37.00825887496727 -89.06228817216443 L -37.880059313423374 -90.86227817088879 M -37.880059313423374 -90.86227817088879 L -55.87995930066701 -82.14427378632767 M -55.87995930066701 -82.14427378632767 L -55.008158862210905 -80.34428378760332 M -55.008158862210905 -80.34428378760332 L -37.00825887496727 -89.06228817216443 " />
    <!-- Tie -->
    <path d="M -39.13110625193342 -93.47855570602259 L -39.984863500740445 -95.28717356508221 M -39.984863500740445 -95.28717356508221 L -58.07104209133679 -86.74960107701195 M -58.07104209133679 -86.74960107701195 L -57.217284842529764 -84.94098321795232 M -57.217284842529764 -84.94098321795232 L -39.13110625193342 -93.47855570602259 " />
    <!-- Tie -->
    <path d="M -41.20968554811753 -97.91583054830745 L -42.04531423226205 -99.73289540742364 M -42.04531423226205 -99.73289540742364 L -60.215962823423816 -91.3766085659784 M -60.215962823423816 -91.3766085659784 L -59.38033413927929 -89.55954370686223 M -59.38033413927929 -89.55954370686223 L -41.20968554811753 -97.91583054830745 " />
    <!-- Tie -->
    <path d="M -43.243788907322134 -102.37366897523299 L -44.061205464632096 -104.198999129434 M -44.061205464632096 -104.198999129434 L -62.31450700664232 -96.02483355633439 M -62.31450700664232 -96.02483355633439 L -61.49709044933236 -94.19950340213337 M -61.49709044933236 -94.19950340213337 L -43.243788907322134 -102.37366897523299 " />
    <!-- Tie -->
    <path d="M -45.233212920906375 -106.85162520667089 L -46.03233561040722 -108.68503812446244 M -46.03233561040722 -108.68503812446244 L -64.36646478832274 -100.69381122945398 M -64.36646478832274 -100.69381122945398 L -63.56734209882191 -98.86039831166244 M -63.56734209882191 -98.86039831166244 L -45.233212920906375 -106.85162520667089 " />
    <!-- Tie -->
    <path d="M -47.17775864812694 -111.34925145073004 L -47.95850755821566 -113.19056379234817 M -47.95850755821566 -113.19056379234817 L -66.37163097439708 -105.38307469146105 M -66.37163097439708 -105.38307469146105 L -65.59088206430836 -103.54176234984291 M -65.59088206430836 -103.54176234984291 L -47.17775864812694 -111.34925145073004 " />
    <!-- Tie -->
    <path d="M -49.077231636031236 -115.86609794853369 L -49.83952869246743 -117.71512558427868 M -49.83952869246743 -117.71512558427868 L -68.32980504991734 -110.09215501991675 M -68.32980504991734 -110.09215501991675 L -67.56750799348116 -108.24312738417176 M -67.56750799348116 -108.24312738417176 L -49.077231636031236 -115.86609794853369 " />
    <!-- Tie -->
    <path d="M -50.93144193890364 -120.40171301919645 L -51.67521091261692 -122.25827104784557 M -51.67521091261692 -122.25827104784557 L -70.24079119910809 -114.82058131071278 M -70.24079119910809 -114.82058131071278 L -69.49702222539482 -112.96402328206366 M -69.49702222539482 -112.96402328206366 L -50.93144193890364 -120.40171301919645 " />
    <!-- Tie -->
    <path d="M -52.74020413725886 -124.95564310499057 L -53.465370651971654 -126.81954587228807 M -53.465370651971654 -126.81954587228807 L -72.1043983249467 -119.56788072516011 M -72.1043983249467 -119.56788072516011 L -71.3792318102339 -117.70397795786262 M -71.3792318102339 -117.70397795786262 L -52.74020413725886 -124.95564310499057 " />
    <!-- Tie -->
    <path d="M -54.50333735638441 -129.52743281670251 L -55.209828896049544 -131.3984939339249 M -55.209828896049544 -131.3984939339249 L -73.92044006827365 -124.33357853727348 M -73.92044006827365 -124.33357853727348 L -73.21394852860851 -122.46251742005107 M -73.21394852860851 -122.46251742005107 L -54.50333735638441 -129.52743281670251 " />
    <!-- Tie -->
    <path d="M -56.220665284427746 -134.11662497917118 L -56.90841120048001 -135.994657341766 M -56.90841120048001 -135.994657341766 L -75.68873482642807 -129.1171981812433 M -75.68873482642807 -129.1171981812433 L -75.00098891037581 -127.2391658186485 M -75.00098891037581 -127.2391658186485 L -56.220665284427746 -134.11662497917118 " />
    <!-- Tie -->
    <path d="M -57.892016190027064 -138.7227606770044 L -58.56094770844797 -140.60757648330036 M -58.56094770844797 -140.60757648330036 L -77.4091057714076 -133.9182612990913 M -77.4091057714076 -133.9182612990913 L -76.74017425298669 -132.03344549279535 M -76.74017425298669 -132.03344549279535 L -57.892016190027064 -138.7227606770044 " />
    <!-- Tie -->
    <path d="M -59.51722293948457 -143.34537930047068 L -60.16727316767971 -145.23679007045783 M -60.16727316767971 -145.23679007045783 L -79.08138086755137 -138.73628778850642 M -79.08138086755137 -138.73628778850642 L -78.43133063935623 -136.84487701851927 M -78.43133063935623 -136.84487701851927 L -59.51722293948457 -143.34537930047068 " />
    <!-- Tie -->
    <path d="M -61.09612301347964 -147.98401859155996 L -61.7272269469679 -149.8818351857375 M -61.7272269469679 -149.8818351857375 L -80.7053928887433 -143.57079585085484 M -80.7053928887433 -143.57079585085484 L -80.07428895525504 -141.6729792566773 M -80.07428895525504 -141.6729792566773 L -61.09612301347964 -147.98401859155996 " />
    <!-- Tie -->
    <path d="M -62.62855852332076 -152.63821469020894 L -63.24065305223472 -154.54224732849895 M -63.24065305223472 -154.54224732849895 L -82.28097943513477 -148.42130203935938 M -82.28097943513477 -148.42130203935938 L -81.66888490622081 -146.51726940106937 M -81.66888490622081 -146.51726940106937 L -62.62855852332076 -152.63821469020894 " />
    <!-- Tie -->
    <path d="M -64.11437622673381 -157.30750218068582 L -64.70740014213065 -159.21756046141113 M -64.70740014213065 -159.21756046141113 L -83.80798294938396 -153.28732130744274 M -83.80798294938396 -153.28732130744274 L -83.21495903398711 -151.37726302671743 M -83.21495903398711 -151.37726302671743 L -64.11437622673381 -157.30750218068582 " />
    <!-- Tie -->
    <path d="M -65.5534275431868 -161.99141413813297 L -66.12732154316916 -163.90730705705724 M -66.12732154316916 -163.90730705705724 L -85.28625073241209 -158.1683670572336 M -85.28625073241209 -158.1683670572336 L -84.71235673242973 -156.25247413830934 M -84.71235673242973 -156.25247413830934 L -65.5534275431868 -161.99141413813297 " />
    <!-- Tie -->
    <path d="M 31.139524895294155 -12.566465142186004 L 29.164869835994963 -12.249073590968692 M 29.164869835994963 -12.249073590968692 L 32.33878534816808 7.49747700202316 M 32.33878534816808 7.49747700202316 L 34.31344040746726 7.18008545080585 M 34.31344040746726 7.18008545080585 L 31.139524895294155 -12.566465142186004 " />
    <!-- Tie -->
    <path d="M 35.81514457911681 -13.403442103620321 L 33.84904052965052 -13.036788497784704 M 33.84904052965052 -13.036788497784704 L 37.5155765880067 6.624251996878186 M 37.5155765880067 6.624251996878186 L 39.48168063747299 6.257598391042569 M 39.48168063747299 6.257598391042569 L 35.81514457911681 -13.403442103620321 " />
    <!-- Tie -->
    <path d="M 40.46838096341081 -14.357035839759693 L 38.51205667480889 -13.941349325874329 M 38.51205667480889 -13.941349325874329 L 42.66892181366255 5.62189356014493 M 42.66892181366255 5.62189356014493 L 44.62524610226448 5.206207046259562 M 44.62524610226448 5.206207046259562 L 40.46838096341081 -14.357035839759693 " />
    <!-- Tie -->
    <path d="M 45.09632592690534 -15.426650385559899 L 43.15100403816705 -14.962190754164782 M 43.15100403816705 -14.962190754164782 L 47.79560035211823 4.491028133218126 M 47.79560035211823 4.491028133218126 L 49.74092224085651 4.026568501823009 M 49.74092224085651 4.026568501823009 L 45.09632592690534 -15.426650385559899 " />
    <!-- Tie -->
    <path d="M 49.69608715464437 -16.611617266747224 L 47.76298342862721 -16.09867478999316 M 47.76298342862721 -16.09867478999316 L 52.892408196167814 3.2323624701783924 M 52.892408196167814 3.2323624701783924 L 54.82551192218497 2.7194199934243333 M 54.82551192218497 2.7194199934243333 L 49.69608715464437 -16.611617266747224 " />
    <!-- Tie -->
    <path d="M 54.26478994558917 -17.911195917593282 L 52.34511250919666 -17.35009116783125 M 52.34511250919666 -17.35009116783125 L 57.95616000681698 1.8466831960937693 M 57.95616000681698 1.8466831960937693 L 59.87583744320948 1.2855784463317388 M 59.87583744320948 1.2855784463317388 L 54.26478994558917 -17.911195917593282 " />
    <!-- Tie -->
    <path d="M 58.79957900921319 -19.32457414374442 L 56.89452759835489 -18.715657793178273 M 56.89452759835489 -18.715657793178273 L 62.98369110401637 0.3348563154047408 M 62.98369110401637 0.3348563154047408 L 64.88874251487466 -0.27406003516140665 M 64.88874251487466 -0.27406003516140665 L 58.79957900921319 -19.32457414374442 " />
    <!-- Tie -->
    <path d="M 63.297620249965334 -20.850868629816688 L 61.40838545976092 -20.19452123134445 M 61.40838545976092 -20.19452123134445 L 67.97185944448334 -1.3021733293003006 M 67.97185944448334 -1.3021733293003006 L 69.86109423468776 -1.9585207277725445 M 69.86109423468776 -1.9585207277725445 L 63.297620249965334 -20.850868629816688 " />
    <!-- Tie -->
    <path d="M 67.75610253848772 -22.489125491439392 L 65.88386507918383 -21.785757240820068 M 65.88386507918383 -21.785757240820068 L 72.91754758537708 -3.063382647781099 M 72.91754758537708 -3.063382647781099 L 74.78978504468097 -3.7667508984004225 M 74.78978504468097 -3.7667508984004225 L 67.75610253848772 -22.489125491439392 " />
    <!-- Tie -->
    <path d="M 72.17223946847996 -24.238320871401555 L 70.31816942754469 -23.48837135089616 M 70.31816942754469 -23.48837135089616 L 77.8176646325986 -4.947670941543411 M 77.8176646325986 -4.947670941543411 L 79.67173467353388 -5.697620462048802 M 79.67173467353388 -5.697620462048802 L 72.17223946847996 -24.238320871401555 " />
    <!-- Tie -->
    <path d="M 76.54327109811214 -26.09736157952943 L 74.70852720896848 -25.301299483176372 M 74.70852720896848 -25.301299483176372 L 82.66914817249905 -6.9538605917398435 M 82.66914817249905 -6.9538605917398435 L 84.5038920616427 -7.7499226880929 M 84.5038920616427 -7.7499226880929 L 76.54327109811214 -26.09736157952943 " />
    <!-- Tie -->
    <path d="M 80.8664656748991 -28.06508577589488 L 79.05219459275429 -27.223408616591442 M 79.05219459275429 -27.223408616591442 L 87.46896618578867 -9.080697795143358 M 87.46896618578867 -9.080697795143358 L 89.28323726793349 -9.922374954446797 M 89.28323726793349 -9.922374954446797 L 80.8664656748991 -28.06508577589488 " />
    <!-- Tie -->
    <path d="M 85.13912134295629 -30.140263696927324 L 83.34645692817959 -29.253497495500298 M 83.34645692817959 -29.253497495500298 L 92.21411894244989 -11.326853347733332 M 92.21411894244989 -11.326853347733332 L 94.00678335722658 -12.213619549160361 M 94.00678335722658 -12.213619549160361 L 85.13912134295629 -30.140263696927324 " />
    <!-- Tie -->
    <path d="M 89.35856783157213 -32.32159842397608 L 87.58863044106904 -31.390297380435864 M 87.58863044106904 -31.390297380435864 L 96.9016408764712 -13.69092347540492 M 96.9016408764712 -13.69092347540492 L 98.6715782669743 -14.622224518945135 M 98.6715782669743 -14.622224518945135 L 89.35856783157213 -32.32159842397608 " />
    <!-- Tie -->
    <path d="M 93.52216812404028 -34.607726693842324 L 91.77606391106589 -33.63247284102597 M 91.77606391106589 -33.63247284102597 L 101.52860243922937 -16.1714307112822 M 101.52860243922937 -16.1714307112822 L 103.27470665220375 -17.14668456409855 M 103.27470665220375 -17.14668456409855 L 93.52216812404028 -34.607726693842324 " />
    <!-- Tie -->
    <path d="M 97.62732010570882 -36.997219750773944 L 95.90614032855812 -35.978622590593595 M 95.90614032855812 -35.978622590593595 L 106.09211193036164 -18.766824819086626 M 106.09211193036164 -18.766824819086626 L 107.81329170751233 -19.785421979266978 M 107.81329170751233 -19.785421979266978 L 97.62732010570882 -36.997219750773944 " />
    <!-- Tie -->
    <path d="M 101.67145819021778 -39.48858423939185 L 99.97627853022468 -38.42728036191584 M 99.97627853022468 -38.42728036191584 L 110.58931730498479 -21.475483761984666 M 110.58931730498479 -21.475483761984666 L 112.28449696497792 -22.536787639460677 M 112.28449696497792 -22.536787639460677 L 101.67145819021778 -39.48858423939185 " />
    <!-- Tie -->
    <path d="M 105.65205492290667 -42.080263137987934 L 103.98393481217815 -40.97691582359275 M 103.98393481217815 -40.97691582359275 L 115.01740795612997 -24.29571471630753 M 115.01740795612997 -24.29571471630753 L 116.6855280668585 -25.39906203070271 M 116.6855280668585 -25.39906203070271 L 105.65205492290667 -42.080263137987934 " />
    <!-- Tie -->
    <path d="M 109.56662256039158 -44.77063673161351 L 107.92660451969721 -43.625935536455145 M 107.92660451969721 -43.625935536455145 L 119.37361647128083 -27.225755129511388 M 119.37361647128083 -27.225755129511388 L 121.0136345119752 -28.37045632466975 M 121.0136345119752 -28.37045632466975 L 109.56662256039158 -44.77063673161351 " />
    <!-- Tie -->
    <path d="M 113.41271462532376 -47.558023624347854 L 111.80182361255407 -46.37268394941166 M 111.80182361255407 -46.37268394941166 L 123.65522036191607 -30.263773821714793 M 123.65522036191607 -30.263773821714793 L 125.26611137468575 -31.44911349665099 M 125.26611137468575 -31.44911349665099 L 113.41271462532376 -47.558023624347854 " />
    <!-- Tie -->
    <path d="M 117.18792743535836 -50.44068179011649 L 115.60717020495959 -49.21544443411482 M 115.60717020495959 -49.21544443411482 L 127.85954376497632 -33.407872130127 M 127.85954376497632 -33.407872130127 L 129.4403009953751 -34.63310948612867 M 129.4403009953751 -34.63310948612867 L 117.18792743535836 -50.44068179011649 " />
    <!-- Tie -->
    <path d="M 120.88990160537757 -53.4168096614003 L 119.34026607916283 -52.15244035779746 M 119.34026607916283 -52.15244035779746 L 131.98395911519128 -36.65608509564998 M 131.98395911519128 -36.65608509564998 L 133.533594641406 -37.92045439925282 M 133.533594641406 -37.92045439925282 L 120.88990160537757 -53.4168096614003 " />
    <!-- Tie -->
    <path d="M 124.5163235220296 -56.484547255156954 L 122.99877817175994 -55.1818361936107 M 122.99877817175994 -55.1818361936107 L 136.02588878722256 -40.006382690914265 M 136.02588878722256 -40.006382690914265 L 137.5434341374922 -41.30909375246053 M 137.5434341374922 -41.30909375246053 L 124.5163235220296 -56.484547255156954 " />
    <!-- Tie -->
    <path d="M 128.06492678966163 -59.64197733524949 L 126.58042003178277 -58.30173866776821 M 126.58042003178277 -58.30173866776821 L 139.98280670659562 -43.456671088979675 M 139.98280670659562 -43.456671088979675 L 141.46731346447447 -44.796909756460956 M 141.46731346447447 -44.796909756460956 L 128.06492678966163 -59.64197733524949 " />
    <!-- Tie -->
    <path d="M 131.53349364674347 -62.88712661065661 L 130.0829532496563 -61.51019794278082 M 130.0829532496563 -61.51019794278082 L 143.85223992841418 -47.00479397190911 M 143.85223992841418 -47.00479397190911 L 145.30278032550135 -48.3817226397849 M 145.30278032550135 -48.3817226397849 L 131.53349364674347 -62.88712661065661 " />
    <!-- Tie -->
    <path d="M 134.9198563518961 -66.21796696871534 L 133.50418885613166 -64.80520883604152 M 133.50418885613166 -64.80520883604152 L 147.63177018286996 -50.648533878397146 M 147.63177018286996 -50.648533878397146 L 149.0474376786344 -52.061292011070975 M 149.0474376786344 -52.061292011070975 L 134.9198563518961 -66.21796696871534 " />
    <!-- Tie -->
    <path d="M 138.22189853865973 -69.63241674262552 L 136.8419886903209 -68.1847120729993 M 136.8419886903209 -68.1847120729993 L 151.31903538658304 -54.38561358961115 M 151.31903538658304 -54.38561358961115 L 152.69894523492187 -55.83331825923736 M 152.69894523492187 -55.83331825923736 L 138.22189853865973 -69.63241674262552 " />
    <!-- Tie -->
    <path d="M 141.43755653815373 -73.12834201242354 L 140.09426673597775 -71.64659557413864 M 140.09426673597775 -71.64659557413864 L 154.91173111882676 -58.213697552378754 M 154.91173111882676 -58.213697552378754 L 156.25502092100277 -59.695443990663655 M 156.25502092100277 -59.695443990663655 L 141.43755653815373 -73.12834201242354 " />
    <!-- Tie -->
    <path d="M 144.56482066880258 -76.703557938613 L 143.25899042518984 -75.18869577496041 M 143.25899042518984 -75.18869577496041 L 158.40761206171575 -62.1303933388327 M 158.40761206171575 -62.1303933388327 L 159.7134423053285 -63.645255502485284 M 159.7134423053285 -63.645255502485284 L 144.56482066880258 -76.703557938613 " />
    <!-- Tie -->
    <path d="M 147.60173649232146 -80.3558301276184 L 146.33418190866757 -78.80879897813952 M 146.33418190866757 -78.80879897813952 L 161.80449340345646 -66.13325314160046 M 161.80449340345646 -66.13325314160046 L 163.07204798711035 -67.68028429107935 M 163.07204798711035 -67.68028429107935 L 147.60173649232146 -80.3558301276184 " />
    <!-- Tie -->
    <path d="M 150.5464060351766 -84.08287602820819 L 149.31791929183566 -82.5046427370134 M 149.31791929183566 -82.5046427370134 L 165.1002522037837 -70.21977530360401 M 165.1002522037837 -70.21977530360401 L 166.32873894712463 -71.7980085947988 M 166.32873894712463 -71.7980085947988 L 150.5464060351766 -84.08287602820819 " />
    <!-- Tie -->
    <path d="M 153.3969889747568 -87.8823663580151 L 152.20833783595447 -86.27391726953768 M 152.20833783595447 -86.27391726953768 L 168.29282872072875 -74.38740588151416 M 168.29282872072875 -74.38740588151416 L 169.48147985953108 -75.99585496999158 M 169.48147985953108 -75.99585496999158 L 153.3969889747568 -87.8823663580151 " />
    <!-- Tie -->
    <path d="M 156.15170378951535 -91.75192655926173 L 155.00363112352107 -90.1142669018247 M 155.00363112352107 -90.1142669018247 L 171.38022769789143 -78.63354024188189 M 171.38022769789143 -78.63354024188189 L 172.5283003638857 -80.27119989931892 M 172.5283003638857 -80.27119989931892 L 156.15170378951535 -91.75192655926173 " />
    <!-- Tie -->
    <path d="M 158.8088288723628 -95.6891382827819 L 157.70205218722145 -94.02329154036303 M 157.70205218722145 -94.02329154036303 L 174.36051961141013 -82.95552468894962 M 174.36051961141013 -82.95552468894962 L 175.46729629655147 -84.62137143136849 M 175.46729629655147 -84.62137143136849 L 158.8088288723628 -95.6891382827819 " />
    <!-- Rail 834600351 -->
    <path d="M 94.16636905521098 105.83363094478902 L 44.16636905521098 55.833630944789014 M 44.16636905521102 55.83363094478909 A 508.25 508.25 0 0 1 2.1760148693442147 8.23863104450237 " />
    <!-- Rail 471910020 -->
    <path d="M 1.4063021389061987 7.245228688850773 A 508.24999999999994 508.24999999999994 0 0 1 -9.390144557634926 -7.249999999999943 " />
    <!-- Rail 531885035 -->
    <path d="M -10.105853234440474 -8.249999999999943 A 508.24999999999994 508.24999999999994 0 0 1 -84.13770884649591 -160.46092388999605 " />
    <!-- Rail 1418481495 -->
    <path d="M -50.0 -8.25 L -10.10585323444053 -8.25 " />
    <!-- Rail 303563356 -->
    <path d="M -8.876567101504293 -8.25 L 5.051668046482832E-16 -8.25 M -1.858928381607597E-14 -8.25 A 191.75 191.75 0 0 0 8.93773340539737 -8.45841333649227 " />
    <!-- Rail 135721597 -->
    <path d="M 10.142127355238186 -8.518408841188744 A 191.75000000000003 191.75000000000003 0 0 0 161.35206133691415 -96.39703284978417 " />
    <!-- Rail 142257191 -->
    <path d="M 105.83363094478902 94.16636905521098 L 55.83363094478902 44.166369055210986 M 55.833630944789036 44.16636905521108 A 491.75 491.75 0 0 1 22.314656904569745 7.05100479647831 " />
    <!-- Rail 1044036744 -->
    <path d="M 21.562309417938877 6.125275773169221 A 491.74999999999994 491.74999999999994 0 0 1 10.865353858422793 -7.55648468828241 " />
    <!-- Rail 1826771953 -->
    <path d="M 10.142127355238074 -8.51840884118883 A 491.75000000000006 491.75000000000006 0 0 1 -68.30513995174698 -165.10632615385057 " />
    <!-- Rail 1406718218 -->
    <path d="M -50.0 8.25 L -5.051668046482832E-16 8.25 M -2.1242686188042423E-14 8.25 A 208.25 208.25 0 0 0 2.1760148693441597 8.238631044502398 " />
    <!-- Rail 245257410 -->
    <path d="M 3.4298817189974424 8.221752973587513 A 208.25000000000003 208.25000000000003 0 0 0 21.12683340741287 7.175576287784082 " />
    <!-- Rail 1705736037 -->
    <path d="M 22.314656904569837 7.051004796478395 A 208.24999999999997 208.24999999999997 0 0 0 175.2363325862444 -87.48204480295989 " />
    <!-- Rail 455659002 -->
    <path d="M -8.876567101504293 -8.25 A 507.25 507.25 0 0 1 -14.617701502709735 -16.437559899018083 " />
    <!-- Rail 250421012 -->
    <path d="M 27.511167006821267 14.872124370832978 A 492.75000000000006 492.75000000000006 0 0 1 21.126833407412846 7.175576287784054 " />
    <!-- Rail 1915318863 -->
    <path d="M -19.390144557634983 -7.25 L -9.390144557634983 -7.25 " />
    <!-- Rail 1283928880 -->
    <path d="M 21.562309417938856 6.12527577316925 A 207.25000000000003 207.25000000000003 0 0 0 31.479086439834585 4.845379779270189 " />
    <!-- Rail 295530567 -->
    <path d="M 94.23707973332964 105.76292026667036 L 44.23707973332964 55.76292026667036 M 44.23707973332972 55.76292026667039 A 508.15 508.15 0 0 1 2.22456099173246 8.138112387890317 " />
    <!-- Rail 2003749087 -->
    <path d="M 1.6088851128786246 7.343758017196194 A 508.15000000000003 508.15000000000003 0 0 1 -9.338815558705505 -7.349999999999966 " />
    <!-- Rail 1324119927 -->
    <path d="M -9.911552692124701 -8.150000000000091 A 508.15 508.15 0 0 1 -84.04175388349745 -160.48907784311032 " />
    <!-- Rail 990368553 -->
    <path d="M -50.0 -8.15 L -9.911552692124701 -8.150000000000034 " />
    <!-- Rail 1096979270 -->
    <path d="M -8.9279536224347 -8.150000000000034 L 4.990435706525465E-16 -8.15 M -1.8605365042572738E-14 -8.150000000000006 A 191.85 191.85 0 0 0 9.130705540774409 -8.367401738828192 " />
    <!-- Rail 1078694789 -->
    <path d="M 10.094134498202237 -8.41573407836384 A 191.85 191.85 0 0 0 161.43620843539492 -96.34300261919736 " />
    <!-- Rail 1831932724 -->
    <path d="M 105.76292026667036 94.23707973332964 L 55.76292026667036 44.23707973332964 M 55.76292026667039 44.23707973332972 A 491.85 491.85 0 0 1 22.120730842427747 6.971243816615413 " />
    <!-- Rail 1747585824 -->
    <path d="M 21.51877778212389 6.230368042060206 A 491.85 491.85 0 0 1 10.672800700057905 -7.64586350895172 " />
    <!-- Rail 1023892928 -->
    <path d="M 10.094134498202266 -8.415734078363926 A 491.84999999999997 491.84999999999997 0 0 1 -68.40109491474539 -165.07817220073633 " />
    <!-- Rail 558638686 -->
    <path d="M -50.0 8.15 L -4.990435706525465E-16 8.15 M -2.1226604961545657E-14 8.150000000000006 A 208.15 208.15 0 0 0 2.2245609917323694 8.138112387890317 " />
    <!-- Rail 1149319664 -->
    <path d="M 3.227747488337752 8.124972423184971 A 208.14999999999995 208.14999999999995 0 0 0 21.170396917292543 7.070608233916857 " />
    <!-- Rail 2093631819 -->
    <path d="M 22.120730842427722 6.971243816615498 A 208.15000000000006 208.15000000000006 0 0 0 175.1521854877637 -87.53607503354665 " />
    <!-- Rail 2074407503 -->
    <path d="M -8.927953622434757 -8.150000000000091 A 507.35 507.35 0 0 1 -14.70014035773113 -16.38095746812712 " />
    <!-- Rail 999966131 -->
    <path d="M 105.19723484172113 94.80276515827887 L 55.19723484172113 44.80276515827887 M 55.19723484172118 44.80276515827893 A 492.65 492.65 0 0 1 27.587482019218385 14.807502247045193 " />
    <!-- Rail 1989780873 -->
    <path d="M -50.0 -7.35 L -19.390144557634997 -7.3500000000000165 " />
    <!-- Rail 1480010240 -->
    <path d="M 21.518777782123912 6.230368042060206 A 207.35000000000008 207.35000000000008 0 0 0 31.494275383834513 4.944219528259026 " />
    <!-- Rail 81628611 -->
    <path d="M 93.95423702085502 106.04576297914498 L 43.95423702085502 56.04576297914498 M 43.95423702085503 56.04576297914508 A 508.55 508.55 0 0 1 2.0303583802451612 8.540116392141101 " />
    <!-- Rail 1828972342 -->
    <path d="M 0.7982503677174009 6.948460483160943 A 508.55 508.55 0 0 1 -9.544093287436738 -6.949999999999989 " />
    <!-- Rail 1452126962 -->
    <path d="M -10.68820804026808 -8.550000000000125 A 508.54999999999995 508.54999999999995 0 0 1 -84.42557373549135 -160.37646203065324 " />
    <!-- Rail 931919113 -->
    <path d="M -50.0 -8.55 L -10.688208040268023 -8.550000000000011 " />
    <!-- Rail 1607521710 -->
    <path d="M -8.722369109467365 -8.550000000000011 L 5.235365066354935E-16 -8.55 M -1.8541040136585672E-14 -8.550000000000011 A 191.45 191.45 0 0 0 8.358534238767225 -8.732550063061296 " />
    <!-- Rail 764977973 -->
    <path d="M 10.28608332271056 -8.826521217303195 A 191.44999999999993 191.44999999999993 0 0 0 161.0996200414717 -96.55912354154465 " />
    <!-- Rail 381259350 -->
    <path d="M 106.04576297914498 93.95423702085502 L 56.04576297914498 43.95423702085502 M 56.045762979145024 43.95423702085509 A 491.45 491.45 0 0 1 22.89618974276749 7.289331600213245 " />
    <!-- Rail 2129789493 -->
    <path d="M 21.692882915468203 5.809915530850503 A 491.45000000000005 491.45000000000005 0 0 1 11.44273739142352 -7.289423588141005 " />
    <!-- Rail 668386784 -->
    <path d="M 10.286083322710624 -8.826521217303082 A 491.45 491.45 0 0 1 -68.01727506275148 -165.1907880131934 " />
    <!-- Rail 1329552164 -->
    <path d="M -50.0 8.55 L -5.235365066354935E-16 8.55 M -2.1290929867532722E-14 8.550000000000011 A 208.55 208.55 0 0 0 2.0303583802451493 8.54011639214113 " />
    <!-- Rail 363771819 -->
    <path d="M 4.035988864525299 8.51094286364318 A 208.5500000000001 208.5500000000001 0 0 0 20.99612178752394 7.490398259494185 " />
    <!-- Rail 2065951873 -->
    <path d="M 22.89618974276754 7.289331600213245 A 208.54999999999995 208.54999999999995 0 0 0 175.48877388168677 -87.31995411119945 " />
    <!-- Rail 1791741888 -->
    <path d="M -8.722369109467365 -8.549999999999955 A 506.95 506.95 0 0 1 -14.370384937645554 -16.607367191690855 " />
    <!-- Rail 1595428806 -->
    <path d="M 104.91439212924651 95.08560787075349 L 54.91439212924651 45.08560787075349 M 54.91439212924655 45.08560787075356 A 493.05 493.05 0 0 1 27.282221969630143 15.065990742196163 " />
    <!-- Rail 1072408673 -->
    <path d="M -50.0 -6.95 L -19.390144557634997 -6.949999999999991 " />
    <!-- Rail 1531448569 -->
    <path d="M 21.692882915468157 5.809915530850446 A 206.95000000000002 206.95000000000002 0 0 0 31.433519607834825 4.548860532303792 " />
    <!-- Rail 1867083167 -->
    <path d="M 93.88352634273636 106.11647365726364 L 43.88352634273636 56.11647365726363 M 43.883526342736445 56.11647365726367 A 508.65 508.65 0 0 1 1.9818001892808184 8.640588016832908 " />
    <!-- Rail 1915910607 -->
    <path d="M 0.5954651262008497 6.849142906813768 A 508.65000000000003 508.65000000000003 0 0 1 -9.595396782963519 -6.850000000000023 " />
    <!-- Rail 284720968 -->
    <path d="M -10.882144462048132 -8.64999999999992 A 508.65 508.65 0 0 1 -84.52152869848987 -160.34830807753897 " />
    <!-- Rail 189568618 -->
    <path d="M -50.0 -8.65 L -10.882144462048188 -8.650000000000034 " />
    <!-- Rail 793589513 -->
    <path d="M -8.670956961053776 -8.650000000000034 L 5.296597406312303E-16 -8.65 M -1.8524958910088906E-14 -8.650000000000006 A 191.35 191.35 0 0 0 8.165373252773577 -8.824297622205961 " />
    <!-- Rail 1313922862 -->
    <path d="M 10.33406109307812 -8.92925477372387 A 191.35 191.35 0 0 0 161.01547294299098 -96.61315377213144 " />
    <!-- Rail 495053715 -->
    <path d="M 106.11647365726364 93.88352634273636 L 56.11647365726364 43.88352634273637 M 56.11647365726367 43.883526342736445 A 491.35 491.35 0 0 1 23.08995248708686 7.368456121330269 " />
    <!-- Rail 1922154895 -->
    <path d="M 21.73640026213866 5.704767576359529 A 491.35 491.35 0 0 1 11.635106913513368 -7.200760408369035 " />
    <!-- Rail 883049899 -->
    <path d="M 10.334061093078105 -8.92925477372387 A 491.35 491.35 0 0 1 -67.92132009975302 -165.21894196630768 " />
    <!-- Rail 2093176254 -->
    <path d="M -50.0 8.65 L -5.296597406312303E-16 8.65 M -2.130701109402949E-14 8.650000000000006 A 208.65 208.65 0 0 0 1.9818001892807746 8.640588016832822 " />
    <!-- Rail 1854731462 -->
    <path d="M 4.237926412436473 8.606956930306723 A 208.65000000000015 208.65000000000015 0 0 0 20.952544232952377 7.595311580406928 " />
    <!-- Rail 317574433 -->
    <path d="M 23.08995248708688 7.368456121330354 A 208.6500000000001 208.6500000000001 0 0 0 175.57292098016765 -87.26592388061256 " />
    <!-- Rail 885284298 -->
    <path d="M -8.670956961053776 -8.650000000000034 A 506.84999999999997 506.84999999999997 0 0 1 -14.28794608262416 -16.663969622581817 " />
    <!-- Rail 1389133897 -->
    <path d="M 104.84368145112785 95.15631854887215 L 54.84368145112785 45.15631854887215 M 54.84368145112791 45.15631854887221 A 493.15 493.15 0 0 1 27.20590695723314 15.130612865983892 " />
    <!-- Rail 1534030866 -->
    <path d="M -50.0 -6.85 L -19.390144557634997 -6.8500000000000165 " />
    <!-- Rail 664223387 -->
    <path d="M 21.736400262138602 5.704767576359444 A 206.8499999999999 206.8499999999999 0 0 0 31.418330663834887 4.450020783314898 " />
</g>
</svg>
