<?xml version="1.0"?>
<!DOCTYPE svg PUBLIC "-//W3C//DTD SVG 1.1//EN"
  "http://www.w3.org/Graphics/SVG/1.1/DTD/svg11.dtd">

<svg version="1.1" xmlns="http://www.w3.org/2000/svg" transform="scale(1,-1)" width="182.56898973144214mm" height="162.8940229763207mm" viewBox="-56.65776041000728 -48.548964204233876 182.56898973144214 162.8940229763207" >
    <g stroke="black" stroke-width="0.1" fill="none" >
    <!-- Tie -->
    <path d="M 9.11046548051258 13.619151589153452 L 10.729314406065434 14.793599611092429 M 10.729314406065434 14.793599611092429 L 24.895569123113198 -4.733042521557373 M 24.895569123113198 -4.733042521557373 L 23.276720197560344 -5.907490543496346 M 23.276720197560344 -5.907490543496346 L 9.11046548051258 13.619151589153452 " />
    <!-- Tie -->
    <path d="M 11.651935056003294 17.870078164097848 L 13.270783981556129 19.044526186036855 M 13.270783981556129 19.044526186036855 L 29.72532383055136 -3.6362682445536514 M 29.72532383055136 -3.6362682445536514 L 28.106474904998528 -4.810716266492655 M 28.106474904998528 -4.810716266492655 L 11.651935056003294 17.870078164097848 " />
    <!-- Tie -->
    <path d="M 14.296162430885843 22.064858731870046 L 15.915011356438677 23.239306753809057 M 15.915011356438677 23.239306753809057 L 34.533594066323644 -2.424385510282507 M 34.533594066323644 -2.424385510282507 L 32.914745140770805 -3.5988335322215157 M 32.914745140770805 -3.5988335322215157 L 14.296162430885843 22.064858731870046 " />
    <!-- Tie -->
    <path d="M 17.04174917739232 26.200521402969475 L 18.66059810294515 27.374969424908482 M 18.66059810294515 27.374969424908482 L 39.317120689780765 -1.097801417812807 M 39.317120689780765 -1.097801417812807 L 37.69827176422793 -2.272249439751816 M 37.69827176422793 -2.272249439751816 L 17.04174917739232 26.200521402969475 " />
    <!-- Tie -->
    <path d="M 19.887210120627394 30.27416349014227 L 21.506059046180226 31.44861151208129 M 21.506059046180226 31.44861151208129 L 44.07268342504505 0.34297299368578926 M 44.07268342504505 0.34297299368578926 L 42.45383449949222 -0.8314750282532231 M 42.45383449949222 -0.8314750282532231 L 19.887210120627394 30.27416349014227 " />
    <!-- Tie -->
    <path d="M 5.295029781549937 11.214589311778314 L 6.913878707102795 12.389037333717278 M 6.913878707102795 12.389037333717278 L 21.425660642106564 -7.61387650707859 M 21.425660642106564 -7.61387650707859 L 19.806811716553703 -8.788324529017554 M 19.806811716553703 -8.788324529017554 L 5.295029781549937 11.214589311778314 " />
    <!-- Tie -->
    <path d="M 0.2610960756246392 10.584724142275443 L 1.8799450011774734 11.75917216421445 M 1.8799450011774734 11.75917216421445 L 19.264683373985733 -12.203799810801838 M 19.264683373985733 -12.203799810801838 L 17.645834448432904 -13.378247832740843 M 17.645834448432904 -13.378247832740843 L 0.2610960756246392 10.584724142275443 " />
    <!-- Tie -->
    <path d="M -4.797468118597642 10.088669615774071 L -3.1786191930448044 11.26311763771308 M -3.1786191930448044 11.26311763771308 L 17.223266385239874 -16.858663769972942 M 17.223266385239874 -16.858663769972942 L 15.604417459687038 -18.03311179191195 M 15.604417459687038 -18.03311179191195 L -4.797468118597642 10.088669615774071 " />
    <!-- Tie -->
    <path d="M 39.58331491613553 22.798647298627483 L 38.3894442405029 21.194068596953905 M 38.3894442405029 21.194068596953905 L 22.343657223767075 33.13277535328024 M 22.343657223767075 33.13277535328024 L 23.537527899399706 34.73735405495382 M 23.537527899399706 34.73735405495382 L 39.58331491613553 22.798647298627483 " />
    <!-- Tie -->
    <path d="M 42.485964482545235 26.558511040353117 L 41.252356582985605 24.984277401357918 M 41.252356582985605 24.984277401357918 L 25.51002019303359 37.32035639695423 M 25.51002019303359 37.32035639695423 L 26.74362809259322 38.89459003594943 M 26.74362809259322 38.89459003594943 L 42.485964482545235 26.558511040353117 " />
    <!-- Tie -->
    <path d="M 45.48169382074548 30.244641205440775 L 44.2091196620404 28.701736473904813 M 44.2091196620404 28.701736473904813 L 28.780072346680754 41.42747806095557 M 28.780072346680754 41.42747806095557 L 30.05264650538583 42.970382792491534 M 30.05264650538583 42.970382792491534 L 45.48169382074548 30.244641205440775 " />
    <!-- Tie -->
    <path d="M 48.56863069741491 33.854734082525816 L 47.2578855969895 32.34412252368258 M 47.2578855969895 32.34412252368258 L 32.15177000855715 45.451573527936645 M 32.15177000855715 45.451573527936645 L 33.46251510898255 46.96218508677988 M 33.46251510898255 46.96218508677988 L 48.56863069741491 33.854734082525816 " />
    <!-- Tie -->
    <path d="M 51.74484587748981 37.386533481073705 L 50.39674900836524 35.90915917797495 M 50.39674900836524 35.90915917797495 L 35.62300597737766 49.39012786922061 M 35.62300597737766 49.39012786922061 L 36.97110284650222 50.86750217231937 M 36.97110284650222 50.86750217231937 L 51.74484587748981 37.386533481073705 " />
    <!-- Tie -->
    <path d="M 55.008354329872944 40.83783214142545 L 53.62374820870997 39.394618404919996 M 53.62374820870997 39.394618404919996 L 39.191610843655425 53.2406796165497 M 39.191610843655425 53.2406796165497 L 40.5762169648184 54.683893353055154 M 40.5762169648184 54.683893353055154 L 55.008354329872944 40.83783214142545 " />
    <!-- Tie -->
    <path d="M 58.38311799496128 44.24098237123031 L 56.96890443258819 42.82676880885721 M 56.96890443258819 42.82676880885721 L 42.82676880885724 56.96890443258816 M 42.82676880885724 56.96890443258816 L 44.24098237123033 58.38311799496125 M 44.24098237123033 58.38311799496125 L 58.38311799496128 44.24098237123031 " />
    <!-- Tie -->
    <path d="M 61.91865190089402 47.77651627716304 L 60.50443833852092 46.36230271478994 M 60.50443833852092 46.36230271478994 L 46.36230271478997 60.50443833852089 M 46.36230271478997 60.50443833852089 L 47.77651627716306 61.918651900893984 M 47.77651627716306 61.918651900893984 L 61.91865190089402 47.77651627716304 " />
    <!-- Tie -->
    <path d="M 65.45418580682676 51.31205018309578 L 64.03997224445365 49.89783662072268 M 64.03997224445365 49.89783662072268 L 49.89783662072271 64.03997224445362 M 49.89783662072271 64.03997224445362 L 51.3120501830958 65.45418580682673 M 51.3120501830958 65.45418580682673 L 65.45418580682676 51.31205018309578 " />
    <!-- Tie -->
    <path d="M 68.9897197127595 54.847584089028516 L 67.57550615038639 53.433370526655416 M 67.57550615038639 53.433370526655416 L 53.433370526655445 67.57550615038636 M 53.433370526655445 67.57550615038636 L 54.84758408902854 68.98971971275947 M 54.84758408902854 68.98971971275947 L 68.9897197127595 54.847584089028516 " />
    <!-- Tie -->
    <path d="M 72.52525361869223 58.38311799496125 L 71.11104005631913 56.968904432588154 M 71.11104005631913 56.968904432588154 L 56.96890443258818 71.1110400563191 M 56.96890443258818 71.1110400563191 L 58.383117994961275 72.5252536186922 M 58.383117994961275 72.5252536186922 L 72.52525361869223 58.38311799496125 " />
    <!-- Tie -->
    <path d="M 76.06078752462497 61.91865190089399 L 74.64657396225186 60.50443833852089 M 74.64657396225186 60.50443833852089 L 60.50443833852092 74.64657396225184 M 60.50443833852092 74.64657396225184 L 61.91865190089401 76.06078752462494 M 61.91865190089401 76.06078752462494 L 76.06078752462497 61.91865190089399 " />
    <!-- Tie -->
    <path d="M 79.59632143055771 65.45418580682673 L 78.1821078681846 64.03997224445362 M 78.1821078681846 64.03997224445362 L 64.03997224445365 78.18210786818457 M 64.03997224445365 78.18210786818457 L 65.45418580682676 79.59632143055768 M 65.45418580682676 79.59632143055768 L 79.59632143055771 65.45418580682673 " />
    <!-- Tie -->
    <path d="M 83.13185533649045 68.98971971275947 L 81.71764177411734 67.57550615038636 M 81.71764177411734 67.57550615038636 L 67.57550615038639 81.71764177411731 M 67.57550615038639 81.71764177411731 L 68.9897197127595 83.13185533649042 M 68.9897197127595 83.13185533649042 L 83.13185533649045 68.98971971275947 " />
    <!-- Tie -->
    <path d="M 86.66738924242318 72.5252536186922 L 85.25317568005008 71.1110400563191 M 85.25317568005008 71.1110400563191 L 71.11104005631913 85.25317568005005 M 71.11104005631913 85.25317568005005 L 72.52525361869223 86.66738924242316 M 72.52525361869223 86.66738924242316 L 86.66738924242318 72.5252536186922 " />
    <!-- Tie -->
    <path d="M 90.20292314835592 76.06078752462494 L 88.78870958598282 74.64657396225184 M 88.78870958598282 74.64657396225184 L 74.64657396225186 88.78870958598279 M 74.64657396225186 88.78870958598279 L 76.06078752462497 90.2029231483559 M 76.06078752462497 90.2029231483559 L 90.20292314835592 76.06078752462494 " />
    <!-- Tie -->
    <path d="M 93.73845705428866 79.59632143055768 L 92.32424349191555 78.18210786818457 M 92.32424349191555 78.18210786818457 L 78.1821078681846 92.32424349191552 M 78.1821078681846 92.32424349191552 L 79.59632143055771 93.73845705428863 M 79.59632143055771 93.73845705428863 L 93.73845705428866 79.59632143055768 " />
    <!-- Tie -->
    <path d="M 97.2739909602214 83.13185533649042 L 95.85977739784829 81.71764177411731 M 95.85977739784829 81.71764177411731 L 81.71764177411734 95.85977739784826 M 81.71764177411734 95.85977739784826 L 83.13185533649045 97.27399096022137 M 83.13185533649045 97.27399096022137 L 97.2739909602214 83.13185533649042 " />
    <!-- Tie -->
    <path d="M 100.80952486615413 86.66738924242316 L 99.39531130378103 85.25317568005005 M 99.39531130378103 85.25317568005005 L 85.25317568005008 99.395311303781 M 85.25317568005008 99.395311303781 L 86.66738924242318 100.8095248661541 M 86.66738924242318 100.8095248661541 L 100.80952486615413 86.66738924242316 " />
    <!-- Tie -->
    <path d="M 104.34505877208687 90.2029231483559 L 102.93084520971377 88.78870958598279 M 102.93084520971377 88.78870958598279 L 88.78870958598282 102.93084520971374 M 88.78870958598282 102.93084520971374 L 90.20292314835592 104.34505877208684 M 90.20292314835592 104.34505877208684 L 104.34505877208687 90.2029231483559 " />
    <!-- Tie -->
    <path d="M -7.383977101453373 10.41667803779957 L -5.389117393970505 10.559977540455233 M -5.389117393970505 10.559977540455233 L -3.956122367413869 -9.388619534373461 M -3.956122367413869 -9.388619534373461 L -5.9509820748967375 -9.531919037029123 M -5.9509820748967375 -9.531919037029123 L -7.383977101453373 10.41667803779957 " />
    <!-- Tie -->
    <path d="M -12.127008761190062 10.16055202104696 L -10.129190300495774 10.253940447038087 M -10.129190300495774 10.253940447038087 L -9.195306040584503 -9.724244159904806 M -9.195306040584503 -9.724244159904806 L -11.193124501278792 -9.817632585895932 M -11.193124501278792 -9.817632585895932 L -12.127008761190062 10.16055202104696 " />
    <!-- Tie -->
    <path d="M -16.874960784174032 10.023069479740368 L -14.875432141774459 10.066488464340638 M -14.875432141774459 10.066488464340638 L -14.44124229577175 -9.928797959655096 M -14.44124229577175 -9.928797959655096 L -16.440770938171323 -9.972216944255367 M -16.440770938171323 -9.972216944255367 L -16.874960784174032 10.023069479740368 " />
    <!-- Tie -->
    <path d="M -21.657760410007274 10.0 L -19.657760410007278 10.0 M -19.657760410007278 10.0 L -19.65776041000728 -10.0 M -19.65776041000728 -10.0 L -21.65776041000728 -10.0 M -21.65776041000728 -10.0 L -21.657760410007274 10.0 " />
    <!-- Tie -->
    <path d="M -26.657760410007274 10.0 L -24.657760410007278 10.0 M -24.657760410007278 10.0 L -24.65776041000728 -10.0 M -24.65776041000728 -10.0 L -26.65776041000728 -10.0 M -26.65776041000728 -10.0 L -26.657760410007274 10.0 " />
    <!-- Tie -->
    <path d="M -31.657760410007274 10.000000000000002 L -29.657760410007278 10.000000000000002 M -29.657760410007278 10.000000000000002 L -29.65776041000728 -9.999999999999998 M -29.65776041000728 -9.999999999999998 L -31.65776041000728 -9.999999999999998 M -31.65776041000728 -9.999999999999998 L -31.657760410007274 10.000000000000002 " />
    <!-- Tie -->
    <path d="M -36.65776041000728 10.000000000000002 L -34.65776041000728 10.000000000000002 M -34.65776041000728 10.000000000000002 L -34.65776041000728 -9.999999999999998 M -34.65776041000728 -9.999999999999998 L -36.65776041000728 -9.999999999999998 M -36.65776041000728 -9.999999999999998 L -36.65776041000728 10.000000000000002 " />
    <!-- Tie -->
    <path d="M -41.65776041000728 10.000000000000002 L -39.65776041000728 10.000000000000002 M -39.65776041000728 10.000000000000002 L -39.65776041000728 -9.999999999999998 M -39.65776041000728 -9.999999999999998 L -41.65776041000728 -9.999999999999998 M -41.65776041000728 -9.999999999999998 L -41.65776041000728 10.000000000000002 " />
    <!-- Tie -->
    <path d="M -46.65776041000728 10.000000000000004 L -44.65776041000728 10.000000000000004 M -44.65776041000728 10.000000000000004 L -44.65776041000728 -9.999999999999996 M -44.65776041000728 -9.999999999999996 L -46.65776041000728 -9.999999999999996 M -46.65776041000728 -9.999999999999996 L -46.65776041000728 10.000000000000004 " />
    <!-- Tie -->
    <path d="M 15.868845455677956 -18.741813322778597 L 15.113544458864615 -20.593709757305312 M 15.113544458864615 -20.593709757305312 L -3.4054198864025693 -13.040699789171896 M -3.4054198864025693 -13.040699789171896 L -2.650118889589228 -11.18880335464518 M -2.650118889589228 -11.18880335464518 L 15.868845455677956 -18.741813322778597 " />
    <!-- Tie -->
    <path d="M 14.106903448921914 -23.15288011285898 L 13.398131059743932 -25.02307841794294 M 13.398131059743932 -25.02307841794294 L -5.303851991095714 -17.935354526163113 M -5.303851991095714 -17.935354526163113 L -4.595079601917734 -16.06515622107915 M -4.595079601917734 -16.06515622107915 L 14.106903448921914 -23.15288011285898 " />
    <!-- Tie -->
    <path d="M 12.455777203323985 -27.606612478282422 L 11.793976381453058 -29.49394384086053 M 11.793976381453058 -29.49394384086053 L -7.079337244328096 -22.875935622151268 M -7.079337244328096 -22.875935622151268 L -6.41753642245717 -20.988604259573158 M -6.41753642245717 -20.988604259573158 L 12.455777203323985 -27.606612478282422 " />
    <!-- Tie -->
    <path d="M 10.916498619041247 -32.10022698129559 L 10.302082968448504 -34.00351188070153 M 10.302082968448504 -34.00351188070153 L -8.730766025610933 -27.859355374774072 M -8.730766025610933 -27.859355374774072 L -8.116350375018188 -25.956070475368133 M -8.116350375018188 -25.956070475368133 L 10.916498619041247 -32.10022698129559 " />
    <!-- Tie -->
    <path d="M 9.490029695083201 -36.63091525910764 L 8.923383205550165 -38.548964204233876 M 8.923383205550165 -38.548964204233876 L -10.257106245712244 -32.882499308903505 M -10.257106245712244 -32.882499308903505 L -9.690459756179207 -30.964450363777267 M -9.690459756179207 -30.964450363777267 L 9.490029695083201 -36.63091525910764 " />
    <!-- Tie -->
    <path d="M 39.563959384244434 19.57512715129302 L 41.459816112970515 20.212094390752046 M 41.459816112970515 20.212094390752046 L 47.82948850756077 1.2535271034912618 M 47.82948850756077 1.2535271034912618 L 45.933631778834695 0.6165598640322365 M 45.933631778834695 0.6165598640322365 L 39.563959384244434 19.57512715129302 " />
    <!-- Tie -->
    <path d="M 44.055498595842934 21.12045086249249 L 45.934840377928225 21.80461054130181 M 45.934840377928225 21.80461054130181 L 52.77643716602144 3.011192720448877 M 52.77643716602144 3.011192720448877 L 50.89709538393615 2.327033041639556 M 50.89709538393615 2.327033041639556 L 44.055498595842934 21.12045086249249 " />
    <!-- Tie -->
    <path d="M 48.507005205915476 22.7775684691222 L 50.3686575139214 23.508493009752918 M 50.3686575139214 23.508493009752918 L 57.6779029202286 4.891969929693715 M 57.6779029202286 4.891969929693715 L 55.81625061222268 4.161045389062995 M 55.81625061222268 4.161045389062995 L 48.507005205915476 22.7775684691222 " />
    <!-- Tie -->
    <path d="M 52.91569716773364 24.54544432661956 L 54.75849652956708 25.3226769250264 M 54.75849652956708 25.3226769250264 L 62.53082251363554 6.894683306691977 M 62.53082251363554 6.894683306691977 L 60.6880231518021 6.117450708285132 M 60.6880231518021 6.117450708285132 L 52.91569716773364 24.54544432661956 " />
    <!-- Tie -->
    <path d="M 57.27881919233033 26.422973570120398 L 59.101613918375854 27.246028481229374 M 59.101613918375854 27.246028481229374 L 67.33216302946565 9.018081220774102 M 67.33216302946565 9.018081220774102 L 65.50936830342012 8.195026309665122 M 65.50936830342012 8.195026309665122 L 57.27881919233033 26.422973570120398 " />
    <!-- Tie -->
    <path d="M 61.593644470465975 28.40898280496383 L 63.395295373354344 29.2773456462471 M 63.395295373354344 29.2773456462471 L 72.07892378618699 11.260836617363461 M 72.07892378618699 11.260836617363461 L 70.27727288329862 10.392473776080196 M 70.27727288329862 10.392473776080196 L 61.593644470465975 28.40898280496383 " />
    <!-- Tie -->
    <path d="M 65.85747637679542 30.502230840025426 L 67.63685748335857 31.415358912973605 M 67.63685748335857 31.415358912973605 L 76.76813821284036 13.621547847341978 M 76.76813821284036 13.621547847341978 L 74.98875710627719 12.7084197743938 M 74.98875710627719 12.7084197743938 L 65.85747637679542 30.502230840025426 " />
    <!-- Tie -->
    <path d="M 70.0676501551708 32.70140946342147 L 71.82364941013851 33.65873209271257 M 71.82364941013851 33.65873209271257 L 81.39687570304953 16.09873954303541 M 81.39687570304953 16.09873954303541 L 79.64087644808181 15.14141691374431 M 79.64087644808181 15.14141691374431 L 70.0676501551708 32.70140946342147 " />
    <!-- Tie -->
    <path d="M 74.22153458402781 35.00514426009865 L 75.95305454502596 36.00606315025156 M 75.95305454502596 36.00606315025156 L 85.9622434465551 18.690863540269994 M 85.9622434465551 18.690863540269994 L 84.23072348555695 17.689944650117084 M 84.23072348555695 17.689944650117084 L 74.22153458402781 35.00514426009865 " />
    <!-- Tie -->
    <path d="M 78.31653362081313 37.41199547079887 L 80.02249214422952 38.455885080088564 M 80.02249214422952 38.455885080088564 L 90.46138823712649 21.396299845924744 M 90.46138823712649 21.396299845924744 L 88.7554297137101 20.352410236635052 M 88.7554297137101 20.352410236635052 L 78.31653362081313 37.41199547079887 " />
    <!-- Tie -->
    <path d="M 82.35008802442675 39.92045889186183 L 84.02941894171558 41.00666682326258 M 84.02941894171558 41.00666682326258 L 94.89149825572306 24.213357650374387 M 94.89149825572306 24.213357650374387 L 93.21216733843424 23.12714971897364 M 93.21216733843424 23.12714971897364 L 82.35008802442675 39.92045889186183 " />
    <!-- Tie -->
    <path d="M 86.31967695466432 42.52896681530339 L 87.97133073866685 43.65681422421566 M 87.97133073866685 43.65681422421566 L 99.24980482778955 27.140276384190344 M 99.24980482778955 27.140276384190344 L 97.59815104378701 26.012428975278077 M 97.59815104378701 26.012428975278077 L 86.31967695466432 42.52896681530339 " />
    <!-- Tie -->
    <path d="M 90.22281954766008 45.23588900858196 L 91.84576396852498 46.40467102708819 M 91.84576396852498 46.40467102708819 L 103.53358415358734 30.17522681843925 M 103.53358415358734 30.17522681843925 L 101.91063973272244 29.006444799933014 M 101.91063973272244 29.006444799933014 L 90.22281954766008 45.23588900858196 " />
    <!-- Tie -->
    <path d="M 94.05707646634622 48.03953373344088 L 95.65029723663955 49.24851991082501 M 95.65029723663955 49.24851991082501 L 107.74015901048091 33.31631220789164 M 107.74015901048091 33.31631220789164 L 106.14693824018757 32.1073260305075 M 106.14693824018757 32.1073260305075 L 94.05707646634622 48.03953373344088 " />
    <!-- Tie -->
    <path d="M 97.820051424959 50.9381488031897 L 99.38255283356092 52.186583562445065 M 99.38255283356092 52.186583562445065 L 111.86690042611461 36.56156947642584 M 111.86690042611461 36.56156947642584 L 110.30439901751268 35.31313471717047 M 110.30439901751268 35.31313471717047 L 97.820051424959 50.9381488031897 " />
    <!-- Tie -->
    <path d="M 101.5093926866394 53.92992267776381 L 103.04019822103115 55.21702578780419 M 103.04019822103115 55.21702578780419 L 115.91122932143486 39.908970443886716 M 115.91122932143486 39.908970443886716 L 114.38042378704311 38.62186733384634 M 114.38042378704311 38.62186733384634 L 101.5093926866394 53.92992267776381 " />
    <!-- Rail 1072591677 -->
    <path d="M 94.16636905521098 105.83363094478902 L 44.16636905521098 55.833630944789014 M 44.16636905521102 55.833630944789036 A 208.24999999999997 208.24999999999997 0 0 1 9.867921539679742 10.590470770608917 " />
    <!-- Rail 1523554304 -->
    <path d="M 9.249655641516512 9.482231419605625 A 208.25 208.25 0 0 1 1.4347501199872283 -6.138579570379562 " />
    <!-- Rail 1175962212 -->
    <path d="M 0.9653929383935349 -7.191975710785542 A 208.25 208.25 0 0 1 -8.404854207023106 -32.79074887684204 " />
    <!-- Rail 918221580 -->
    <path d="M -50.0 -8.25 L -20.0 -8.25 M -20.00000000000002 -8.25 A 208.25 208.25 0 0 1 0.9653929383935207 -7.191975710785584 " />
    <!-- Rail 2055281021 -->
    <path d="M 2.1124381018401834 -7.072698782800131 A 208.24999999999997 208.24999999999997 0 0 1 19.387248063192974 -4.49133768942022 " />
    <!-- Rail 1554547125 -->
    <path d="M 20.632640384996204 -4.247523939321212 A 208.25000000000003 208.25000000000003 0 0 1 114.15833336724914 40.72161449800524 " />
    <!-- Rail 617901222 -->
    <path d="M 105.83363094478902 94.16636905521098 L 55.83363094478902 44.166369055210986 M 55.833630944789064 44.16636905521099 A 191.74999999999997 191.74999999999997 0 0 1 32.253640994680666 15.507128856426931 " />
    <!-- Rail 1159190947 -->
    <path d="M 31.403512200775737 14.230676823581263 A 191.75 191.75 0 0 1 21.218098557707805 -3.109898457182794 " />
    <!-- Rail 925858445 -->
    <path d="M 20.632640384996165 -4.247523939321198 A 191.75000000000003 191.75000000000003 0 0 1 7.42771468772591 -37.436151140696595 " />
    <!-- Rail 798154996 -->
    <path d="M -50.0 8.25 L -20.0 8.25 M -20.00000000000002 8.25 A 191.75 191.75 0 0 1 9.867921539679777 10.59047077060896 " />
    <!-- Rail 681842940 -->
    <path d="M 11.131067694244248 10.793977040326808 A 191.74999999999997 191.74999999999997 0 0 1 30.77638577713579 15.095102424485589 " />
    <!-- Rail 1392838282 -->
    <path d="M 32.253640994680694 15.507128856426988 A 191.75000000000003 191.75000000000003 0 0 1 103.52874152782724 53.3415105881993 " />
    <!-- Rail 523429237 -->
    <path d="M 36.516200657596784 23.282415604879674 A 192.74999999999997 192.74999999999997 0 0 1 30.776385777135715 15.095102424485518 " />
    <!-- Rail 664740647 -->
    <path d="M 31.403512200775747 14.230676823581291 A 192.75 192.75 0 0 1 40.96786357596818 17.1462822062889 " />
    <!-- Rail 804564176 -->
    <path d="M 2.1124381018401266 -7.072698782800217 A 207.24999999999997 207.24999999999997 0 0 1 -1.7355548830949772 -16.301650524200127 " />
    <!-- Rail 1421795058 -->
    <path d="M -8.532710661072757 -6.932510194066197 A 207.24999999999997 207.24999999999997 0 0 1 1.434750119987303 -6.138579570379534 " />
    <!-- Rail 1555009629 -->
    <path d="M 94.23707973332964 105.76292026667036 L 44.23707973332964 55.76292026667036 M 44.237079733329665 55.76292026667039 A 208.14999999999998 208.14999999999998 0 0 1 9.931375622532471 10.499247354152061 " />
    <!-- Rail 41359092 -->
    <path d="M 9.374638828869536 9.501461702002857 A 208.14999999999998 208.14999999999998 0 0 1 1.5024023609116455 -6.232076051979533 " />
    <!-- Rail 149928006 -->
    <path d="M 1.1265060390616384 -7.075090830793812 A 208.14999999999995 208.14999999999995 0 0 1 -8.308899244024559 -32.81890282995632 " />
    <!-- Rail 713338599 -->
    <path d="M -50.0 -8.15 L -20.0 -8.15 M -20.00000000000002 -8.150000000000006 A 208.15 208.15 0 0 1 1.1265060390616064 -7.075090830793783 " />
    <!-- Rail 168423058 -->
    <path d="M 2.0445527463939364 -6.9793714219159995 A 208.15 208.15 0 0 1 19.4443156607401 -4.3784931494894295 " />
    <!-- Rail 821270929 -->
    <path d="M 20.5656130272996 -4.158892874445627 A 208.14999999999998 208.14999999999998 0 0 1 114.09391159852534 40.798098716733705 " />
    <!-- Rail 1160460865 -->
    <path d="M 105.76292026667036 94.23707973332964 L 55.76292026667036 44.23707973332964 M 55.76292026667039 44.23707973332964 A 191.84999999999997 191.84999999999997 0 0 1 32.01908602961697 15.336963122980933 " />
    <!-- Rail 1247233941 -->
    <path d="M 31.34072371061876 14.31706435735694 A 191.84999999999994 191.84999999999994 0 0 1 21.092225538302415 -3.1354018882708345 " />
    <!-- Rail 258952499 -->
    <path d="M 20.565613027299662 -4.158892874445641 A 191.84999999999994 191.84999999999994 0 0 1 7.331759724727533 -37.40799718758235 " />
    <!-- Rail 603742814 -->
    <path d="M -50.0 8.15 L -20.0 8.15 M -20.00000000000002 8.150000000000006 A 191.85 191.85 0 0 1 9.931375622532386 10.499247354151976 " />
    <!-- Rail 1067040082 -->
    <path d="M 11.067760525582226 10.682233385439872 A 191.84999999999997 191.84999999999997 0 0 1 30.83902257170679 15.00860483808043 " />
    <!-- Rail 1325547227 -->
    <path d="M 32.0190860296169 15.336963122980876 A 191.85000000000002 191.85000000000002 0 0 1 103.59316329655101 53.26502636947083 " />
    <!-- Rail 980546781 -->
    <path d="M 36.59656649706747 23.222906514429766 A 192.64999999999998 192.64999999999998 0 0 1 30.839022571706693 15.008604838080345 " />
    <!-- Rail 2061475679 -->
    <path d="M 31.340723710618715 14.31706435735697 A 192.65 192.65 0 0 1 40.93623303714796 17.241147948334913 " />
    <!-- Rail 140435067 -->
    <path d="M 2.0445527463939186 -6.979371421916028 A 207.35 207.35 0 0 1 -1.8287548402097684 -16.265404586582207 " />
    <!-- Rail 1450495309 -->
    <path d="M -8.527177590221644 -7.032357002362517 A 207.35 207.35 0 0 1 1.5024023609116455 -6.232076051979504 " />
    <!-- Rail 1670782018 -->
    <path d="M 93.95423702085502 106.04576297914498 L 43.95423702085502 56.04576297914498 M 43.95423702085506 56.045762979144996 A 208.54999999999998 208.54999999999998 0 0 1 9.677690304253105 10.864236067831825 " />
    <!-- Rail 1706377736 -->
    <path d="M 8.87522449612726 9.425122562552218 A 208.55000000000004 208.55000000000004 0 0 1 1.2319488087656225 -5.8579773770789245 " />
    <!-- Rail 468121027 -->
    <path d="M 0.4834197905831843 -7.5416392285720235 A 208.54999999999995 208.54999999999995 0 0 1 -8.692719096018493 -32.70628701749924 " />
    <!-- Rail 1804094807 -->
    <path d="M -50.0 -8.55 L -20.0 -8.55 M -20.00000000000002 -8.550000000000011 A 208.55 208.55 0 0 1 0.4834197905831239 -7.5416392285720235 " />
    <!-- Rail 951007336 -->
    <path d="M 2.316249579730247 -7.352568116951943 A 208.55 208.55 0 0 1 19.216759409382323 -4.829559100796359 " />
    <!-- Rail 2001049719 -->
    <path d="M 20.83385347121749 -4.513322086095712 A 208.54999999999995 208.54999999999995 0 0 1 114.35159867342041 40.49216184181995 " />
    <!-- Rail 1528902577 -->
    <path d="M 106.04576297914498 93.95423702085502 L 56.04576297914498 43.95423702085502 M 56.045762979145024 43.95423702085503 A 191.44999999999996 191.44999999999996 0 0 1 32.962818358431605 16.021625261196064 " />
    <!-- Rail 1927950199 -->
    <path d="M 31.591978802854783 13.971587591556869 A 191.4499999999999 191.4499999999999 0 0 1 21.596258430175652 -3.0327899247066767 " />
    <!-- Rail 868693306 -->
    <path d="M 20.833853471217566 -4.513322086095755 A 191.44999999999987 191.44999999999987 0 0 1 7.715579576721495 -37.52061300003945 " />
    <!-- Rail 1746572565 -->
    <path d="M -50.0 8.55 L -20.0 8.55 M -20.00000000000002 8.550000000000011 A 191.45 191.45 0 0 1 9.677690304253083 10.864236067831854 " />
    <!-- Rail 989110044 -->
    <path d="M 11.321725736642705 11.12953646247783 A 191.4499999999999 191.4499999999999 0 0 1 30.588576525030657 15.35466855300379 " />
    <!-- Rail 424058530 -->
    <path d="M 32.962818358431605 16.021625261196107 A 191.44999999999993 191.44999999999993 0 0 1 103.33547622165587 53.5709632443847 " />
    <!-- Rail 321001045 -->
    <path d="M 36.27510313918481 23.460942876229367 A 193.04999999999995 193.04999999999995 0 0 1 30.588576525030675 15.354668553003705 " />
    <!-- Rail 791452441 -->
    <path d="M 31.591978802854737 13.971587591556897 A 193.04999999999998 193.04999999999998 0 0 1 41.062755192428824 16.86168498015084 " />
    <!-- Rail 834600351 -->
    <path d="M 2.316249579730311 -7.352568116951929 A 206.94999999999993 206.94999999999993 0 0 1 -1.4559550117505466 -16.41038833705386 " />
    <!-- Rail 471910020 -->
    <path d="M -8.549309873626088 -6.63296976917735 A 206.95 206.95 0 0 1 1.231948808765683 -5.857977377078953 " />
    <!-- Rail 531885035 -->
    <path d="M 93.88352634273636 106.11647365726364 L 43.88352634273636 56.11647365726363 M 43.88352634273639 56.11647365726364 A 208.64999999999998 208.64999999999998 0 0 1 9.614323569160717 10.955522853638954 " />
    <!-- Rail 1418481495 -->
    <path d="M 8.750585766653217 9.40627943692813 A 208.64999999999998 208.64999999999998 0 0 1 1.1644001760618607 -5.764405729434941 " />
    <!-- Rail 303563356 -->
    <path d="M 0.32321317531366844 -7.657866468455211 A 208.64999999999995 208.64999999999995 0 0 1 -8.788674059016955 -32.67813306438497 " />
    <!-- Rail 135721597 -->
    <path d="M -50.0 -8.65 L -20.0 -8.65 M -20.00000000000002 -8.650000000000006 A 208.65 208.65 0 0 1 0.32321317531362936 -7.6578664684551825 " />
    <!-- Rail 142257191 -->
    <path d="M 2.3842385433970392 -7.445820311792062 A 208.65000000000003 208.65000000000003 0 0 1 19.1601667511547 -4.942196338435309 " />
    <!-- Rail 1044036744 -->
    <path d="M 20.90096817667433 -4.601889781621196 A 208.64999999999998 208.64999999999998 0 0 1 114.41602044214419 40.41567762309148 " />
    <!-- Rail 1826771953 -->
    <path d="M 106.11647365726364 93.88352634273636 L 56.11647365726364 43.88352634273637 M 56.11647365726367 43.88352634273636 A 191.34999999999997 191.34999999999997 0 0 1 33.20108966340834 16.194487137556294 " />
    <!-- Rail 1406718218 -->
    <path d="M 31.654834714421725 13.88524897089485 A 191.34999999999994 191.34999999999994 0 0 1 21.722493311591222 -3.0068867104370582 " />
    <!-- Rail 245257410 -->
    <path d="M 20.900968176674297 -4.601889781621239 A 191.35 191.35 0 0 1 7.811534539719872 -37.54876695315368 " />
    <!-- Rail 1705736037 -->
    <path d="M -50.0 8.65 L -20.0 8.65 M -20.00000000000002 8.650000000000006 A 191.35 191.35 0 0 1 9.614323569160725 10.955522853638882 " />
    <!-- Rail 455659002 -->
    <path d="M 11.385525248755389 11.241500046064857 A 191.35 191.35 0 0 1 30.526007151869695 15.441215052522608 " />
    <!-- Rail 250421012 -->
    <path d="M 33.2010896634083 16.19448713755628 A 191.34999999999994 191.34999999999994 0 0 1 103.2710544529321 53.64744746311317 " />
    <!-- Rail 1915318863 -->
    <path d="M 36.19473729971412 23.52045196667929 A 193.14999999999998 193.14999999999998 0 0 1 30.526007151869663 15.441215052522608 " />
    <!-- Rail 1283928880 -->
    <path d="M 31.654834714421735 13.885248970894935 A 193.14999999999998 193.14999999999998 0 0 1 41.094385731249034 16.76681923810483 " />
    <!-- Rail 295530567 -->
    <path d="M 2.384238543397032 -7.445820311792076 A 206.84999999999997 206.84999999999997 0 0 1 -1.3627550546358123 -16.44663427467175 " />
    <!-- Rail 2003749087 -->
    <path d="M -8.554842944477201 -6.53312296088103 A 206.84999999999997 206.84999999999997 0 0 1 1.1644001760618465 -5.764405729434884 " />
    <!-- Rail 1324119927 -->
    <path d="M 19.963349088629172 -3.3605006622976816 A 192.75 192.75 0 0 0 23.764882978443097 3.6779049291108095 M 12.085666520598426 -4.751245427052169 A 207.25 207.25 0 0 1 19.96334908862924 -3.360500662297625 " />
    <!-- Rail 990368553 -->
    <path d="M 20.030180009032335 -3.4492742391686875 A 192.64999999999992 192.64999999999992 0 0 0 23.851864287526894 3.6285667910218393 M 12.101148144975074 -4.850039755364378 A 207.35 207.35 0 0 1 20.030180009032303 -3.4492742391686875 " />
    <!-- Rail 1096979270 -->
    <path d="M 19.76298723386759 -3.0940849612299672 A 193.04999999999993 193.04999999999993 0 0 0 23.50393905119202 3.8259193433775778 M 12.039221647468484 -4.454862442115541 A 206.95 206.95 0 0 1 19.76298723386751 -3.094084961229953 " />
    <!-- Rail 1078694789 -->
    <path d="M 19.696243579642157 -3.0052480741956344 A 193.14999999999998 193.14999999999998 0 0 0 23.416957742108252 3.8752574814665337 M 12.023740023091843 -4.356068113803332 A 206.85 206.85 0 0 1 19.69624357964214 -3.005248074195663 " />
    <!-- Rail 1831932724 -->
    <path d="M 10.503444648805669 9.67894923430768 A 207.24999999999997 207.24999999999997 0 0 1 6.736637299998563 2.6218098676576744 M 18.374095278161153 11.108519748553448 A 192.75000000000003 192.75000000000003 0 0 0 10.503444648805683 9.678949234307595 " />
    <!-- Rail 1747585824 -->
    <path d="M 10.439794128659457 9.770030138769059 A 207.34999999999994 207.34999999999994 0 0 1 6.6475252522604364 2.667186546116028 M 18.354186538717233 11.206517922484153 A 192.65000000000003 192.65000000000003 0 0 0 10.439794128659408 9.770030138769016 " />
    <!-- Rail 1023892928 -->
    <path d="M 10.694527115691898 9.405801491377858 A 206.94999999999993 206.94999999999993 0 0 1 7.003973443213027 2.485679832282557 M 18.433821496492914 10.814525226761333 A 193.05 193.05 0 0 0 10.694527115691837 9.405801491377844 " />
    <!-- Rail 558638686 -->
    <path d="M 10.758264902015753 9.314783897079664 A 206.84999999999997 206.84999999999997 0 0 1 7.093085490951154 2.4403031538242033 M 18.453730235936842 10.716527052830628 A 193.15 193.15 0 0 0 10.758264902015767 9.314783897079678 " />
</g>
</svg>
