<?xml version="1.0"?>
<!DOCTYPE svg PUBLIC "-//W3C//DTD SVG 1.1//EN"
  "http://www.w3.org/Graphics/SVG/1.1/DTD/svg11.dtd">

<svg version="1.1" xmlns="http://www.w3.org/2000/svg" transform="scale(1,-1)" width="211.84028108246545mm" height="76.41146295558485mm" viewBox="-8.55838245144242 -19.99941657843197 211.84028108246545 76.41146295558485" >
    <g stroke="black" stroke-width="0.1" fill="none" >
    <!-- Tie -->
    <path d="M 1.4416175485575815 10.009855277404121 L 3.44158352088263 10.021521876819996 M 3.44158352088263 10.021521876819996 L 3.5583055864455773 -9.987749979016094 M 3.5583055864455773 -9.987749979016094 L 1.5583396141205283 -9.999416578431969 M 1.5583396141205283 -9.999416578431969 L 1.4416175485575815 10.009855277404121 " />
    <!-- Tie -->
    <path d="M 6.323367662921358 10.12368354929116 L 8.32306142124745 10.15868173369649 M 8.32306142124745 10.15868173369649 L 8.674557090472959 -9.924751386390728 M 8.674557090472959 -9.924751386390728 L 6.674863332146868 -9.959749570796058 M 6.674863332146868 -9.959749570796058 L 6.323367662921358 10.12368354929116 " />
    <!-- Tie -->
    <path d="M 11.200493615218793 10.362930703281089 L 13.199642985017377 10.421255631347341 M 13.199642985017377 10.421255631347341 L 13.789899764350944 -9.810427587938003 M 13.789899764350944 -9.810427587938003 L 11.790750394552362 -9.868752516004255 M 11.790750394552362 -9.868752516004255 L 11.200493615218793 10.362930703281089 " />
    <!-- Tie -->
    <path d="M 16.06982498780764 10.727443197023126 L 18.068157873484644 10.809086800702882 M 18.068157873484644 10.809086800702882 L 18.903818572258153 -9.64479054377515 M 18.903818572258153 -9.64479054377515 L 16.905485686581148 -9.726434147454906 M 16.905485686581148 -9.726434147454906 L 16.06982498780764 10.727443197023126 " />
    <!-- Tie -->
    <path d="M 20.92819602281163 11.216990035108338 L 22.925440447158984 11.321941020875085 M 22.925440447158984 11.321941020875085 L 24.015798627990744 -9.427857385475264 M 24.015798627990744 -9.427857385475264 L 22.01855420364339 -9.53280837124201 M 22.01855420364339 -9.53280837124201 L 20.92819602281163 11.216990035108338 " />
    <!-- Tie -->
    <path d="M 25.772447488652606 11.831262919254122 L 27.768331632280844 11.95950676984109 M 27.768331632280844 11.95950676984109 L 29.125325246908485 -9.159650414256017 M 29.125325246908485 -9.159650414256017 L 27.129441103280243 -9.287894264842985 M 27.129441103280243 -9.287894264842985 L 25.772447488652606 11.831262919254122 " />
    <!-- Tie -->
    <path d="M 30.599428541339847 12.569876448527138 L 32.59368078208562 12.721395425161944 M 32.59368078208562 12.721395425161944 L 34.23188399784463 -8.840197098647733 M 34.23188399784463 -8.840197098647733 L 32.23763175709886 -8.99171607528254 M 32.23763175709886 -8.99171607528254 L 30.599428541339847 12.569876448527138 " />
    <!-- Tie -->
    <path d="M 35.40599857898431 13.432368369506316 L 37.3983475312864 13.607141514642485 M 37.3983475312864 13.607141514642485 L 39.334960754996445 -8.469530071640998 M 39.334960754996445 -8.469530071640998 L 37.34261180269436 -8.644303216777168 M 37.34261180269436 -8.644303216777168 L 35.40599857898431 13.432368369506316 " />
    <!-- Tie -->
    <path d="M 40.189029088039 14.418199876274336 L 42.17920364227661 14.616203016817916 M 42.17920364227661 14.616203016817916 L 44.43404174977724 -8.047687127315179 M 44.43404174977724 -8.047687127315179 L 42.44386719553963 -8.245690267858759 M 42.44386719553963 -8.245690267858759 L 40.189029088039 14.418199876274336 " />
    <!-- Tie -->
    <path d="M 44.94540547973401 15.526755960096374 L 46.93313484152114 15.747961711127779 M 46.93313484152114 15.747961711127779 L 49.52861362263453 -7.57471121694666 M 49.52861362263453 -7.57471121694666 L 47.540884260847406 -7.795916967978066 M 47.540884260847406 -7.795916967978066 L 44.94540547973401 15.526755960096374 " />
    <!-- Tie -->
    <path d="M 49.672028915183375 16.757345808626965 L 51.65704264461278 17.001723577617426 M 51.65704264461278 17.001723577617426 L 54.618163474826275 -7.050650444598217 M 54.618163474826275 -7.050650444598217 L 52.633149745396864 -7.2950282135886795 M 52.633149745396864 -7.2950282135886795 L 49.672028915183375 16.757345808626965 " />
    <!-- Tie -->
    <path d="M 54.365818117628926 18.10920325446532 L 56.34784616845975 18.376719245986884 M 56.34784616845975 18.376719245986884 L 59.702178920147375 -6.475558062188961 M 59.702178920147375 -6.475558062188961 L 57.720150869316555 -6.7430740537105205 M 57.720150869316555 -6.7430740537105205 L 54.365818117628926 18.10920325446532 " />
    <!-- Tie -->
    <path d="M 59.023711170270154 19.581487272853757 L 61.00248392905263 19.872104493782594 M 61.00248392905263 19.872104493782594 L 64.78014813660685 -5.849492464046728 M 64.78014813660685 -5.849492464046728 L 62.80137537782437 -6.140109684975561 M 62.80137537782437 -6.140109684975561 L 59.023711170270154 19.581487272853757 " />
    <!-- Tie -->
    <path d="M 63.64266729812625 21.17328252830189 L 65.61791562325747 21.4869607935137 M 65.61791562325747 21.4869607935137 L 69.85155991804476 -5.172517180942641 M 69.85155991804476 -5.172517180942641 L 67.87631159291352 -5.486195446154451 M 67.87631159291352 -5.486195446154451 L 63.64266729812625 21.17328252830189 " />
    <!-- Tie -->
    <path d="M 68.21966863235421 22.883599969892785 L 70.19112389305869 23.220295908449643 M 70.19112389305869 23.220295908449643 L 74.91590372568785 -4.444700873607429 M 74.91590372568785 -4.444700873607429 L 72.9444484649834 -4.781396812164287 M 72.9444484649834 -4.781396812164287 L 68.21966863235421 22.883599969892785 " />
    <!-- Tie -->
    <path d="M 72.75172195543475 24.71137747501522 L 74.71911607066339 25.071044536842834 M 74.71911607066339 25.071044536842834 L 79.9726697396374 -3.6661173257330173 M 79.9726697396374 -3.6661173257330173 L 78.00527562440874 -4.025784387560634 M 78.00527562440874 -4.025784387560634 L 72.75172195543475 24.71137747501522 " />
    <!-- Tie -->
    <path d="M 77.23586042561959 26.655480541246355 L 79.19892590286119 27.03806900430058 M 79.19892590286119 27.03806900430058 L 85.02134891028251 -2.836845436457418 M 85.02134891028251 -2.836845436457418 L 83.05828343304091 -3.2194338995116425 M 83.05828343304091 -3.2194338995116425 L 77.23586042561959 26.655480541246355 " />
    <!-- Tie -->
    <path d="M 81.66914527900703 28.714703026095 L 83.62761525300577 29.120160004016647 M 83.62761525300577 29.120160004016647 L 90.0614330096369 -1.956969212333707 M 90.0614330096369 -1.956969212333707 L 88.10296303563815 -2.3624261902553574 M 88.10296303563815 -2.3624261902553574 L 81.66914527900703 28.714703026095 " />
    <!-- Tie -->
    <path d="M 86.04866750759476 30.887767934302296 L 88.00227577896773 31.31603738455891 M 88.00227577896773 31.31603738455891 L 95.09241468259123 -1.0265777587873028 M 95.09241468259123 -1.0265777587873028 L 93.13880641121825 -1.454847209043919 M 93.13880641121825 -1.454847209043919 L 86.04866750759476 30.887767934302296 " />
    <!-- Tie -->
    <path d="M 90.37154951162334 33.173328252382845 L 92.32003058537187 33.62435098489621 M 92.32003058537187 33.62435098489621 L 100.1137874980771 -0.0457652710568901 M 100.1137874980771 -0.0457652710568901 L 98.16530642432859 -0.49678800357026276 M 98.16530642432859 -0.49678800357026276 L 90.37154951162334 33.173328252382845 " />
    <!-- Tie -->
    <path d="M 94.63526590163733 35.56865862232932 L 96.5783550255459 36.04237230858739 M 96.5783550255459 36.04237230858739 L 105.12504600013804 0.9853689753749109 M 105.12504600013804 0.9853689753749109 L 103.18195687622946 0.5116552891168418 M 103.18195687622946 0.5116552891168418 L 94.63526590163733 35.56865862232932 " />
    <!-- Tie -->
    <path d="M 98.86484340442011 37.99800282894743 L 100.80242915978538 38.49374615023945 M 100.80242915978538 38.49374615023945 L 110.12275419620524 2.0657636635056065 M 110.12275419620524 2.0657636635056065 L 108.18516844083997 1.5700203422135814 M 108.18516844083997 1.5700203422135814 L 98.86484340442011 37.99800282894743 " />
    <!-- Tie -->
    <path d="M 103.10635519581346 40.435953001824565 L 105.03900060463374 40.95061961601855 M 105.03900060463374 40.95061961601855 L 115.09440606874689 3.191160058923689 M 115.09440606874689 3.191160058923689 L 113.16176065992661 2.676493444729708 M 113.16176065992661 2.676493444729708 L 103.10635519581346 40.435953001824565 " />
    <!-- Tie -->
    <path d="M 106.14977478676687 41.89249875550024 L 107.88182559433574 42.89249875550024 M 107.88182559433574 42.89249875550024 L 117.88182559433574 25.571990679811464 M 117.88182559433574 25.571990679811464 L 116.14977478676687 24.571990679811464 M 116.14977478676687 24.571990679811464 L 106.14977478676687 41.89249875550024 " />
    <!-- Tie -->
    <path d="M 110.47990180568905 44.39249875550024 L 112.21195261325792 45.39249875550025 M 112.21195261325792 45.39249875550025 L 122.21195261325792 28.07199067981147 M 122.21195261325792 28.07199067981147 L 120.47990180568905 27.07199067981147 M 120.47990180568905 27.07199067981147 L 110.47990180568905 44.39249875550024 " />
    <!-- Tie -->
    <path d="M 114.16382548677537 23.48387125908833 L 116.10783021193319 23.95381341357549 M 116.10783021193319 23.95381341357549 L 120.8072517568048 4.5137661619972 M 120.8072517568048 4.5137661619972 L 118.86324703164698 4.04382400751004 M 118.86324703164698 4.04382400751004 L 114.16382548677537 23.48387125908833 " />
    <!-- Tie -->
    <path d="M 118.92319921152044 24.649316094636248 L 120.86240739403044 25.1386744754639 M 120.86240739403044 25.1386744754639 L 125.75599120230699 5.746592650363908 M 125.75599120230699 5.746592650363908 L 123.81678301979699 5.257234269536253 M 123.81678301979699 5.257234269536253 L 118.92319921152044 24.649316094636248 " />
    <!-- Tie -->
    <path d="M 123.67068071544693 25.862295602450523 L 125.60489843610685 26.371021274188386 M 125.60489843610685 26.371021274188386 L 130.6921551534855 7.028844067589182 M 130.6921551534855 7.028844067589182 L 128.75793743282557 6.520118395851318 M 128.75793743282557 6.520118395851318 L 123.67068071544693 25.862295602450523 " />
    <!-- Tie -->
    <path d="M 128.4057952543602 27.122688485591055 L 130.33482909300983 27.65073057609589 M 130.33482909300983 27.65073057609589 L 135.61524999805818 8.360392189599708 M 135.61524999805818 8.360392189599708 L 133.68621615940856 7.832350099094873 M 133.68621615940856 7.832350099094873 L 128.4057952543602 27.122688485591055 " />
    <!-- Tie -->
    <path d="M 133.12806932075262 28.430368705820015 L 135.0517263756156 28.977674411322806 M 135.0517263756156 28.977674411322806 L 140.52478343064354 9.741103862693066 M 140.52478343064354 9.741103862693066 L 138.60112637578055 9.193798157190276 M 138.60112637578055 9.193798157190276 L 133.12806932075262 28.430368705820015 " />
    <!-- Tie -->
    <path d="M 137.83703069115265 29.785205496204902 L 139.75511859812653 30.351720086591186 M 139.75511859812653 30.351720086591186 L 145.42026450198935 11.170841016852329 M 145.42026450198935 11.170841016852329 L 143.50217659501547 10.604326426466047 M 143.50217659501547 10.604326426466047 L 137.83703069115265 29.785205496204902 " />
    <!-- Tie -->
    <path d="M 142.53220847334742 31.187063374195887 L 144.4445354252399 31.77273019847872 M 144.4445354252399 31.77273019847872 L 150.3012036680682 12.64946067955371 M 150.3012036680682 12.64946067955371 L 148.38887671617573 12.06379385527088 M 148.38887671617573 12.06379385527088 L 142.53220847334742 31.187063374195887 " />
    <!-- Tie -->
    <path d="M 147.21313315347123 32.63580215517325 L 149.11950791918076 33.24056264715826 M 149.11950791918076 33.24056264715826 L 155.16711283903078 14.17681499006298 M 155.16711283903078 14.17681499006298 L 153.26073807332125 13.572054498077977 M 153.26073807332125 13.572054498077977 L 147.21313315347123 32.63580215517325 " />
    <!-- Tie -->
    <path d="M 151.87933664295693 34.13127696646626 L 153.77956858659553 34.755070650608204 M 153.77956858659553 34.755070650608204 L 160.01750542801497 15.75275121422197 M 160.01750542801497 15.75275121422197 L 158.11727348437637 15.128957530080028 M 158.11727348437637 15.128957530080028 L 151.87933664295693 34.13127696646626 " />
    <!-- Tie -->
    <path d="M 156.530352325344 35.673338261839966 L 158.4242514253009 36.31610275929026 M 158.4242514253009 36.31610275929026 L 164.85189639980385 17.377111759721494 M 164.85189639980385 17.377111759721494 L 162.95799729984697 16.7343472622712 M 162.95799729984697 16.7343472622712 L 156.530352325344 35.673338261839966 " />
    <!-- Tie -->
    <path d="M 161.1657151029401 37.26183183644993 L 163.0530919708835 37.92350287129447 M 163.0530919708835 37.92350287129447 L 169.66980231932888 19.04973419186068 M 169.66980231932888 19.04973419186068 L 167.7824254513855 18.38806315701614 M 167.7824254513855 18.38806315701614 L 161.1657151029401 37.26183183644993 " />
    <!-- Tie -->
    <path d="M 165.7849614433302 38.89659884226237 L 167.6656273431461 39.57711024794906 M 167.6656273431461 39.57711024794906 L 174.47074140001297 20.770451249790106 M 174.47074140001297 20.770451249790106 L 172.59007550019706 20.08993984410342 M 172.59007550019706 20.08993984410342 L 165.7849614433302 38.89659884226237 " />
    <!-- Tie -->
    <path d="M 170.4667212111492 40.59770394061648 L 172.34610645272102 41.28174422726782 M 172.34610645272102 41.28174422726782 L 179.1865093192344 22.487891811549652 M 179.1865093192344 22.487891811549652 L 177.3071240776626 21.803851524898313 M 177.3071240776626 21.803851524898313 L 170.4667212111492 40.59770394061648 " />
    <!-- Tie -->
    <path d="M 175.16518431507876 42.30780465724483 L 177.04456955665057 42.99184494389617 M 177.04456955665057 42.99184494389617 L 183.88497242316396 24.197992528178002 M 183.88497242316396 24.197992528178002 L 182.00558718159215 23.513952241526667 M 182.00558718159215 23.513952241526667 L 175.16518431507876 42.30780465724483 " />
    <!-- Tie -->
    <path d="M 179.8636474190083 44.017905373873184 L 181.7430326605801 44.70194566052452 M 181.7430326605801 44.70194566052452 L 188.58343552709349 25.908093244806356 M 188.58343552709349 25.908093244806356 L 186.70405028552167 25.22405295815502 M 186.70405028552167 25.22405295815502 L 179.8636474190083 44.017905373873184 " />
    <!-- Tie -->
    <path d="M 184.56211052293784 45.72800609050154 L 186.44149576450965 46.412046377152876 M 186.44149576450965 46.412046377152876 L 193.28189863102304 27.61819396143471 M 193.28189863102304 27.61819396143471 L 191.40251338945123 26.934153674783374 M 191.40251338945123 26.934153674783374 L 184.56211052293784 45.72800609050154 " />
    <!-- Rail 1175520990 -->
    <path d="M 1.1741301186825248E-14 8.25 A 191.75 191.75 0 0 1 95.87499999999999 33.93962882433388 M 95.87499999999996 33.93962882433385 L 113.19550807568864 43.93962882433385 " />
    <!-- Rail 1023216884 -->
    <path d="M 3.112133678333211E-14 -8.25 A 508.25 508.25 0 0 1 173.8317378452712 22.401225485562122 M 173.8317378452712 22.401225485562122 L 192.6255902609893 29.24162835207551 " />
    <!-- Rail 443965085 -->
    <path d="M 1.1750486037818855E-14 8.099999999999994 A 191.9 191.9 0 0 1 95.94999999999999 33.80972501376621 M 95.94999999999996 33.80972501376619 L 113.27050807568864 43.80972501376619 " />
    <!-- Rail 1266843227 -->
    <path d="M 3.111215193233851E-14 -8.100000000000023 A 508.1 508.1 0 0 1 173.78043482377234 22.542179378679975 M 173.78043482377234 22.54217937868001 L 192.57428723949045 29.382582245193397 " />
    <!-- Rail 99333635 -->
    <path d="M 1.1729054718833776E-14 8.449999999999989 A 191.55 191.55 0 0 1 95.77499999999999 34.11283390509075 M 95.77499999999995 34.11283390509074 L 113.09550807568863 44.11283390509074 " />
    <!-- Rail 1369805030 -->
    <path d="M 3.113358325132359E-14 -8.449999999999989 A 508.45 508.45 0 0 1 173.90014187393632 22.213286961404947 M 173.90014187393632 22.213286961404943 L 192.69399428965443 29.05368982791833 " />
    <!-- Rail 2031070969 -->
    <path d="M 1.171986986784017E-14 8.599999999999994 A 191.4 191.4 0 0 1 95.69999999999999 34.24273771565842 M 95.69999999999996 34.24273771565841 L 113.02050807568864 44.24273771565841 " />
    <!-- Rail 564623141 -->
    <path d="M 3.114276810231719E-14 -8.600000000000023 A 508.6 508.6 0 0 1 173.95144489543517 22.072333068287037 M 173.95144489543517 22.072333068287058 L 192.74529731115328 28.912735934800445 " />
    <!-- Rail 2032441020 -->
    <path d="M 1.2751634796121815E-14 -8.25 A 208.25 208.25 0 0 1 100.50694710303479 17.60916666666671 " />
    <!-- Rail 75176926 -->
    <path d="M 100.50694710303476 17.609166666666624 A 492.75000000000006 492.75000000000006 0 0 1 110.27534687815852 19.748076140342903 " />
    <!-- Rail 460238 -->
    <path d="M 3.0111003174035546E-14 8.25 A 491.75 491.75 0 0 1 100.15578712061529 18.557500000000005 " />
    <!-- Rail 444810420 -->
    <path d="M 100.15578712061526 18.557500000000033 A 207.24999999999997 207.24999999999997 0 0 1 103.62499999999996 20.51623506567509 M 103.62499999999999 20.516235065675076 L 108.83497471805772 23.52421537161689 " />
    <!-- Rail 1196404782 -->
    <path d="M 103.4287194158373 19.25 A 208.25 208.25 0 0 1 104.12499999999997 19.650209661890642 M 104.12499999999999 19.65020966189064 L 121.44550807568866 29.65020966189064 " />
    <!-- Rail 456582898 -->
    <path d="M 103.42871941583732 19.25 A 491.75 491.75 0 0 1 168.18840548039765 37.9061537285296 M 168.18840548039762 37.9061537285296 L 186.98225789611573 44.74655659504299 " />
    <!-- Rail 589805871 -->
    <path d="M 1.2745511562126079E-14 -8.150000000000006 A 208.15 208.15 0 0 1 100.47184124917814 17.70400000000015 " />
    <!-- Rail 587333403 -->
    <path d="M 100.47184124917784 17.70399999999995 A 492.65000000000003 492.65000000000003 0 0 1 110.25296730497166 19.845539747417433 " />
    <!-- Rail 427156885 -->
    <path d="M 3.011712640803129E-14 8.149999999999977 A 491.85 491.85 0 0 1 100.19091329168633 18.46266666666662 " />
    <!-- Rail 903385407 -->
    <path d="M 100.19091329168675 18.462666666666735 A 207.3500000000001 207.3500000000001 0 0 1 103.67500000000003 20.42963252529654 M 103.67499999999998 20.429632525296633 L 108.88497471805753 23.437612831238315 " />
    <!-- Rail 724084842 -->
    <path d="M 102.81758388308663 19.01666666666665 A 208.15 208.15 0 0 1 104.07499999999997 19.73681220226908 M 104.07499999999999 19.736812202269082 L 121.39550807568867 29.736812202269082 " />
    <!-- Rail 125657907 -->
    <path d="M 102.81758388308658 19.01666666666671 A 491.84999999999997 491.84999999999997 0 0 1 168.2226074947302 37.812184466451015 M 168.2226074947302 37.812184466451015 L 187.0164599104483 44.6525873329644 " />
    <!-- Rail 831682308 -->
    <path d="M 1.2770004498109026E-14 -8.550000000000011 A 208.55 208.55 0 0 1 100.61225120011798 17.3246666666669 " />
    <!-- Rail 1085430112 -->
    <path d="M 100.61225120011751 17.324666666666644 A 493.05 493.05 0 0 1 110.34248559771902 19.455685319119425 " />
    <!-- Rail 775410404 -->
    <path d="M 3.009263347204834E-14 8.550000000000011 A 491.45 491.45 0 0 1 100.05039498172916 18.84200000000004 " />
    <!-- Rail 1119832298 -->
    <path d="M 100.05039498172914 18.84200000000004 A 206.95 206.95 0 0 1 103.47499999999997 20.776042686810428 M 103.475 20.776042686810406 L 108.68497471805753 23.78402299275207 " />
    <!-- Rail 1622617582 -->
    <path d="M 105.24789527447503 19.95210338936687 L 121.59550807568867 29.390402040755305 " />
    <!-- Rail 849088961 -->
    <path d="M 105.24789527447507 19.95210338936687 A 491.45 491.45 0 0 1 168.08579943739994 38.188061514765366 M 168.0857994373999 38.18806151476537 L 186.87965185311802 45.02846438127876 " />
    <!-- Rail 581719428 -->
    <path d="M 1.2776127732104763E-14 -8.650000000000006 A 208.65 208.65 0 0 1 100.64734808547571 17.229833333333403 " />
    <!-- Rail 443330851 -->
    <path d="M 100.6473480854757 17.229833333333374 A 493.15 493.15 0 0 1 110.36486517090586 19.35822171204495 " />
    <!-- Rail 1139619805 -->
    <path d="M 3.0086510238052604E-14 8.649999999999977 A 491.35 491.35 0 0 1 100.01525971889927 18.93683333333331 " />
    <!-- Rail 296563832 -->
    <path d="M 100.01525971889929 18.93683333333331 A 206.85 206.85 0 0 1 103.42499999999997 20.862645227188864 M 103.42499999999998 20.86264522718885 L 108.63497471805753 23.87062553313054 " />
    <!-- Rail 1374503868 -->
    <path d="M 105.85743612939916 20.18855191220149 L 121.64550807568867 29.30379950037686 " />
    <!-- Rail 779552011 -->
    <path d="M 105.85743612939909 20.18855191220149 A 491.34999999999997 491.34999999999997 0 0 1 168.05159742306736 38.28203077684395 M 168.05159742306736 38.28203077684397 L 186.84544983878547 45.122433643357354 " />
</g>
</svg>
