<?xml version="1.0"?>
<!DOCTYPE svg PUBLIC "-//W3C//DTD SVG 1.1//EN"
  "http://www.w3.org/Graphics/SVG/1.1/DTD/svg11.dtd">

<svg version="1.1" xmlns="http://www.w3.org/2000/svg" transform="scale(1,-1)" width="214.64455799700264mm" height="140.55545570883712mm" viewBox="-18.51395390108693 -74.97850198027511 214.64455799700264 140.55545570883712" >
    <g stroke="black" stroke-width="0.1" fill="none" >
    <!-- Tie -->
    <path d="M 1.5138615678991174 10.012284771896608 L 3.5138596388940266 10.009507000012581 M 3.5138596388940266 10.009507000012581 L 3.486044169907979 -10.01765384636109 M 3.486044169907979 -10.01765384636109 L 1.4860460989130695 -10.014876074477064 M 1.4860460989130695 -10.014876074477064 L 1.5138615678991174 10.012284771896608 " />
    <!-- Tie -->
    <path d="M 6.540911666010904 10.102226645050653 L 8.540894305487553 10.093893470864737 M 8.540894305487553 10.093893470864737 L 8.456543381421254 -10.150539201805945 M 8.456543381421254 -10.150539201805945 L 6.456560741944605 -10.142206027620029 M 6.456560741944605 -10.142206027620029 L 6.540911666010904 10.102226645050653 " />
    <!-- Tie -->
    <path d="M 11.565933249154904 10.279316937170357 L 13.56588502838163 10.265428785102968 M 13.56588502838163 10.265428785102968 L 13.422285735448368 -10.41346787473065 M 13.422285735448368 -10.41346787473065 L 11.42233395622164 -10.39957972266326 M 11.42233395622164 -10.39957972266326 L 11.565933249154904 10.279316937170357 " />
    <!-- Tie -->
    <path d="M 16.58756964179792 10.543524469392205 L 18.58747513761714 10.524082046907429 M 18.58747513761714 10.524082046907429 L 18.380108076365765 -10.806311620509243 M 18.380108076365765 -10.806311620509243 L 16.380202580546545 -10.786869198024467 M 16.380202580546545 -10.786869198024467 L 16.58756964179792 10.543524469392205 " />
    <!-- Tie -->
    <path d="M 21.604465388317152 10.894802655254628 L 23.604309185934554 10.869806952999694 M 23.604309185934554 10.869806952999694 L 23.326851650035593 -11.32887850942682 M 23.326851650035593 -11.32887850942682 L 21.32700785241819 -11.303882807171886 M 21.32700785241819 -11.303882807171886 L 21.604465388317152 10.894802655254628 " />
    <!-- Tie -->
    <path d="M 26.61526674364396 11.333089635050843 L 28.61503343942029 11.30254192705473 M 28.61503343942029 11.30254192705473 L 28.259363853032955 -11.98091337009706 M 28.259363853032955 -11.98091337009706 L 26.25959715725662 -11.950365662100946 M 26.25959715725662 -11.950365662100946 L 26.61526674364396 11.333089635050843 " />
    <!-- Tie -->
    <path d="M 31.618622166097015 11.858308456679078 L 33.618296370343366 11.822210300607823 M 33.618296370343366 11.822210300607823 L 33.17449997090129 -12.762098386794626 M 33.17449997090129 -12.762098386794626 L 31.174825766654944 -12.726000230723372 M 31.174825766654944 -12.726000230723372 L 31.618622166097015 11.858308456679078 " />
    <!-- Tie -->
    <path d="M 36.613182813067255 12.470367304484189 L 38.61274915284463 12.428720541953092 M 38.61274915284463 12.428720541953092 L 38.06912490212086 -13.672053856111479 M 38.06912490212086 -13.672053856111479 L 36.06955856234349 -13.630407093580382 M 36.06955856234349 -13.630407093580382 L 36.613182813067255 12.470367304484189 " />
    <!-- Tie -->
    <path d="M 41.59760304027229 13.169159778001353 L 43.59704616219644 13.121966534944484 M 43.59704616219644 13.121966534944484 L 42.94011486431208 -14.71033910992912 M 42.94011486431208 -14.71033910992912 L 40.94067174238793 -14.66314586687225 M 40.94067174238793 -14.66314586687225 L 41.59760304027229 13.169159778001353 " />
    <!-- Tie -->
    <path d="M 46.570540905351194 13.95456522296464 L 48.56984547840349 13.90182791006195 M 48.56984547840349 13.90182791006195 L 47.78435907899386 -15.87645361345485 M 47.78435907899386 -15.87645361345485 L 45.78505450594157 -15.82371630055216 M 45.78505450594157 -15.82371630055216 L 46.570540905351194 13.95456522296464 " />
    <!-- Tie -->
    <path d="M 51.530658676636236 14.82644911742687 L 53.52980939498152 14.76817043058913 M 53.52980939498152 14.76817043058913 L 52.598761430973454 -17.16983824903189 M 52.598761430973454 -17.16983824903189 L 50.59961071262816 -17.111559562194152 M 50.59961071262816 -17.111559562194152 L 51.530658676636236 14.82644911742687 " />
    <!-- Tie -->
    <path d="M 56.47662334801438 15.784663516377822 L 58.47560493382668 15.720846437289865 M 58.47560493382668 15.720846437289865 L 57.38024209814335 -18.589876798668104 M 57.38024209814335 -18.589876798668104 L 55.381260512331046 -18.526059719580147 M 55.381260512331046 -18.526059719580147 L 56.47662334801438 15.784663516377822 " />
    <!-- Tie -->
    <path d="M 61.40710716088804 16.829047558837285 L 63.40590436718501 16.759695355559728 M 63.40590436718501 16.759695355559728 L 62.1257391470879 -20.135897640787785 M 62.1257391470879 -20.135897640787785 L 60.126941940790935 -20.06654543751023 M 60.126941940790935 -20.06654543751023 L 61.40710716088804 16.829047558837285 " />
    <!-- Tie -->
    <path d="M 66.32078813434997 17.95942804206485 L 68.31938574783689 17.884544269694942 M 68.31938574783689 17.884544269694942 L 66.83229475277763 -21.80491607268567 M 66.83229475277763 -21.80491607268567 L 64.8336971392907 -21.730032300315763 M 64.8336971392907 -21.730032300315763 L 66.32078813434997 17.95942804206485 " />
    <!-- Tie -->
    <path d="M 67.79267870826509 18.033419154755283 L 69.73564052242692 18.50765473830939 M 69.73564052242692 18.50765473830939 L 74.47799635796802 -0.9219634033090678 M 74.47799635796802 -0.9219634033090678 L 72.53503454380618 -1.396198986863178 M 72.53503454380618 -1.396198986863178 L 67.79267870826509 18.033419154755283 " />
    <!-- Tie -->
    <path d="M 72.48248872670027 19.20240594338464 L 74.41727713082606 19.708956860134734 M 74.41727713082606 19.708956860134734 L 79.48278629832697 0.3610728188767762 M 79.48278629832697 0.3610728188767762 L 77.54799789420117 -0.14547809787331367 M 77.54799789420117 -0.14547809787331367 L 72.48248872670027 19.20240594338464 " />
    <!-- Tie -->
    <path d="M 77.25941804382565 20.47150635361752 L 79.1912696964038 20.98914444382256 M 79.1912696964038 20.98914444382256 L 84.3676505984542 1.670627918041193 M 84.3676505984542 1.670627918041193 L 82.43579894587606 1.1529898278361532 M 82.43579894587606 1.1529898278361532 L 77.25941804382565 20.47150635361752 " />
    <!-- Tie -->
    <path d="M 82.08904717527099 21.76560157913012 L 84.02089882784912 22.28323966933516 M 84.02089882784912 22.28323966933516 L 89.19727972989955 2.9647231435537957 M 89.19727972989955 2.9647231435537957 L 87.2654280773214 2.447085053348756 M 87.2654280773214 2.447085053348756 L 82.08904717527099 21.76560157913012 " />
    <!-- Tie -->
    <path d="M 86.91867630671634 23.059696804642726 L 88.85052795929448 23.577334894847766 M 88.85052795929448 23.577334894847766 L 94.0269088613449 4.2588183690663985 M 94.0269088613449 4.2588183690663985 L 92.09505720876675 3.741180278861359 M 92.09505720876675 3.741180278861359 L 86.91867630671634 23.059696804642726 " />
    <!-- Tie -->
    <path d="M 91.74830543816168 24.353792030155326 L 93.68015709073981 24.871430120360365 M 93.68015709073981 24.871430120360365 L 98.85653799279024 5.552913594579001 M 98.85653799279024 5.552913594579001 L 96.92468634021209 5.035275504373962 M 96.92468634021209 5.035275504373962 L 91.74830543816168 24.353792030155326 " />
    <!-- Tie -->
    <path d="M 96.57793456960701 25.647887255667932 L 98.50978622218514 26.16552534587297 M 98.50978622218514 26.16552534587297 L 103.68616712423557 6.847008820091604 M 103.68616712423557 6.847008820091604 L 101.75431547165742 6.3293707298865645 M 101.75431547165742 6.3293707298865645 L 96.57793456960701 25.647887255667932 " />
    <!-- Tie -->
    <path d="M 101.40756370105235 26.94198248118053 L 103.3394153536305 27.45962057138557 M 103.3394153536305 27.45962057138557 L 108.51579625568091 8.141104045604207 M 108.51579625568091 8.141104045604207 L 106.58394460310276 7.623465955399167 M 106.58394460310276 7.623465955399167 L 101.40756370105235 26.94198248118053 " />
    <!-- Tie -->
    <path d="M 106.2371928324977 28.23607770669313 L 108.16904448507583 28.75371579689817 M 108.16904448507583 28.75371579689817 L 113.34542538712626 9.435199271116806 M 113.34542538712626 9.435199271116806 L 111.41357373454811 8.917561180911767 M 111.41357373454811 8.917561180911767 L 106.2371928324977 28.23607770669313 " />
    <!-- Tie -->
    <path d="M 111.06682196394303 29.530172932205737 L 112.99867361652116 30.047811022410777 M 112.99867361652116 30.047811022410777 L 118.17505451857159 10.729294496629413 M 118.17505451857159 10.729294496629413 L 116.24320286599344 10.211656406424373 M 116.24320286599344 10.211656406424373 L 111.06682196394303 29.530172932205737 " />
    <!-- Tie -->
    <path d="M 115.89645109538839 30.824268157718336 L 117.82830274796652 31.341906247923376 M 117.82830274796652 31.341906247923376 L 123.00468365001694 12.023389722142012 M 123.00468365001694 12.023389722142012 L 121.0728319974388 11.505751631936972 M 121.0728319974388 11.505751631936972 L 115.89645109538839 30.824268157718336 " />
    <!-- Tie -->
    <path d="M 120.72608022683372 32.11836338323094 L 122.65793187941185 32.63600147343598 M 122.65793187941185 32.63600147343598 L 127.83431278146227 13.317484947654618 M 127.83431278146227 13.317484947654618 L 125.90246112888413 12.799846857449579 M 125.90246112888413 12.799846857449579 L 120.72608022683372 32.11836338323094 " />
    <!-- Tie -->
    <path d="M 125.55570935827905 33.41245860874354 L 127.48756101085718 33.93009669894858 M 127.48756101085718 33.93009669894858 L 132.6639419129076 14.611580173167217 M 132.6639419129076 14.611580173167217 L 130.73209026032947 14.093942082962178 M 130.73209026032947 14.093942082962178 L 125.55570935827905 33.41245860874354 " />
    <!-- Tie -->
    <path d="M 130.3853384897244 34.70655383425615 L 132.31719014230254 35.22419192446119 M 132.31719014230254 35.22419192446119 L 137.49357104435296 15.905675398679824 M 137.49357104435296 15.905675398679824 L 135.56171939177483 15.388037308474784 M 135.56171939177483 15.388037308474784 L 130.3853384897244 34.70655383425615 " />
    <!-- Tie -->
    <path d="M 135.21496762116976 36.00064905976875 L 137.1468192737479 36.51828714997379 M 137.1468192737479 36.51828714997379 L 142.32320017579832 17.199770624192425 M 142.32320017579832 17.199770624192425 L 140.3913485232202 16.682132533987385 M 140.3913485232202 16.682132533987385 L 135.21496762116976 36.00064905976875 " />
    <!-- Tie -->
    <path d="M 140.0445967526151 37.294744285281354 L 141.97644840519322 37.81238237548639 M 141.97644840519322 37.81238237548639 L 147.15282930724365 18.493865849705024 M 147.15282930724365 18.493865849705024 L 145.22097765466552 17.976227759499984 M 145.22097765466552 17.976227759499984 L 140.0445967526151 37.294744285281354 " />
    <!-- Tie -->
    <path d="M 144.87422588406042 38.58883951079395 L 146.80607753663855 39.10647760099899 M 146.80607753663855 39.10647760099899 L 151.98245843868898 19.78796107521763 M 151.98245843868898 19.78796107521763 L 150.05060678611085 19.27032298501259 M 150.05060678611085 19.27032298501259 L 144.87422588406042 38.58883951079395 " />
    <!-- Tie -->
    <path d="M 149.70385501550578 39.88293473630656 L 151.6357066680839 40.4005728265116 M 151.6357066680839 40.4005728265116 L 156.81208757013434 21.08205630073023 M 156.81208757013434 21.08205630073023 L 154.8802359175562 20.56441821052519 M 154.8802359175562 20.56441821052519 L 149.70385501550578 39.88293473630656 " />
    <!-- Tie -->
    <path d="M 154.5334841469511 41.17702996181916 L 156.46533579952924 41.6946680520242 M 156.46533579952924 41.6946680520242 L 161.64171670157967 22.376151526242836 M 161.64171670157967 22.376151526242836 L 159.70986504900154 21.858513436037796 M 159.70986504900154 21.858513436037796 L 154.5334841469511 41.17702996181916 " />
    <!-- Tie -->
    <path d="M 159.36311327839644 42.471125187331765 L 161.29496493097457 42.988763277536805 M 161.29496493097457 42.988763277536805 L 166.471345833025 23.670246751755442 M 166.471345833025 23.670246751755442 L 164.53949418044687 23.152608661550403 M 164.53949418044687 23.152608661550403 L 159.36311327839644 42.471125187331765 " />
    <!-- Tie -->
    <path d="M 164.1927424098418 43.765220412844364 L 166.12459406241993 44.282858503049404 M 166.12459406241993 44.282858503049404 L 171.30097496447036 24.96434197726804 M 171.30097496447036 24.96434197726804 L 169.36912331189222 24.446703887063002 M 169.36912331189222 24.446703887063002 L 164.1927424098418 43.765220412844364 " />
    <!-- Tie -->
    <path d="M 169.02237154128716 45.05931563835696 L 170.9542231938653 45.576953728562 M 170.9542231938653 45.576953728562 L 176.13060409591571 26.25843720278064 M 176.13060409591571 26.25843720278064 L 174.19875244333758 25.7407991125756 M 174.19875244333758 25.7407991125756 L 169.02237154128716 45.05931563835696 " />
    <!-- Tie -->
    <path d="M 67.80874591164752 -22.486588364336445 L 65.9293606700757 -21.802548077685103 M 65.9293606700757 -21.802548077685103 L 72.76976353658908 -3.0086956619669394 M 72.76976353658908 -3.0086956619669394 L 74.64914877816089 -3.692735948618278 M 74.64914877816089 -3.692735948618278 L 67.80874591164752 -22.486588364336445 " />
    <!-- Tie -->
    <path d="M 72.50720901557706 -24.196689080964795 L 70.62782377400524 -23.512648794313456 M 70.62782377400524 -23.512648794313456 L 77.46822664051862 -4.718796378595291 M 77.46822664051862 -4.718796378595291 L 79.34761188209043 -5.40283666524663 M 79.34761188209043 -5.40283666524663 L 72.50720901557706 -24.196689080964795 " />
    <!-- Tie -->
    <path d="M 77.2056721195066 -25.90678979759315 L 75.32628687793478 -25.222749510941807 M 75.32628687793478 -25.222749510941807 L 82.16668974444816 -6.4288970952236415 M 82.16668974444816 -6.4288970952236415 L 84.04607498601997 -7.11293738187498 M 84.04607498601997 -7.11293738187498 L 77.2056721195066 -25.90678979759315 " />
    <!-- Tie -->
    <path d="M 81.90413522343614 -27.616890514221495 L 80.02474998186432 -26.932850227570157 M 80.02474998186432 -26.932850227570157 L 86.8651528483777 -8.138997811851992 M 86.8651528483777 -8.138997811851992 L 88.74453808994951 -8.82303809850333 M 88.74453808994951 -8.82303809850333 L 81.90413522343614 -27.616890514221495 " />
    <!-- Tie -->
    <path d="M 86.60259832736568 -29.32699123084985 L 84.72321308579386 -28.64295094419851 M 84.72321308579386 -28.64295094419851 L 91.56361595230725 -9.849098528480345 M 91.56361595230725 -9.849098528480345 L 93.44300119387906 -10.533138815131684 M 93.44300119387906 -10.533138815131684 L 86.60259832736568 -29.32699123084985 " />
    <!-- Tie -->
    <path d="M 91.30106143129522 -31.037091947478203 L 89.4216761897234 -30.35305166082686 M 89.4216761897234 -30.35305166082686 L 96.26207905623679 -11.559199245108696 M 96.26207905623679 -11.559199245108696 L 98.1414642978086 -12.243239531760034 M 98.1414642978086 -12.243239531760034 L 91.30106143129522 -31.037091947478203 " />
    <!-- Tie -->
    <path d="M 95.99952453522477 -32.74719266410655 L 94.12013929365294 -32.06315237745521 M 94.12013929365294 -32.06315237745521 L 100.96054216016633 -13.269299961737046 M 100.96054216016633 -13.269299961737046 L 102.83992740173814 -13.953340248388384 M 102.83992740173814 -13.953340248388384 L 95.99952453522477 -32.74719266410655 " />
    <!-- Tie -->
    <path d="M 100.6979876391543 -34.4572933807349 L 98.81860239758248 -33.773253094083564 M 98.81860239758248 -33.773253094083564 L 105.65900526409587 -14.9794006783654 M 105.65900526409587 -14.9794006783654 L 107.53839050566768 -15.663440965016738 M 107.53839050566768 -15.663440965016738 L 100.6979876391543 -34.4572933807349 " />
    <!-- Tie -->
    <path d="M 105.39645074308383 -36.16739409736325 L 103.51706550151201 -35.48335381071191 M 103.51706550151201 -35.48335381071191 L 110.3574683680254 -16.689501394993748 M 110.3574683680254 -16.689501394993748 L 112.2368536095972 -17.373541681645086 M 112.2368536095972 -17.373541681645086 L 105.39645074308383 -36.16739409736325 " />
    <!-- Tie -->
    <path d="M 110.09491384701339 -37.8774948139916 L 108.21552860544156 -37.193454527340265 M 108.21552860544156 -37.193454527340265 L 115.05593147195495 -18.3996021116221 M 115.05593147195495 -18.3996021116221 L 116.93531671352676 -19.08364239827344 M 116.93531671352676 -19.08364239827344 L 110.09491384701339 -37.8774948139916 " />
    <!-- Tie -->
    <path d="M 114.79337695094291 -39.58759553061996 L 112.91399170937109 -38.90355524396861 M 112.91399170937109 -38.90355524396861 L 119.75439457588448 -20.109702828250448 M 119.75439457588448 -20.109702828250448 L 121.63377981745629 -20.793743114901787 M 121.63377981745629 -20.793743114901787 L 114.79337695094291 -39.58759553061996 " />
    <!-- Tie -->
    <path d="M 119.49184005487245 -41.297696247248304 L 117.61245481330063 -40.613655960596965 M 117.61245481330063 -40.613655960596965 L 124.45285767981402 -21.819803544878802 M 124.45285767981402 -21.819803544878802 L 126.33224292138583 -22.50384383153014 M 126.33224292138583 -22.50384383153014 L 119.49184005487245 -41.297696247248304 " />
    <!-- Tie -->
    <path d="M 124.190303158802 -43.00779696387666 L 122.31091791723017 -42.32375667722532 M 122.31091791723017 -42.32375667722532 L 129.15132078374356 -23.529904261507156 M 129.15132078374356 -23.529904261507156 L 131.03070602531537 -24.213944548158494 M 131.03070602531537 -24.213944548158494 L 124.190303158802 -43.00779696387666 " />
    <!-- Tie -->
    <path d="M 128.88876626273154 -44.717897680505004 L 127.00938102115973 -44.033857393853665 M 127.00938102115973 -44.033857393853665 L 133.8497838876731 -25.240004978135502 M 133.8497838876731 -25.240004978135502 L 135.72916912924492 -25.92404526478684 M 135.72916912924492 -25.92404526478684 L 128.88876626273154 -44.717897680505004 " />
    <!-- Tie -->
    <path d="M 133.58722936666106 -46.42799839713336 L 131.70784412508925 -45.74395811048202 M 131.70784412508925 -45.74395811048202 L 138.54824699160264 -26.950105694763856 M 138.54824699160264 -26.950105694763856 L 140.42763223317445 -27.634145981415195 M 140.42763223317445 -27.634145981415195 L 133.58722936666106 -46.42799839713336 " />
    <!-- Tie -->
    <path d="M 138.2856924705906 -48.13809911376171 L 136.40630722901878 -47.45405882711037 M 136.40630722901878 -47.45405882711037 L 143.24671009553217 -28.66020641139221 M 143.24671009553217 -28.66020641139221 L 145.12609533710398 -29.34424669804355 M 145.12609533710398 -29.34424669804355 L 138.2856924705906 -48.13809911376171 " />
    <!-- Tie -->
    <path d="M 142.98415557452014 -49.84819983039006 L 141.10477033294833 -49.16415954373872 M 141.10477033294833 -49.16415954373872 L 147.94517319946172 -30.370307128020556 M 147.94517319946172 -30.370307128020556 L 149.82455844103353 -31.054347414671895 M 149.82455844103353 -31.054347414671895 L 142.98415557452014 -49.84819983039006 " />
    <!-- Tie -->
    <path d="M 147.6826186784497 -51.55830054701841 L 145.8032334368779 -50.87426026036707 M 145.8032334368779 -50.87426026036707 L 152.64363630339128 -32.08040784464891 M 152.64363630339128 -32.08040784464891 L 154.5230215449631 -32.76444813130025 M 154.5230215449631 -32.76444813130025 L 147.6826186784497 -51.55830054701841 " />
    <!-- Tie -->
    <path d="M 152.3810817823792 -53.268401263646766 L 150.5016965408074 -52.58436097699543 M 150.5016965408074 -52.58436097699543 L 157.34209940732077 -33.790508561277264 M 157.34209940732077 -33.790508561277264 L 159.22148464889258 -34.4745488479286 M 159.22148464889258 -34.4745488479286 L 152.3810817823792 -53.268401263646766 " />
    <!-- Tie -->
    <path d="M 157.07954488630875 -54.97850198027511 L 155.20015964473694 -54.294461693623774 M 155.20015964473694 -54.294461693623774 L 162.04056251125033 -35.50060927790561 M 162.04056251125033 -35.50060927790561 L 163.91994775282214 -36.18464956455695 M 163.91994775282214 -36.18464956455695 L 157.07954488630875 -54.97850198027511 " />
    <!-- Rail 1539281825 -->
    <path d="M 1.7864535182562015E-14 8.25 A 291.75 291.75 0 0 1 75.51045640866043 18.191140180164325 M 75.51045640866043 18.19114018016434 L 172.10303903756702 44.073044690416324 " />
    <!-- Rail 1568318503 -->
    <path d="M 1.1741301186825248E-14 -8.25 A 191.75 191.75 0 0 0 65.582362482697 -19.81393996430208 M 65.582362482697 -19.81393996430208 L 159.5516245612875 -54.01595429686901 " />
    <!-- Rail 1715533082 -->
    <path d="M 1.7873720033555618E-14 8.100000000000023 A 291.9 291.9 0 0 1 75.5492792654258 18.046251306220995 M 75.54927926542581 18.046251306220977 L 172.14186189433238 43.92815581647296 " />
    <!-- Rail 1878346033 -->
    <path d="M 1.1750486037818855E-14 -8.099999999999994 A 191.9 191.9 0 0 0 65.63366550419585 -19.672986071184198 M 65.63366550419583 -19.67298607118419 L 159.60292758278635 -53.87500040375112 " />
    <!-- Rail 1223753205 -->
    <path d="M 1.785228871457054E-14 8.449999999999989 A 291.55 291.55 0 0 1 75.45869259963993 18.3843253454221 M 75.45869259963993 18.38432534542215 L 172.0512752285465 44.26622985567413 " />
    <!-- Rail 1084437328 -->
    <path d="M 1.1729054718833776E-14 -8.449999999999989 A 191.55 191.55 0 0 0 65.51395845403187 -20.001878488459255 M 65.51395845403185 -20.001878488459262 L 159.48322053262237 -54.203892821026194 " />
    <!-- Rail 556463739 -->
    <path d="M 1.7843103863576934E-14 8.600000000000023 A 291.4 291.4 0 0 1 75.41986974287454 18.529214219365542 M 75.41986974287455 18.52921421936551 L 172.01245237178114 44.4111187296175 " />
    <!-- Rail 1683197870 -->
    <path d="M 1.171986986784017E-14 -8.599999999999994 A 191.4 191.4 0 0 0 65.46265543253301 -20.142832381577136 M 65.462655432533 -20.142832381577147 L 159.43191751112352 -54.34484671414408 " />
    <!-- Rail 730061188 -->
    <path d="M 1.887486879185858E-14 -8.25 A 308.25 308.25 0 0 1 61.43692871351883 -2.0655000000000427 " />
    <!-- Rail 1927501335 -->
    <path d="M 61.43692871351895 -2.065499999999986 A 207.25000000000003 207.25000000000003 0 0 0 70.88367470424487 -5.248704342120476 M 70.88367470424487 -5.248704342120507 L 70.91223945231681 -5.259101060168005 " />
    <!-- Rail 67956510 -->
    <path d="M 1.2751634796121815E-14 8.25 A 208.25 208.25 0 0 0 61.488147717670074 -1.0345000000000368 " />
    <!-- Rail 2086289102 -->
    <path d="M 61.48814771766996 -1.03449999999998 A 307.25 307.25 0 0 1 71.2515593708644 1.1258161245434621 " />
    <!-- Rail 1226868536 -->
    <path d="M 63.44556722104396 -1.6499999999999773 A 308.25 308.25 0 0 1 79.78097065285202 2.2533640463946654 M 79.78097065285202 2.2533640463947098 L 176.3735532817586 28.135268556646693 " />
    <!-- Rail 555430885 -->
    <path d="M 63.445567221043994 -1.6499999999999773 A 208.25000000000006 208.25000000000006 0 0 0 71.22569484757055 -4.309011721334542 M 71.22569484757054 -4.309011721334599 L 165.19495692616107 -38.51102605390153 " />
    <!-- Rail 1108106439 -->
    <path d="M 1.8868745557862844E-14 -8.149999999999977 A 308.15 308.15 0 0 1 61.442098647751216 -1.9624000000000024 " />
    <!-- Rail 1863169542 -->
    <path d="M 61.442098647751436 -1.9623999999999455 A 207.3500000000001 207.3500000000001 0 0 0 70.91787671857747 -5.154735080041803 M 70.91787671857745 -5.154735080041917 L 70.94644146664935 -5.165131798089406 " />
    <!-- Rail 576320920 -->
    <path d="M 1.2745511562126079E-14 8.150000000000006 A 208.15 208.15 0 0 0 61.4830738190602 -1.1376000000000204 " />
    <!-- Rail 1512406573 -->
    <path d="M 61.48307381906027 -1.1376000000000772 A 307.3500000000001 307.3500000000001 0 0 1 71.27474946341799 1.0285421834936415 " />
    <!-- Rail 2062547914 -->
    <path d="M 63.05367237520742 -1.6299999999999955 A 308.15 308.15 0 0 1 79.75508874834176 2.349956629023609 M 79.75508874834176 2.349956629023617 L 176.34767137724836 28.2318611392756 " />
    <!-- Rail 2026950423 -->
    <path d="M 63.05367237520733 -1.6299999999999955 A 208.14999999999998 208.14999999999998 0 0 0 71.19149283323796 -4.402980983413215 M 71.19149283323797 -4.402980983413189 L 165.1607549118285 -38.60499531598012 " />
    <!-- Rail 357044384 -->
    <path d="M 1.8893238493845793E-14 -8.550000000000011 A 308.55 308.55 0 0 1 61.42135479586892 -2.3747999999999934 " />
    <!-- Rail 1693302834 -->
    <path d="M 61.4213547958686 -2.374800000000022 A 206.9499999999999 206.9499999999999 0 0 0 70.78106866124713 -5.530612128356353 M 70.78106866124718 -5.530612128356279 L 70.80963340931908 -5.541008846403767 " />
    <!-- Rail 1641629390 -->
    <path d="M 1.2770004498109026E-14 8.550000000000011 A 208.55 208.55 0 0 0 61.503305479949596 -0.7251999999999725 " />
    <!-- Rail 521110933 -->
    <path d="M 61.50330547994949 -0.7252000000000294 A 306.95 306.95 0 0 1 71.18198909320367 1.4176379476928673 " />
    <!-- Rail 1243040708 -->
    <path d="M 64.60788187210592 -1.7099999999999795 A 308.54999999999995 308.54999999999995 0 0 1 79.85861636638276 1.9635862985080053 M 79.85861636638278 1.9635862985079893 L 176.45119899528936 27.845490808759976 " />
    <!-- Rail 1081212644 -->
    <path d="M 64.6078818721061 -1.7099999999999795 A 208.55000000000007 208.55000000000007 0 0 0 71.32830089056826 -4.027103935098751 M 71.32830089056824 -4.027103935098827 L 165.29756296915878 -38.22911826766576 " />
    <!-- Rail 1807040274 -->
    <path d="M 1.8899361727841528E-14 -8.649999999999977 A 308.65 308.65 0 0 1 61.416142109302214 -2.477899999999977 " />
    <!-- Rail 141896924 -->
    <path d="M 61.41614210930187 -2.4779000000000337 A 206.84999999999988 206.84999999999988 0 0 0 70.74686664691455 -5.624581390434969 M 70.74686664691461 -5.62458139043487 L 70.77543139498651 -5.634978108482359 " />
    <!-- Rail 2026639229 -->
    <path d="M 1.2776127732104763E-14 8.650000000000006 A 208.65 208.65 0 0 0 61.508336764946044 -0.6221000000000174 " />
    <!-- Rail 923093086 -->
    <path d="M 61.50833676494602 -0.6221000000001027 A 306.8500000000001 306.8500000000001 0 0 1 71.1587990006501 1.5149118887425175 " />
    <!-- Rail 1963637763 -->
    <path d="M 64.99099629948746 -1.7299999999999045 A 308.6499999999999 308.6499999999999 0 0 1 79.884498270893 1.8669937158791186 M 79.88449827089303 1.866993715879083 L 176.4770808997996 27.748898226131068 " />
    <!-- Rail 1421376946 -->
    <path d="M 64.99099629948725 -1.7300000000000182 A 208.6499999999999 208.6499999999999 0 0 0 71.36250290490077 -3.9331346730203336 M 71.36250290490081 -3.933134673020236 L 165.33176498349133 -38.13514900558717 " />
    <!-- Tie -->
    <path d="M -1.5000000000000036 -10.0 L -3.5 -10.0 M -3.5 -10.0 L -3.499999999999998 10.0 M -3.499999999999998 10.0 L -1.499999999999999 10.0 M -1.499999999999999 10.0 L -1.5000000000000036 -10.0 " />
    <!-- Tie -->
    <path d="M -6.5000000000000036 -9.999999999999998 L -8.5 -9.999999999999998 M -8.5 -9.999999999999998 L -8.499999999999998 10.000000000000002 M -8.499999999999998 10.000000000000002 L -6.499999999999999 10.000000000000002 M -6.499999999999999 10.000000000000002 L -6.5000000000000036 -9.999999999999998 " />
    <!-- Rail 1284974527 -->
    <path d="M -5.051668046482832E-16 -8.25 L -10.0 -8.25 " />
    <!-- Rail 1364050379 -->
    <path d="M -4.959819536546781E-16 -8.1 L -10.0 -8.1 " />
    <!-- Rail 1896318277 -->
    <path d="M -5.174132726397567E-16 -8.45 L -10.0 -8.45 " />
    <!-- Rail 1724195642 -->
    <path d="M -5.265981236333618E-16 -8.6 L -10.0 -8.6 " />
    <!-- Rail 320494210 -->
    <path d="M 5.051668046482832E-16 8.25 L -10.0 8.25 " />
    <!-- Rail 744915635 -->
    <path d="M 4.959819536546781E-16 8.1 L -10.0 8.1 " />
    <!-- Rail 1636173783 -->
    <path d="M 5.174132726397567E-16 8.45 L -10.0 8.45 " />
    <!-- Rail 773141550 -->
    <path d="M 5.265981236333618E-16 8.6 L -10.0 8.6 " />
</g>
</svg>
