# WaveFront *.obj file (generated by Autodesk ATF)


g Volumenkörper1

v -0.500000 -1.000000 0.000000
v -0.500000 -1.000000 0.300000
v -0.500000 -0.900000 0.100000
v -0.500000 -0.900000 0.300000
v -0.500000 0.900000 0.100000
v -0.500000 0.900000 0.300000
v -0.500000 1.000000 0.000000
v -0.500000 1.000000 0.300000
v 0.500000 -1.000000 0.000000
v 0.500000 -1.000000 0.300000
v 0.500000 -0.900000 0.100000
v 0.500000 -0.900000 0.300000
v 0.500000 0.900000 0.100000
v 0.500000 0.900000 0.300000
v 0.500000 1.000000 0.000000
v 0.500000 1.000000 0.300000
vt -0.008200 0.100000 0.000000
vt -0.008200 -0.100000 0.000000
vt 0.021800 -0.100000 0.000000
vt 0.021800 -0.090000 0.000000
vt 0.001800 -0.090000 0.000000
vt 0.001800 0.090000 0.000000
vt 0.021800 0.090000 0.000000
vt 0.021800 0.100000 0.000000
vt 0.030000 -0.050000 0.000000
vt 0.030000 0.050000 0.000000
vt 0.000000 0.050000 0.000000
vt 0.000000 -0.050000 0.000000
vt 0.010000 -0.050000 0.000000
vt 0.010000 0.050000 0.000000
vt 0.000000 0.050000 0.000000
vt 0.000000 -0.050000 0.000000
vt 0.020000 -0.050000 0.000000
vt 0.020000 0.050000 0.000000
vt 0.000000 0.050000 0.000000
vt 0.000000 -0.050000 0.000000
vt 0.180000 -0.050000 0.000000
vt 0.180000 0.050000 0.000000
vt 0.000000 0.050000 0.000000
vt 0.000000 -0.050000 0.000000
vt 0.020000 -0.050000 0.000000
vt 0.020000 0.050000 0.000000
vt 0.000000 0.050000 0.000000
vt 0.000000 -0.050000 0.000000
vt 0.010000 -0.050000 0.000000
vt 0.010000 0.050000 0.000000
vt 0.000000 0.050000 0.000000
vt 0.000000 -0.050000 0.000000
vt 0.030000 -0.050000 0.000000
vt 0.030000 0.050000 0.000000
vt 0.000000 0.050000 0.000000
vt 0.000000 -0.050000 0.000000
vt 0.200000 -0.050000 0.000000
vt 0.200000 0.050000 0.000000
vt 0.000000 0.050000 0.000000
vt 0.000000 -0.050000 0.000000
vt 0.008200 -0.100000 0.000000
vt 0.008200 0.100000 0.000000
vt -0.021800 0.100000 0.000000
vt -0.021800 0.090000 0.000000
vt -0.001800 0.090000 0.000000
vt -0.001800 -0.090000 0.000000
vt -0.021800 -0.090000 0.000000
vt -0.021800 -0.100000 0.000000
vn -0.100000 0.000000 0.000000
vn -0.100000 0.000000 0.000000
vn -0.100000 0.000000 0.000000
vn -0.100000 0.000000 0.000000
vn -0.100000 0.000000 0.000000
vn -0.100000 0.000000 0.000000
vn -0.100000 0.000000 0.000000
vn -0.100000 0.000000 0.000000
vn 0.000000 -0.100000 0.000000
vn 0.000000 -0.100000 0.000000
vn 0.000000 -0.100000 0.000000
vn 0.000000 -0.100000 0.000000
vn 0.000000 0.000000 0.100000
vn 0.000000 0.000000 0.100000
vn 0.000000 0.000000 0.100000
vn 0.000000 0.000000 0.100000
vn 0.000000 0.100000 0.000000
vn 0.000000 0.100000 0.000000
vn 0.000000 0.100000 0.000000
vn 0.000000 0.100000 0.000000
vn 0.000000 0.000000 0.100000
vn 0.000000 0.000000 0.100000
vn 0.000000 0.000000 0.100000
vn 0.000000 0.000000 0.100000
vn 0.000000 -0.100000 0.000000
vn 0.000000 -0.100000 0.000000
vn 0.000000 -0.100000 0.000000
vn 0.000000 -0.100000 0.000000
vn 0.000000 0.000000 0.100000
vn 0.000000 0.000000 0.100000
vn 0.000000 0.000000 0.100000
vn 0.000000 0.000000 0.100000
vn 0.000000 0.100000 0.000000
vn 0.000000 0.100000 0.000000
vn 0.000000 0.100000 0.000000
vn 0.000000 0.100000 0.000000
vn 0.000000 0.000000 -0.100000
vn 0.000000 0.000000 -0.100000
vn 0.000000 0.000000 -0.100000
vn 0.000000 0.000000 -0.100000
vn 0.100000 0.000000 0.000000
vn 0.100000 0.000000 0.000000
vn 0.100000 0.000000 0.000000
vn 0.100000 0.000000 0.000000
vn 0.100000 0.000000 0.000000
vn 0.100000 0.000000 0.000000
vn 0.100000 0.000000 0.000000
vn 0.100000 0.000000 0.000000
usemtl 191,191,191
f 8/8/8 7/1/1 5/6/6
f 5/6/6 7/1/1 1/2/2
f 5/6/6 1/2/2 3/5/5
f 3/5/5 1/2/2 2/3/3
f 3/5/5 2/3/3 4/4/4
f 5/6/6 6/7/7 8/8/8
f 9/10/10 10/11/11 1/9/9
f 1/9/9 10/11/11 2/12/12
f 10/14/14 12/15/15 2/13/13
f 2/13/13 12/15/15 4/16/16
f 12/18/18 11/19/19 4/17/17
f 4/17/17 11/19/19 3/20/20
f 11/22/22 13/23/23 3/21/21
f 3/21/21 13/23/23 5/24/24
f 13/26/26 14/27/27 5/25/25
f 5/25/25 14/27/27 6/28/28
f 14/30/30 16/31/31 6/29/29
f 6/29/29 16/31/31 8/32/32
f 16/34/34 15/35/35 8/33/33
f 8/33/33 15/35/35 7/36/36
f 15/38/38 9/39/39 7/37/37
f 7/37/37 9/39/39 1/40/40
f 15/42/42 13/45/45 9/41/41
f 9/41/41 13/45/45 11/46/46
f 9/41/41 11/46/46 10/48/48
f 10/48/48 11/46/46 12/47/47
f 15/42/42 16/43/43 13/45/45
f 13/45/45 16/43/43 14/44/44

# 16 vertices
# 48 texture params
# 48 normals
# 28 facets

# 1 groups
